{"glyphs":{"0":{"ha":658,"x_min":0,"x_max":0,"o":"m 329 -18 b 624 285 503 -18 624 75 l 624 717 b 329 1018 624 924 503 1018 b 35 717 151 1018 35 924 l 35 285 b 329 -18 35 75 149 -18 z m 329 188 b 271 297 285 188 271 219 l 271 708 b 329 818 271 785 285 818 b 388 708 374 818 388 788 l 388 296 b 329 188 388 217 374 188 z "},"1":{"ha":513,"x_min":0,"x_max":0,"o":"m 486 0 l 486 217 l 375 217 l 375 1000 l 196 1000 b 43 842 171 917 118 858 l 43 678 l 147 678 l 147 217 l 26 217 l 26 0 z "},"2":{"ha":633,"x_min":0,"x_max":0,"o":"m 601 0 l 601 218 l 294 218 l 294 236 b 417 365 297 288 353 321 b 607 671 504 426 607 503 l 607 779 b 321 1018 607 935 514 1018 b 35 767 125 1018 35 926 l 35 619 l 268 619 l 268 758 b 324 822 268 794 278 822 b 376 769 360 822 376 804 l 376 675 b 229 503 376 597 306 554 b 33 200 136 440 33 364 l 33 0 z "},"3":{"ha":650,"x_min":0,"x_max":0,"o":"m 315 -18 b 617 214 513 -18 617 75 l 617 368 b 528 521 617 450 582 496 b 604 664 579 546 604 592 l 604 800 b 318 1018 604 933 500 1018 b 36 779 139 1018 36 931 l 36 660 l 265 660 l 265 758 b 318 814 265 796 279 814 b 374 764 360 814 374 797 l 374 650 b 317 604 374 615 357 604 l 247 604 l 247 429 l 315 429 b 378 383 360 429 378 419 l 378 250 b 318 197 378 217 365 197 b 263 254 274 197 263 215 l 263 371 l 29 371 l 29 232 b 315 -18 29 74 114 -18 z "},"4":{"ha":669,"x_min":0,"x_max":0,"o":"m 650 174 l 650 372 l 558 372 l 558 1000 l 360 1000 l 26 344 l 26 174 l 344 174 l 344 0 l 558 0 l 558 174 z m 331 547 l 350 617 l 344 556 l 344 372 l 243 372 z "},"5":{"ha":628,"x_min":0,"x_max":0,"o":"m 318 -18 b 601 235 518 -18 601 79 l 601 457 b 421 688 601 600 556 688 b 251 593 325 688 283 651 l 275 796 l 368 796 b 586 988 553 796 586 817 l 586 1000 l 92 1000 l 32 492 l 243 440 l 250 463 b 313 504 264 486 285 504 b 371 443 351 504 371 483 l 371 254 b 317 192 371 217 357 192 b 265 246 281 192 265 214 l 265 365 l 25 365 l 25 232 b 318 -18 25 76 107 -18 z "},"6":{"ha":653,"x_min":0,"x_max":0,"o":"m 625 235 l 625 392 b 432 599 625 535 561 599 b 274 515 351 599 300 564 l 274 708 b 335 818 274 786 292 818 b 383 761 371 818 383 800 l 383 650 l 619 650 l 619 758 b 336 1018 617 926 532 1018 b 35 711 143 1018 35 922 l 35 289 b 333 -18 35 81 135 -18 b 625 235 519 -18 625 67 z m 332 193 b 274 294 289 193 274 221 l 274 406 b 335 432 289 422 310 432 b 390 369 376 432 390 411 l 390 247 b 332 193 390 217 375 193 z "},"7":{"ha":581,"x_min":0,"x_max":0,"o":"m 328 0 b 565 811 376 338 450 563 l 565 1000 l 19 1000 l 19 776 l 315 776 b 57 0 218 579 110 329 z "},"8":{"ha":639,"x_min":0,"x_max":0,"o":"m 318 -18 b 613 204 513 -18 613 69 l 613 360 b 519 524 613 443 579 496 b 603 678 575 550 603 600 l 603 800 b 319 1018 603 931 503 1018 b 40 799 136 1018 40 928 l 40 675 b 124 521 40 597 68 547 b 26 360 63 492 26 436 l 26 206 b 318 -18 26 63 124 -18 z m 321 608 b 265 653 278 608 265 622 l 265 772 b 321 819 265 801 279 819 b 378 772 365 819 378 800 l 378 653 b 321 608 378 622 364 608 z m 321 193 b 261 240 282 193 261 206 l 261 386 b 319 433 261 414 278 433 b 381 389 361 433 381 418 l 381 243 b 321 193 381 208 360 193 z "},"9":{"ha":650,"x_min":0,"x_max":0,"o":"m 322 578 b 265 619 285 578 265 590 l 265 760 b 322 817 265 796 285 817 b 385 731 367 817 385 792 l 385 606 b 322 578 371 588 350 578 z m 325 -18 b 615 282 513 -18 615 78 l 615 708 b 317 1018 615 925 519 1018 b 29 761 131 1018 29 924 l 29 614 b 239 411 29 474 104 411 b 385 496 315 411 360 447 l 385 274 b 329 185 385 206 368 185 b 272 247 288 185 272 206 l 272 360 l 31 360 l 31 240 b 325 -18 35 76 118 -18 z "}," ":{"ha":271,"x_min":0,"x_max":0,"o":""}," ":{"ha":271,"x_min":0,"x_max":0,"o":""},"A":{"ha":638,"x_min":0,"x_max":0,"o":"m 307 542 l 317 667 l 326 542 l 367 300 l 268 300 z m 415 0 l 643 0 l 429 1000 l 204 1000 l -6 0 l 221 0 l 239 110 l 397 110 z "},"B":{"ha":635,"x_min":0,"x_max":0,"o":"m 374 0 b 610 233 557 0 610 74 l 610 347 b 492 518 610 447 576 496 b 596 678 571 539 596 588 l 596 779 b 325 1000 596 933 521 1000 l 43 1000 l 43 0 z m 314 819 b 376 765 358 819 376 806 l 376 669 b 319 606 376 622 360 606 l 260 606 l 260 819 z m 313 419 b 381 358 363 419 381 406 l 381 260 b 317 194 381 211 365 194 l 260 194 l 260 419 z "},"C":{"ha":653,"x_min":0,"x_max":0,"o":"m 325 -15 b 622 274 514 -15 618 61 l 622 447 l 379 447 l 379 289 b 326 196 378 224 368 196 b 274 303 282 196 274 224 l 274 704 b 326 813 274 782 283 813 b 379 722 369 813 379 788 l 379 578 l 621 578 l 621 743 b 328 1015 621 932 514 1015 b 36 722 150 1015 36 929 l 36 285 b 325 -15 36 74 129 -15 z "},"D":{"ha":657,"x_min":0,"x_max":0,"o":"m 43 0 l 321 0 b 621 290 494 0 621 79 l 621 711 b 324 1000 621 921 497 1000 l 43 1000 z m 310 806 b 383 694 356 806 383 778 l 383 313 b 310 200 383 231 357 200 l 271 200 l 271 806 z "},"E":{"ha":557,"x_min":0,"x_max":0,"o":"m 532 214 l 268 214 l 268 400 l 500 400 l 500 608 l 268 608 l 268 794 l 528 794 l 528 1000 l 43 1000 l 43 0 l 532 0 z "},"F":{"ha":529,"x_min":0,"x_max":0,"o":"m 482 375 l 482 586 l 267 586 l 267 788 l 508 788 l 508 1000 l 43 1000 l 43 0 l 267 0 l 267 375 z "},"G":{"ha":676,"x_min":0,"x_max":0,"o":"m 450 0 l 633 0 l 633 560 l 322 560 l 322 368 l 403 368 l 403 304 b 336 194 403 218 379 194 b 274 303 292 194 274 228 l 274 704 b 335 813 274 783 293 813 b 396 724 375 813 396 794 l 396 626 l 633 626 l 633 739 b 339 1015 633 929 531 1015 b 36 719 157 1015 36 926 l 36 281 b 240 -15 36 72 99 -15 b 426 150 347 -15 408 44 z "},"H":{"ha":656,"x_min":0,"x_max":0,"o":"m 385 0 l 613 0 l 613 1000 l 385 1000 l 385 611 l 271 611 l 271 1000 l 43 1000 l 43 0 l 271 0 l 271 393 l 385 393 z "},"I":{"ha":490,"x_min":0,"x_max":0,"o":"m 461 0 l 461 217 l 357 217 l 357 785 l 461 785 l 461 1000 l 29 1000 l 29 785 l 136 785 l 136 217 l 29 217 l 29 0 z "},"J":{"ha":624,"x_min":0,"x_max":0,"o":"m 301 -15 b 581 285 492 -15 581 69 l 581 1000 l 344 1000 l 344 283 b 301 194 344 211 336 194 b 258 260 267 194 258 214 l 258 422 l 21 422 l 21 268 b 301 -15 21 56 113 -15 z "},"K":{"ha":671,"x_min":0,"x_max":0,"o":"m 306 407 l 415 0 l 667 0 l 485 582 l 469 624 l 656 1000 l 401 1000 l 278 703 l 261 651 l 265 729 l 265 1000 l 43 1000 l 43 0 l 265 0 l 265 392 l 296 463 z "},"L":{"ha":543,"x_min":0,"x_max":0,"o":"m 514 0 l 514 232 l 279 232 l 279 1000 l 43 1000 l 43 0 z "},"M":{"ha":772,"x_min":0,"x_max":0,"o":"m 254 488 l 244 583 l 246 575 l 365 275 l 411 275 l 528 579 l 532 594 l 517 499 l 517 0 l 729 0 l 729 1000 l 535 1000 l 383 611 l 236 1000 l 43 1000 l 43 0 l 254 0 z "},"N":{"ha":683,"x_min":0,"x_max":0,"o":"m 249 447 l 243 546 l 260 489 l 440 0 l 640 0 l 640 1000 l 435 1000 l 435 546 l 439 456 l 424 511 l 247 1000 l 43 1000 l 43 0 l 249 0 z "},"O":{"ha":664,"x_min":0,"x_max":0,"o":"m 332 -15 b 628 283 506 -15 628 74 l 628 717 b 332 1015 628 921 506 1015 b 36 717 154 1015 36 921 l 36 283 b 332 -15 36 74 151 -15 z m 332 194 b 274 301 288 194 274 224 l 274 706 b 332 814 274 783 288 814 b 390 706 376 814 390 785 l 390 301 b 332 194 390 222 376 194 z "},"P":{"ha":632,"x_min":0,"x_max":0,"o":"m 325 307 b 608 574 526 307 608 407 l 608 750 b 325 1000 608 918 526 1000 l 43 1000 l 43 0 l 267 0 l 267 307 z m 314 810 b 379 740 360 810 379 788 l 379 579 b 313 506 379 528 357 506 l 267 506 l 267 810 z "},"Q":{"ha":661,"x_min":0,"x_max":0,"o":"m 619 -119 l 532 46 b 625 283 590 93 625 171 l 625 717 b 331 1015 625 921 504 1015 b 36 717 153 1015 36 921 l 36 283 b 331 -15 36 74 150 -15 l 375 -119 z m 331 194 b 272 301 286 194 272 224 l 272 706 b 331 814 272 783 286 814 b 389 706 375 814 389 785 l 389 301 b 331 194 389 222 375 194 z "},"R":{"ha":624,"x_min":0,"x_max":0,"o":"m 311 810 b 372 746 357 810 372 792 l 372 618 b 311 561 372 578 357 561 l 260 561 l 260 810 z m 293 360 b 360 290 344 360 360 344 l 360 71 b 379 0 360 35 365 8 l 611 0 b 586 71 594 15 586 39 l 586 304 b 504 465 586 393 568 440 b 593 626 563 489 593 538 l 593 754 b 326 1000 593 936 513 1000 l 43 1000 l 43 0 l 260 0 l 260 360 z "},"S":{"ha":600,"x_min":0,"x_max":0,"o":"m 296 -17 b 579 239 489 -17 579 69 l 579 342 b 385 610 579 494 475 560 b 251 733 314 649 251 678 l 251 767 b 299 831 251 811 264 831 b 346 767 335 831 346 814 l 346 674 l 568 674 l 568 782 b 300 1017 568 936 475 1017 b 22 765 119 1017 22 938 l 22 714 b 210 451 22 567 121 503 b 349 310 282 410 349 375 l 349 247 b 301 185 349 208 340 185 b 249 247 258 185 249 208 l 249 385 l 14 385 l 14 243 b 296 -17 14 71 89 -17 z "},"T":{"ha":578,"x_min":0,"x_max":0,"o":"m 553 793 l 553 1000 l 25 1000 l 25 793 l 175 793 l 175 0 l 403 0 l 403 793 z "},"U":{"ha":643,"x_min":0,"x_max":0,"o":"m 322 -15 b 604 283 499 -15 604 74 l 604 1000 l 376 1000 l 376 297 b 322 206 376 225 364 206 b 267 297 281 206 267 226 l 267 1000 l 39 1000 l 39 283 b 322 -15 39 74 139 -15 z "},"V":{"ha":640,"x_min":0,"x_max":0,"o":"m 438 0 l 636 1000 l 407 1000 l 331 531 l 324 404 l 315 531 l 235 1000 l 4 1000 l 208 0 z "},"W":{"ha":926,"x_min":0,"x_max":0,"o":"m 449 429 l 458 564 l 467 429 l 540 0 l 751 0 l 922 1000 l 704 1000 l 640 535 l 629 368 l 613 533 l 536 1000 l 388 1000 l 306 533 l 286 376 l 279 535 l 221 1000 l 4 1000 l 160 0 l 372 0 z "},"X":{"ha":647,"x_min":0,"x_max":0,"o":"m 322 264 l 325 307 l 329 265 l 418 0 l 654 0 l 450 525 l 639 1000 l 407 1000 l 329 767 l 325 717 l 321 767 l 243 1000 l 8 1000 l 197 529 l -8 0 l 238 0 z "},"Y":{"ha":604,"x_min":0,"x_max":0,"o":"m 418 0 l 418 361 l 611 1000 l 379 1000 l 306 700 l 301 644 l 297 700 l 226 1000 l -7 1000 l 182 357 l 182 0 z "},"Z":{"ha":586,"x_min":0,"x_max":0,"o":"m 553 0 l 553 219 l 290 219 l 547 807 l 547 1000 l 44 1000 l 44 781 l 297 781 l 35 188 l 35 0 z "},"Á":{"ha":638,"x_min":0,"x_max":0,"o":"m 307 542 l 317 667 l 326 542 l 367 300 l 268 300 z m 415 0 l 643 0 l 429 1000 l 204 1000 l -6 0 l 221 0 l 239 110 l 397 110 z m 232 1057 l 390 1057 l 551 1268 l 342 1268 z "},"Ă":{"ha":638,"x_min":0,"x_max":0,"o":"m 307 542 l 317 667 l 326 542 l 367 300 l 268 300 z m 415 0 l 643 0 l 429 1000 l 204 1000 l -6 0 l 221 0 l 239 110 l 397 110 z m 317 1054 b 506 1263 449 1054 506 1115 l 364 1263 b 317 1190 364 1206 353 1190 b 269 1263 279 1190 269 1204 l 128 1263 b 317 1054 128 1117 178 1054 z "},"Â":{"ha":638,"x_min":0,"x_max":0,"o":"m 307 542 l 317 667 l 326 542 l 367 300 l 268 300 z m 415 0 l 643 0 l 429 1000 l 204 1000 l -6 0 l 221 0 l 239 110 l 397 110 z m 360 1057 l 513 1057 l 389 1296 l 250 1296 l 126 1057 l 275 1057 l 318 1158 z "},"Ä":{"ha":638,"x_min":0,"x_max":0,"o":"m 307 542 l 317 667 l 326 542 l 367 300 l 268 300 z m 415 0 l 643 0 l 429 1000 l 204 1000 l -6 0 l 221 0 l 239 110 l 397 110 z m 210 1054 b 301 1149 279 1054 301 1076 b 210 1250 301 1226 278 1250 b 121 1149 144 1250 121 1226 b 210 1054 121 1074 139 1054 z m 422 1054 b 514 1149 490 1054 514 1076 b 422 1250 514 1226 489 1250 b 333 1149 354 1250 333 1226 b 422 1054 333 1074 350 1054 z "},"À":{"ha":638,"x_min":0,"x_max":0,"o":"m 307 542 l 317 667 l 326 542 l 367 300 l 268 300 z m 415 0 l 643 0 l 429 1000 l 204 1000 l -6 0 l 221 0 l 239 110 l 397 110 z m 249 1057 l 394 1057 l 307 1268 l 99 1268 z "},"Ā":{"ha":638,"x_min":0,"x_max":0,"o":"m 307 542 l 317 667 l 326 542 l 367 300 l 268 300 z m 415 0 l 643 0 l 429 1000 l 204 1000 l -6 0 l 221 0 l 239 110 l 397 110 z m 171 1068 l 464 1068 l 464 1224 l 171 1224 z "},"Ʌ":{"ha":638,"x_min":0,"x_max":0,"o":"m 307 542 l 317 667 l 326 542 l 415 0 l 643 0 l 429 1000 l 204 1000 l -6 0 l 221 0 z "},"Ą":{"ha":638,"x_min":0,"x_max":0,"o":"m 526 -289 b 739 -108 647 -289 721 -232 l 568 -108 b 535 -156 567 -143 553 -156 b 508 -131 518 -156 508 -149 b 644 0 508 -111 517 -92 l 643 1 l 429 1000 l 204 1000 l -6 0 l 221 0 l 239 110 l 397 110 l 415 0 l 424 0 b 349 -143 364 -51 349 -96 b 526 -289 349 -239 408 -289 z m 307 542 l 317 667 l 326 542 l 367 300 l 268 300 z "},"Å":{"ha":638,"x_min":0,"x_max":0,"o":"m 307 542 l 317 667 l 326 542 l 367 300 l 268 300 z m 415 0 l 643 0 l 429 1000 l 204 1000 l -6 0 l 221 0 l 239 110 l 397 110 z m 317 1049 b 485 1197 422 1049 485 1104 b 317 1349 485 1293 417 1349 b 150 1196 222 1349 150 1297 b 317 1049 150 1100 215 1049 z m 318 1168 b 285 1199 293 1168 285 1181 b 318 1231 285 1217 293 1231 b 351 1199 342 1231 351 1217 b 318 1168 351 1181 342 1168 z "},"Ǻ":{"ha":638,"x_min":0,"x_max":0,"o":"m 240 1243 l 399 1243 l 560 1454 l 350 1454 z m 318 1015 b 285 1046 293 1015 285 1028 b 318 1078 285 1064 293 1078 b 351 1046 342 1078 351 1064 b 318 1015 351 1028 342 1015 z m 307 542 l 317 667 l 326 542 l 367 300 l 268 300 z m 239 110 l 397 110 l 415 0 l 643 0 l 443 938 b 485 1044 469 963 485 999 b 317 1196 485 1140 417 1196 b 150 1043 222 1196 150 1144 b 192 938 150 997 165 963 l -6 0 l 221 0 z "},"Ã":{"ha":638,"x_min":0,"x_max":0,"o":"m 307 542 l 317 667 l 326 542 l 367 300 l 268 300 z m 415 0 l 643 0 l 429 1000 l 204 1000 l -6 0 l 221 0 l 239 110 l 397 110 z m 100 1056 l 229 1056 b 253 1110 229 1092 235 1110 b 411 1051 294 1110 339 1051 b 538 1272 503 1051 538 1101 l 407 1272 b 381 1224 407 1238 401 1224 b 226 1278 350 1224 299 1278 b 100 1056 132 1278 100 1222 z "},"Æ":{"ha":885,"x_min":0,"x_max":0,"o":"m 393 297 l 289 297 l 358 558 z m 433 0 l 849 0 l 849 210 l 611 210 l 585 406 l 838 406 l 838 607 l 557 607 l 532 799 l 846 799 l 846 1000 l 271 1000 l -11 0 l 211 0 l 240 110 l 418 110 z "},"Ǽ":{"ha":885,"x_min":0,"x_max":0,"o":"m 393 297 l 289 297 l 358 558 z m 433 0 l 849 0 l 849 210 l 611 210 l 585 406 l 838 406 l 838 607 l 557 607 l 532 799 l 846 799 l 846 1000 l 271 1000 l -11 0 l 211 0 l 240 110 l 418 110 z m 303 1057 l 461 1057 l 622 1268 l 413 1268 z "},"Ć":{"ha":653,"x_min":0,"x_max":0,"o":"m 325 -15 b 622 274 514 -15 618 61 l 622 447 l 379 447 l 379 289 b 326 196 378 224 368 196 b 274 303 282 196 274 224 l 274 704 b 326 813 274 782 283 813 b 379 722 369 813 379 788 l 379 578 l 621 578 l 621 743 b 328 1015 621 932 514 1015 b 36 722 150 1015 36 929 l 36 285 b 325 -15 36 74 129 -15 z m 240 1072 l 399 1072 l 560 1283 l 350 1283 z "},"Č":{"ha":653,"x_min":0,"x_max":0,"o":"m 325 -15 b 622 274 514 -15 618 61 l 622 447 l 379 447 l 379 289 b 326 196 378 224 368 196 b 274 303 282 196 274 224 l 274 704 b 326 813 274 782 283 813 b 379 722 369 813 379 788 l 379 578 l 621 578 l 621 743 b 328 1015 621 932 514 1015 b 36 722 150 1015 36 929 l 36 285 b 325 -15 36 74 129 -15 z m 414 1072 l 539 1311 l 390 1311 l 346 1210 l 306 1311 l 151 1311 l 275 1072 z "},"Ç":{"ha":653,"x_min":0,"x_max":0,"o":"m 325 -335 b 524 -185 449 -335 524 -281 b 392 -58 524 -97 475 -65 l 392 -11 b 622 274 539 6 618 88 l 622 447 l 379 447 l 379 289 b 326 196 378 224 368 196 b 274 303 282 196 274 224 l 274 704 b 326 813 274 782 283 813 b 379 722 369 813 379 788 l 379 578 l 621 578 l 621 743 b 328 1015 621 932 514 1015 b 36 722 150 1015 36 929 l 36 285 b 254 -11 36 101 107 10 l 254 -151 l 329 -151 b 374 -181 358 -151 374 -161 b 329 -212 374 -200 360 -212 b 278 -179 300 -212 286 -206 l 111 -179 b 325 -335 133 -292 203 -335 z "},"Ĉ":{"ha":653,"x_min":0,"x_max":0,"o":"m 325 -15 b 622 274 514 -15 618 61 l 622 447 l 379 447 l 379 289 b 326 196 378 224 368 196 b 274 303 282 196 274 224 l 274 704 b 326 813 274 782 283 813 b 379 722 369 813 379 788 l 379 578 l 621 578 l 621 743 b 328 1015 621 932 514 1015 b 36 722 150 1015 36 929 l 36 285 b 325 -15 36 74 129 -15 z m 378 1072 l 531 1072 l 407 1311 l 268 1311 l 144 1072 l 293 1072 l 336 1174 z "},"Ċ":{"ha":653,"x_min":0,"x_max":0,"o":"m 325 -15 b 622 274 514 -15 618 61 l 622 447 l 379 447 l 379 289 b 326 196 378 224 368 196 b 274 303 282 196 274 224 l 274 704 b 326 813 274 782 283 813 b 379 722 369 813 379 788 l 379 578 l 621 578 l 621 743 b 328 1015 621 932 514 1015 b 36 722 150 1015 36 929 l 36 285 b 325 -15 36 74 129 -15 z m 346 1069 b 458 1183 431 1069 458 1089 b 346 1299 458 1279 429 1299 b 233 1183 261 1299 233 1279 b 346 1069 233 1086 256 1069 z "},"Ď":{"ha":657,"x_min":0,"x_max":0,"o":"m 43 0 l 321 0 b 621 290 494 0 621 79 l 621 711 b 324 1000 621 921 497 1000 l 43 1000 z m 310 806 b 383 694 356 806 383 778 l 383 313 b 310 200 383 231 357 200 l 271 200 l 271 806 z m 386 1057 l 511 1296 l 363 1296 l 318 1194 l 278 1296 l 124 1296 l 247 1057 z "},"Đ":{"ha":674,"x_min":0,"x_max":0,"o":"m 335 0 b 635 290 508 0 635 79 l 635 711 b 338 1000 635 921 511 1000 l 57 1000 l 57 608 l 6 608 l 6 407 l 57 407 l 57 0 z m 332 407 l 332 608 l 285 608 l 285 806 l 324 806 b 397 694 369 806 397 778 l 397 313 b 324 200 397 231 371 200 l 285 200 l 285 407 z "},"Ð":{"ha":674,"x_min":0,"x_max":0,"o":"m 335 0 b 635 290 508 0 635 79 l 635 711 b 338 1000 635 921 511 1000 l 57 1000 l 57 608 l 6 608 l 6 407 l 57 407 l 57 0 z m 332 407 l 332 608 l 285 608 l 285 806 l 324 806 b 397 694 369 806 397 778 l 397 313 b 324 200 397 231 371 200 l 285 200 l 285 407 z "},"É":{"ha":557,"x_min":0,"x_max":0,"o":"m 532 214 l 268 214 l 268 400 l 500 400 l 500 608 l 268 608 l 268 794 l 528 794 l 528 1000 l 43 1000 l 43 0 l 532 0 z m 194 1057 l 353 1057 l 514 1268 l 304 1268 z "},"Ĕ":{"ha":557,"x_min":0,"x_max":0,"o":"m 532 214 l 268 214 l 268 400 l 500 400 l 500 608 l 268 608 l 268 794 l 528 794 l 528 1000 l 43 1000 l 43 0 l 532 0 z m 293 1054 b 482 1263 425 1054 482 1115 l 340 1263 b 293 1190 340 1206 329 1190 b 246 1263 256 1190 246 1204 l 104 1263 b 293 1054 104 1117 154 1054 z "},"Ě":{"ha":557,"x_min":0,"x_max":0,"o":"m 532 214 l 268 214 l 268 400 l 500 400 l 500 608 l 268 608 l 268 794 l 528 794 l 528 1000 l 43 1000 l 43 0 l 532 0 z m 364 1057 l 489 1296 l 340 1296 l 296 1194 l 256 1296 l 101 1296 l 225 1057 z "},"Ê":{"ha":557,"x_min":0,"x_max":0,"o":"m 532 214 l 268 214 l 268 400 l 500 400 l 500 608 l 268 608 l 268 794 l 528 794 l 528 1000 l 43 1000 l 43 0 l 532 0 z m 336 1057 l 489 1057 l 365 1296 l 226 1296 l 103 1057 l 251 1057 l 294 1158 z "},"Ë":{"ha":557,"x_min":0,"x_max":0,"o":"m 532 214 l 268 214 l 268 400 l 500 400 l 500 608 l 268 608 l 268 794 l 528 794 l 528 1000 l 43 1000 l 43 0 l 532 0 z m 186 1054 b 278 1149 256 1054 278 1076 b 186 1250 278 1226 254 1250 b 97 1149 121 1250 97 1226 b 186 1054 97 1074 115 1054 z m 399 1054 b 490 1149 467 1054 490 1076 b 399 1250 490 1226 465 1250 b 310 1149 331 1250 310 1226 b 399 1054 310 1074 326 1054 z "},"Ė":{"ha":557,"x_min":0,"x_max":0,"o":"m 532 214 l 268 214 l 268 400 l 500 400 l 500 608 l 268 608 l 268 794 l 528 794 l 528 1000 l 43 1000 l 43 0 l 532 0 z m 293 1056 b 406 1169 378 1056 406 1075 b 293 1285 406 1265 376 1285 b 181 1169 208 1285 181 1265 b 293 1056 181 1072 203 1056 z "},"È":{"ha":557,"x_min":0,"x_max":0,"o":"m 532 214 l 268 214 l 268 400 l 500 400 l 500 608 l 268 608 l 268 794 l 528 794 l 528 1000 l 43 1000 l 43 0 l 532 0 z m 225 1057 l 371 1057 l 283 1268 l 75 1268 z "},"Ē":{"ha":557,"x_min":0,"x_max":0,"o":"m 532 214 l 268 214 l 268 400 l 500 400 l 500 608 l 268 608 l 268 794 l 528 794 l 528 1000 l 43 1000 l 43 0 l 532 0 z m 147 1068 l 440 1068 l 440 1224 l 147 1224 z "},"Ę":{"ha":557,"x_min":0,"x_max":0,"o":"m 625 -108 l 454 -108 b 421 -156 453 -143 439 -156 b 394 -131 404 -156 394 -149 b 531 0 394 -111 403 -92 l 532 0 l 532 214 l 268 214 l 268 400 l 500 400 l 500 608 l 268 608 l 268 794 l 528 794 l 528 1000 l 43 1000 l 43 0 l 310 0 b 235 -143 250 -51 235 -96 b 413 -289 235 -239 294 -289 b 625 -108 533 -289 607 -232 z "},"Ğ":{"ha":676,"x_min":0,"x_max":0,"o":"m 450 0 l 633 0 l 633 560 l 322 560 l 322 368 l 403 368 l 403 304 b 336 194 403 218 379 194 b 274 303 292 194 274 228 l 274 704 b 335 813 274 783 293 813 b 396 724 375 813 396 794 l 396 626 l 633 626 l 633 739 b 339 1015 633 929 531 1015 b 36 719 157 1015 36 926 l 36 281 b 240 -15 36 72 99 -15 b 426 150 347 -15 408 44 z m 357 1069 b 546 1278 489 1069 546 1131 l 404 1278 b 357 1206 404 1221 393 1206 b 310 1278 319 1206 310 1219 l 168 1278 b 357 1069 168 1132 218 1069 z "},"Ĝ":{"ha":676,"x_min":0,"x_max":0,"o":"m 450 0 l 633 0 l 633 560 l 322 560 l 322 368 l 403 368 l 403 304 b 336 194 403 218 379 194 b 274 303 292 194 274 228 l 274 704 b 335 813 274 783 293 813 b 396 724 375 813 396 794 l 396 626 l 633 626 l 633 739 b 339 1015 633 929 531 1015 b 36 719 157 1015 36 926 l 36 281 b 240 -15 36 72 99 -15 b 426 150 347 -15 408 44 z m 390 1072 l 543 1072 l 419 1311 l 281 1311 l 157 1072 l 306 1072 l 349 1174 z "},"Ģ":{"ha":676,"x_min":0,"x_max":0,"o":"m 450 0 l 633 0 l 633 560 l 322 560 l 322 368 l 403 368 l 403 304 b 336 194 403 218 379 194 b 274 303 292 194 274 228 l 274 704 b 335 813 274 783 293 813 b 396 724 375 813 396 794 l 396 626 l 633 626 l 633 739 b 339 1015 633 929 531 1015 b 36 719 157 1015 36 926 l 36 281 b 240 -15 36 72 99 -15 b 426 150 347 -15 408 44 z m 265 -397 b 443 -190 388 -397 443 -322 b 344 -61 443 -87 421 -61 b 247 -160 271 -61 247 -87 b 329 -254 247 -239 271 -254 l 339 -254 b 265 -307 332 -293 313 -307 z "},"Ġ":{"ha":676,"x_min":0,"x_max":0,"o":"m 450 0 l 633 0 l 633 560 l 322 560 l 322 368 l 403 368 l 403 304 b 336 194 403 218 379 194 b 274 303 292 194 274 228 l 274 704 b 335 813 274 783 293 813 b 396 724 375 813 396 794 l 396 626 l 633 626 l 633 739 b 339 1015 633 929 531 1015 b 36 719 157 1015 36 926 l 36 281 b 240 -15 36 72 99 -15 b 426 150 347 -15 408 44 z m 354 1069 b 467 1183 439 1069 467 1089 b 354 1299 467 1279 438 1299 b 242 1183 269 1299 242 1279 b 354 1069 242 1086 264 1069 z "},"Ħ":{"ha":696,"x_min":0,"x_max":0,"o":"m 411 550 l 290 550 l 290 693 l 411 693 z m 411 0 l 640 0 l 640 693 l 690 693 l 690 869 l 640 869 l 640 1000 l 411 1000 l 411 869 l 290 869 l 290 1000 l 61 1000 l 61 869 l 6 869 l 6 693 l 61 693 l 61 0 l 290 0 l 290 365 l 411 365 z "},"Ĥ":{"ha":656,"x_min":0,"x_max":0,"o":"m 385 0 l 613 0 l 613 1000 l 385 1000 l 385 611 l 271 611 l 271 1000 l 43 1000 l 43 0 l 271 0 l 271 393 l 385 393 z m 374 1057 l 526 1057 l 403 1296 l 264 1296 l 140 1057 l 289 1057 l 332 1158 z "},"Í":{"ha":490,"x_min":0,"x_max":0,"o":"m 461 0 l 461 217 l 357 217 l 357 785 l 461 785 l 461 1000 l 29 1000 l 29 785 l 136 785 l 136 217 l 29 217 l 29 0 z m 160 1057 l 318 1057 l 479 1268 l 269 1268 z "},"Ĭ":{"ha":490,"x_min":0,"x_max":0,"o":"m 461 0 l 461 217 l 357 217 l 357 785 l 461 785 l 461 1000 l 29 1000 l 29 785 l 136 785 l 136 217 l 29 217 l 29 0 z m 244 1054 b 433 1263 376 1054 433 1115 l 292 1263 b 244 1190 292 1206 281 1190 b 197 1263 207 1190 197 1204 l 56 1263 b 244 1054 56 1117 106 1054 z "},"Î":{"ha":490,"x_min":0,"x_max":0,"o":"m 461 0 l 461 217 l 357 217 l 357 785 l 461 785 l 461 1000 l 29 1000 l 29 785 l 136 785 l 136 217 l 29 217 l 29 0 z m 288 1057 l 440 1057 l 317 1296 l 178 1296 l 54 1057 l 203 1057 l 246 1158 z "},"Ï":{"ha":490,"x_min":0,"x_max":0,"o":"m 461 0 l 461 217 l 357 217 l 357 785 l 461 785 l 461 1000 l 29 1000 l 29 785 l 136 785 l 136 217 l 29 217 l 29 0 z m 138 1054 b 229 1149 207 1054 229 1076 b 138 1250 229 1226 206 1250 b 49 1149 72 1250 49 1226 b 138 1054 49 1074 67 1054 z m 350 1054 b 442 1149 418 1054 442 1076 b 350 1250 442 1226 417 1250 b 261 1149 282 1250 261 1226 b 350 1054 261 1074 278 1054 z "},"İ":{"ha":490,"x_min":0,"x_max":0,"o":"m 461 0 l 461 217 l 357 217 l 357 785 l 461 785 l 461 1000 l 29 1000 l 29 785 l 136 785 l 136 217 l 29 217 l 29 0 z m 244 1054 b 357 1168 329 1054 357 1074 b 244 1283 357 1264 328 1283 b 132 1168 160 1283 132 1264 b 244 1054 132 1071 154 1054 z "},"Ì":{"ha":490,"x_min":0,"x_max":0,"o":"m 461 0 l 461 217 l 357 217 l 357 785 l 461 785 l 461 1000 l 29 1000 l 29 785 l 136 785 l 136 217 l 29 217 l 29 0 z m 176 1057 l 322 1057 l 235 1268 l 26 1268 z "},"Ī":{"ha":490,"x_min":0,"x_max":0,"o":"m 461 0 l 461 217 l 357 217 l 357 785 l 461 785 l 461 1000 l 29 1000 l 29 785 l 136 785 l 136 217 l 29 217 l 29 0 z m 99 1068 l 392 1068 l 392 1224 l 99 1224 z "},"Į":{"ha":490,"x_min":0,"x_max":0,"o":"m 556 -108 l 385 -108 b 351 -156 383 -143 369 -156 b 325 -131 335 -156 325 -149 b 461 0 325 -111 333 -92 l 461 217 l 357 217 l 357 785 l 461 785 l 461 1000 l 29 1000 l 29 785 l 136 785 l 136 217 l 29 217 l 29 0 l 240 0 b 165 -143 181 -51 165 -96 b 343 -289 165 -239 225 -289 b 556 -108 464 -289 538 -232 z "},"Ĩ":{"ha":490,"x_min":0,"x_max":0,"o":"m 461 0 l 461 217 l 357 217 l 357 785 l 461 785 l 461 1000 l 29 1000 l 29 785 l 136 785 l 136 217 l 29 217 l 29 0 z m 28 1056 l 157 1056 b 181 1110 157 1092 163 1110 b 339 1051 222 1110 267 1051 b 465 1272 431 1051 465 1101 l 335 1272 b 308 1224 335 1238 329 1224 b 154 1278 278 1224 226 1278 b 28 1056 60 1278 28 1222 z "},"Ĵ":{"ha":624,"x_min":0,"x_max":0,"o":"m 301 -15 b 581 285 492 -15 581 69 l 581 1000 l 344 1000 l 344 283 b 301 194 344 211 336 194 b 258 260 267 194 258 214 l 258 422 l 21 422 l 21 268 b 301 -15 21 56 113 -15 z m 501 1057 l 654 1057 l 531 1296 l 392 1296 l 268 1057 l 417 1057 l 460 1158 z "},"Ķ":{"ha":671,"x_min":0,"x_max":0,"o":"m 306 407 l 415 0 l 667 0 l 485 582 l 469 624 l 656 1000 l 401 1000 l 278 703 l 261 651 l 265 729 l 265 1000 l 43 1000 l 43 0 l 265 0 l 265 392 l 296 463 z m 261 -386 b 439 -179 383 -386 439 -311 b 340 -50 439 -76 417 -50 b 243 -149 267 -50 243 -76 b 325 -243 243 -228 267 -243 l 335 -243 b 261 -296 328 -282 308 -296 z "},"Ĺ":{"ha":543,"x_min":0,"x_max":0,"o":"m 514 0 l 514 232 l 279 232 l 279 1000 l 43 1000 l 43 0 z m 74 1057 l 232 1057 l 393 1268 l 183 1268 z "},"Ľ":{"ha":543,"x_min":0,"x_max":0,"o":"m 514 0 l 514 232 l 279 232 l 279 1000 l 43 1000 l 43 0 z m 343 893 l 475 893 l 596 1104 l 413 1104 z "},"Ļ":{"ha":543,"x_min":0,"x_max":0,"o":"m 514 0 l 514 232 l 279 232 l 279 1000 l 43 1000 l 43 0 z m 201 -386 b 379 -179 324 -386 379 -311 b 281 -50 379 -76 357 -50 b 183 -149 207 -50 183 -76 b 265 -243 183 -228 207 -243 l 275 -243 b 201 -296 268 -282 249 -296 z "},"Ŀ":{"ha":599,"x_min":0,"x_max":0,"o":"m 569 0 l 569 232 l 279 232 l 279 1000 l 43 1000 l 43 0 z m 464 376 b 576 490 549 376 576 396 b 464 606 576 586 547 606 b 351 490 379 606 351 586 b 464 376 351 393 374 376 z "},"Ł":{"ha":557,"x_min":0,"x_max":0,"o":"m 528 0 l 528 232 l 293 232 l 293 467 l 403 485 l 376 656 l 293 642 l 293 1000 l 57 1000 l 57 601 l -22 588 l 4 417 l 57 425 l 57 0 z "},"Ń":{"ha":683,"x_min":0,"x_max":0,"o":"m 249 447 l 243 546 l 260 489 l 440 0 l 640 0 l 640 1000 l 435 1000 l 435 546 l 439 456 l 424 511 l 247 1000 l 43 1000 l 43 0 l 249 0 z m 253 1051 l 411 1051 l 572 1263 l 363 1263 z "},"Ň":{"ha":683,"x_min":0,"x_max":0,"o":"m 249 447 l 243 546 l 260 489 l 440 0 l 640 0 l 640 1000 l 435 1000 l 435 546 l 439 456 l 424 511 l 247 1000 l 43 1000 l 43 0 l 249 0 z m 407 1051 l 532 1290 l 383 1290 l 339 1189 l 299 1290 l 144 1290 l 268 1051 z "},"Ņ":{"ha":683,"x_min":0,"x_max":0,"o":"m 249 447 l 243 546 l 260 489 l 440 0 l 640 0 l 640 1000 l 435 1000 l 435 546 l 439 456 l 424 511 l 247 1000 l 43 1000 l 43 0 l 249 0 z m 267 -382 b 444 -175 389 -382 444 -307 b 346 -46 444 -72 422 -46 b 249 -144 272 -46 249 -72 b 331 -239 249 -224 272 -239 l 340 -239 b 267 -292 333 -278 314 -292 z "},"Ñ":{"ha":683,"x_min":0,"x_max":0,"o":"m 249 447 l 243 546 l 260 489 l 440 0 l 640 0 l 640 1000 l 435 1000 l 435 546 l 439 456 l 424 511 l 247 1000 l 43 1000 l 43 0 l 249 0 z m 138 1051 l 267 1051 b 290 1106 267 1088 272 1106 b 449 1047 332 1106 376 1047 b 575 1268 540 1047 575 1097 l 444 1268 b 418 1219 444 1233 439 1219 b 264 1274 388 1219 336 1274 b 138 1051 169 1274 138 1218 z "},"Ŋ":{"ha":683,"x_min":0,"x_max":0,"o":"m 415 -275 b 640 -49 608 -275 640 -237 l 640 1000 l 433 1000 l 433 579 l 439 454 l 424 511 l 247 1000 l 43 1000 l 43 0 l 249 0 l 249 447 l 243 546 l 260 489 l 435 15 l 435 -24 b 389 -74 435 -67 429 -74 l 328 -74 l 328 -275 z "},"Ó":{"ha":664,"x_min":0,"x_max":0,"o":"m 332 -15 b 628 283 506 -15 628 74 l 628 717 b 332 1015 628 921 506 1015 b 36 717 154 1015 36 921 l 36 283 b 332 -15 36 74 151 -15 z m 332 194 b 274 301 288 194 274 224 l 274 706 b 332 814 274 783 288 814 b 390 706 376 814 390 785 l 390 301 b 332 194 390 222 376 194 z m 257 1072 l 415 1072 l 576 1283 l 367 1283 z "},"Ŏ":{"ha":664,"x_min":0,"x_max":0,"o":"m 332 -15 b 628 283 506 -15 628 74 l 628 717 b 332 1015 628 921 506 1015 b 36 717 154 1015 36 921 l 36 283 b 332 -15 36 74 151 -15 z m 332 194 b 274 301 288 194 274 224 l 274 706 b 332 814 274 783 288 814 b 390 706 376 814 390 785 l 390 301 b 332 194 390 222 376 194 z m 342 1069 b 531 1278 474 1069 531 1131 l 389 1278 b 342 1206 389 1221 378 1206 b 294 1278 304 1206 294 1219 l 153 1278 b 342 1069 153 1132 203 1069 z "},"Ô":{"ha":664,"x_min":0,"x_max":0,"o":"m 332 -15 b 628 283 506 -15 628 74 l 628 717 b 332 1015 628 921 506 1015 b 36 717 154 1015 36 921 l 36 283 b 332 -15 36 74 151 -15 z m 332 194 b 274 301 288 194 274 224 l 274 706 b 332 814 274 783 288 814 b 390 706 376 814 390 785 l 390 301 b 332 194 390 222 376 194 z m 379 1072 l 532 1072 l 408 1311 l 269 1311 l 146 1072 l 294 1072 l 338 1174 z "},"Ö":{"ha":664,"x_min":0,"x_max":0,"o":"m 332 -15 b 628 283 506 -15 628 74 l 628 717 b 332 1015 628 921 506 1015 b 36 717 154 1015 36 921 l 36 283 b 332 -15 36 74 151 -15 z m 332 194 b 274 301 288 194 274 224 l 274 706 b 332 814 274 783 288 814 b 390 706 376 814 390 785 l 390 301 b 332 194 390 222 376 194 z m 229 1056 b 321 1150 299 1056 321 1078 b 229 1251 321 1228 297 1251 b 140 1150 164 1251 140 1228 b 229 1056 140 1075 158 1056 z m 442 1056 b 533 1150 510 1056 533 1078 b 442 1251 533 1228 508 1251 b 353 1150 374 1251 353 1228 b 442 1056 353 1075 369 1056 z "},"Ò":{"ha":664,"x_min":0,"x_max":0,"o":"m 332 -15 b 628 283 506 -15 628 74 l 628 717 b 332 1015 628 921 506 1015 b 36 717 154 1015 36 921 l 36 283 b 332 -15 36 74 151 -15 z m 332 194 b 274 301 288 194 274 224 l 274 706 b 332 814 274 783 288 814 b 390 706 376 814 390 785 l 390 301 b 332 194 390 222 376 194 z m 268 1072 l 414 1072 l 326 1283 l 118 1283 z "},"Ő":{"ha":664,"x_min":0,"x_max":0,"o":"m 332 -15 b 628 283 506 -15 628 74 l 628 717 b 332 1015 628 921 506 1015 b 36 717 154 1015 36 921 l 36 283 b 332 -15 36 74 151 -15 z m 332 194 b 274 301 288 194 274 224 l 274 706 b 332 814 274 783 288 814 b 390 706 376 814 390 785 l 390 301 b 332 194 390 222 376 194 z m 606 1283 l 436 1283 l 363 1072 l 481 1072 z m 403 1283 l 239 1283 l 183 1072 l 299 1072 z "},"Ō":{"ha":664,"x_min":0,"x_max":0,"o":"m 332 -15 b 628 283 506 -15 628 74 l 628 717 b 332 1015 628 921 506 1015 b 36 717 154 1015 36 921 l 36 283 b 332 -15 36 74 151 -15 z m 332 194 b 274 301 288 194 274 224 l 274 706 b 332 814 274 783 288 814 b 390 706 376 814 390 785 l 390 301 b 332 194 390 222 376 194 z m 186 1083 l 479 1083 l 479 1239 l 186 1239 z "},"Ø":{"ha":674,"x_min":0,"x_max":0,"o":"m 307 -146 l 339 -18 b 640 289 518 -18 640 82 l 640 713 b 528 967 640 833 599 918 l 571 1122 l 378 1122 l 351 1018 l 339 1018 b 35 714 153 1018 35 918 l 35 290 b 157 25 35 161 78 74 l 108 -146 z m 338 188 b 264 304 285 188 264 224 l 264 704 b 338 818 264 785 288 818 b 410 704 390 818 410 786 l 410 304 b 338 188 410 221 388 188 z "},"Ǿ":{"ha":674,"x_min":0,"x_max":0,"o":"m 307 -146 l 339 -18 b 640 289 518 -18 640 82 l 640 713 b 528 967 640 833 599 918 l 571 1122 l 378 1122 l 351 1018 l 339 1018 b 35 714 153 1018 35 918 l 35 290 b 157 25 35 161 78 74 l 108 -146 z m 338 188 b 264 304 285 188 264 224 l 264 704 b 338 818 264 785 288 818 b 410 704 390 818 410 786 l 410 304 b 338 188 410 221 388 188 z m 226 1149 l 385 1149 l 546 1360 l 336 1360 z "},"Õ":{"ha":664,"x_min":0,"x_max":0,"o":"m 332 -15 b 628 283 506 -15 628 74 l 628 717 b 332 1015 628 921 506 1015 b 36 717 154 1015 36 921 l 36 283 b 332 -15 36 74 151 -15 z m 332 194 b 274 301 288 194 274 224 l 274 706 b 332 814 274 783 288 814 b 390 706 376 814 390 785 l 390 301 b 332 194 390 222 376 194 z m 118 1071 l 247 1071 b 271 1125 247 1107 253 1125 b 429 1067 313 1125 357 1067 b 556 1288 521 1067 556 1117 l 425 1288 b 399 1239 425 1253 419 1239 b 244 1293 368 1239 317 1293 b 118 1071 150 1293 118 1238 z "},"Œ":{"ha":889,"x_min":0,"x_max":0,"o":"m 326 194 b 268 306 282 194 268 228 l 268 703 b 326 813 268 779 282 813 b 385 703 371 813 385 782 l 385 306 b 326 194 385 226 371 194 z m 381 0 l 853 0 l 853 210 l 604 210 l 604 406 l 842 406 l 842 607 l 604 607 l 604 799 l 850 799 l 850 1000 l 381 1000 l 381 961 b 256 1015 358 997 319 1015 b 32 714 107 1015 32 921 l 32 289 b 261 -14 32 79 90 -14 b 381 42 322 -14 358 4 z "},"Ŕ":{"ha":624,"x_min":0,"x_max":0,"o":"m 311 810 b 372 746 357 810 372 792 l 372 618 b 311 561 372 578 357 561 l 260 561 l 260 810 z m 293 360 b 360 290 344 360 360 344 l 360 71 b 379 0 360 35 365 8 l 611 0 b 586 71 594 15 586 39 l 586 304 b 504 465 586 393 568 440 b 593 626 563 489 593 538 l 593 754 b 326 1000 593 936 513 1000 l 43 1000 l 43 0 l 260 0 l 260 360 z m 231 1057 l 389 1057 l 550 1268 l 340 1268 z "},"Ř":{"ha":624,"x_min":0,"x_max":0,"o":"m 311 810 b 372 746 357 810 372 792 l 372 618 b 311 561 372 578 357 561 l 260 561 l 260 810 z m 293 360 b 360 290 344 360 360 344 l 360 71 b 379 0 360 35 365 8 l 611 0 b 586 71 594 15 586 39 l 586 304 b 504 465 586 393 568 440 b 593 626 563 489 593 538 l 593 754 b 326 1000 593 936 513 1000 l 43 1000 l 43 0 l 260 0 l 260 360 z m 385 1057 l 510 1296 l 361 1296 l 317 1194 l 276 1296 l 122 1296 l 246 1057 z "},"Ŗ":{"ha":624,"x_min":0,"x_max":0,"o":"m 311 810 b 372 746 357 810 372 792 l 372 618 b 311 561 372 578 357 561 l 260 561 l 260 810 z m 293 360 b 360 290 344 360 360 344 l 360 71 b 379 0 360 35 365 8 l 611 0 b 586 71 594 15 586 39 l 586 304 b 504 465 586 393 568 440 b 593 626 563 489 593 538 l 593 754 b 326 1000 593 936 513 1000 l 43 1000 l 43 0 l 260 0 l 260 360 z m 246 -386 b 424 -179 368 -386 424 -311 b 325 -50 424 -76 401 -50 b 228 -149 251 -50 228 -76 b 310 -243 228 -228 251 -243 l 319 -243 b 246 -296 313 -282 293 -296 z "},"Ś":{"ha":600,"x_min":0,"x_max":0,"o":"m 296 -17 b 579 239 489 -17 579 69 l 579 342 b 385 610 579 494 475 560 b 251 733 314 649 251 678 l 251 767 b 299 831 251 811 264 831 b 346 767 335 831 346 814 l 346 674 l 568 674 l 568 782 b 300 1017 568 936 475 1017 b 22 765 119 1017 22 938 l 22 714 b 210 451 22 567 121 503 b 349 310 282 410 349 375 l 349 247 b 301 185 349 208 340 185 b 249 247 258 185 249 208 l 249 385 l 14 385 l 14 243 b 296 -17 14 71 89 -17 z m 214 1075 l 372 1075 l 533 1286 l 324 1286 z "},"Š":{"ha":600,"x_min":0,"x_max":0,"o":"m 296 -17 b 579 239 489 -17 579 69 l 579 342 b 385 610 579 494 475 560 b 251 733 314 649 251 678 l 251 767 b 299 831 251 811 264 831 b 346 767 335 831 346 814 l 346 674 l 568 674 l 568 782 b 300 1017 568 936 475 1017 b 22 765 119 1017 22 938 l 22 714 b 210 451 22 567 121 503 b 349 310 282 410 349 375 l 349 247 b 301 185 349 208 340 185 b 249 247 258 185 249 208 l 249 385 l 14 385 l 14 243 b 296 -17 14 71 89 -17 z m 368 1075 l 493 1314 l 344 1314 l 300 1213 l 260 1314 l 106 1314 l 229 1075 z "},"Ş":{"ha":600,"x_min":0,"x_max":0,"o":"m 296 -336 b 494 -186 419 -336 494 -282 b 363 -60 494 -99 446 -67 l 363 -12 b 579 239 510 6 579 90 l 579 342 b 385 610 579 494 475 560 b 251 733 314 649 251 678 l 251 767 b 299 831 251 811 264 831 b 346 767 335 831 346 814 l 346 674 l 568 674 l 568 782 b 300 1017 568 936 475 1017 b 22 765 119 1017 22 938 l 22 714 b 210 451 22 567 121 503 b 349 310 282 410 349 375 l 349 247 b 301 185 349 208 340 185 b 249 247 258 185 249 208 l 249 385 l 14 385 l 14 243 b 225 -12 14 92 71 7 l 225 -153 l 300 -153 b 344 -182 329 -153 344 -162 b 300 -214 344 -201 331 -214 b 249 -181 271 -214 257 -207 l 82 -181 b 296 -336 104 -293 174 -336 z "},"Ŝ":{"ha":600,"x_min":0,"x_max":0,"o":"m 296 -17 b 579 239 489 -17 579 69 l 579 342 b 385 610 579 494 475 560 b 251 733 314 649 251 678 l 251 767 b 299 831 251 811 264 831 b 346 767 335 831 346 814 l 346 674 l 568 674 l 568 782 b 300 1017 568 936 475 1017 b 22 765 119 1017 22 938 l 22 714 b 210 451 22 567 121 503 b 349 310 282 410 349 375 l 349 247 b 301 185 349 208 340 185 b 249 247 258 185 249 208 l 249 385 l 14 385 l 14 243 b 296 -17 14 71 89 -17 z m 342 1071 l 494 1071 l 371 1310 l 232 1310 l 108 1071 l 257 1071 l 300 1172 z "},"Ș":{"ha":600,"x_min":0,"x_max":0,"o":"m 296 -17 b 579 239 489 -17 579 69 l 579 342 b 385 610 579 494 475 560 b 251 733 314 649 251 678 l 251 767 b 299 831 251 811 264 831 b 346 767 335 831 346 814 l 346 674 l 568 674 l 568 782 b 300 1017 568 936 475 1017 b 22 765 119 1017 22 938 l 22 714 b 210 451 22 567 121 503 b 349 310 282 410 349 375 l 349 247 b 301 185 349 208 340 185 b 249 247 258 185 249 208 l 249 385 l 14 385 l 14 243 b 296 -17 14 71 89 -17 z m 217 -410 b 394 -203 339 -410 394 -335 b 296 -74 394 -100 372 -74 b 199 -172 222 -74 199 -100 b 281 -267 199 -251 222 -267 l 290 -267 b 217 -319 283 -306 264 -319 z "},"Ŧ":{"ha":578,"x_min":0,"x_max":0,"o":"m 488 368 l 488 553 l 403 553 l 403 793 l 553 793 l 553 1000 l 25 1000 l 25 793 l 175 793 l 175 553 l 88 553 l 88 368 l 175 368 l 175 0 l 403 0 l 403 368 z "},"Ť":{"ha":578,"x_min":0,"x_max":0,"o":"m 553 793 l 553 1000 l 25 1000 l 25 793 l 175 793 l 175 0 l 403 0 l 403 793 z m 356 1057 l 481 1296 l 332 1296 l 288 1194 l 247 1296 l 93 1296 l 217 1057 z "},"Ţ":{"ha":578,"x_min":0,"x_max":0,"o":"m 553 793 l 553 1000 l 25 1000 l 25 793 l 175 793 l 175 0 l 403 0 l 403 793 z m 210 -400 b 388 -193 332 -400 388 -325 b 289 -64 388 -90 365 -64 b 192 -162 215 -64 192 -90 b 274 -257 192 -242 215 -257 l 283 -257 b 210 -310 276 -296 257 -310 z "},"Ú":{"ha":643,"x_min":0,"x_max":0,"o":"m 322 -15 b 604 283 499 -15 604 74 l 604 1000 l 376 1000 l 376 297 b 322 206 376 225 364 206 b 267 297 281 206 267 226 l 267 1000 l 39 1000 l 39 283 b 322 -15 39 74 139 -15 z m 236 1057 l 394 1057 l 556 1268 l 346 1268 z "},"Ŭ":{"ha":643,"x_min":0,"x_max":0,"o":"m 322 -15 b 604 283 499 -15 604 74 l 604 1000 l 376 1000 l 376 297 b 322 206 376 225 364 206 b 267 297 281 206 267 226 l 267 1000 l 39 1000 l 39 283 b 322 -15 39 74 139 -15 z m 321 1054 b 510 1263 453 1054 510 1115 l 368 1263 b 321 1190 368 1206 357 1190 b 274 1263 283 1190 274 1204 l 132 1263 b 321 1054 132 1117 182 1054 z "},"Û":{"ha":643,"x_min":0,"x_max":0,"o":"m 322 -15 b 604 283 499 -15 604 74 l 604 1000 l 376 1000 l 376 297 b 322 206 376 225 364 206 b 267 297 281 206 267 226 l 267 1000 l 39 1000 l 39 283 b 322 -15 39 74 139 -15 z m 364 1057 l 517 1057 l 393 1296 l 254 1296 l 131 1057 l 279 1057 l 322 1158 z "},"Ü":{"ha":643,"x_min":0,"x_max":0,"o":"m 322 -15 b 604 283 499 -15 604 74 l 604 1000 l 376 1000 l 376 297 b 322 206 376 225 364 206 b 267 297 281 206 267 226 l 267 1000 l 39 1000 l 39 283 b 322 -15 39 74 139 -15 z m 214 1054 b 306 1149 283 1054 306 1076 b 214 1250 306 1226 282 1250 b 125 1149 149 1250 125 1226 b 214 1054 125 1074 143 1054 z m 426 1054 b 518 1149 494 1054 518 1076 b 426 1250 518 1226 493 1250 b 338 1149 358 1250 338 1226 b 426 1054 338 1074 354 1054 z "},"Ù":{"ha":643,"x_min":0,"x_max":0,"o":"m 322 -15 b 604 283 499 -15 604 74 l 604 1000 l 376 1000 l 376 297 b 322 206 376 225 364 206 b 267 297 281 206 267 226 l 267 1000 l 39 1000 l 39 283 b 322 -15 39 74 139 -15 z m 253 1057 l 399 1057 l 311 1268 l 103 1268 z "},"Ű":{"ha":643,"x_min":0,"x_max":0,"o":"m 322 -15 b 604 283 499 -15 604 74 l 604 1000 l 376 1000 l 376 297 b 322 206 376 225 364 206 b 267 297 281 206 267 226 l 267 1000 l 39 1000 l 39 283 b 322 -15 39 74 139 -15 z m 586 1268 l 417 1268 l 343 1057 l 461 1057 z m 383 1268 l 219 1268 l 164 1057 l 279 1057 z "},"Ū":{"ha":643,"x_min":0,"x_max":0,"o":"m 322 -15 b 604 283 499 -15 604 74 l 604 1000 l 376 1000 l 376 297 b 322 206 376 225 364 206 b 267 297 281 206 267 226 l 267 1000 l 39 1000 l 39 283 b 322 -15 39 74 139 -15 z m 175 1068 l 468 1068 l 468 1224 l 175 1224 z "},"Ų":{"ha":643,"x_min":0,"x_max":0,"o":"m 353 -272 b 565 -92 474 -272 547 -215 l 394 -92 b 361 -139 393 -126 379 -139 b 335 -114 344 -139 335 -132 b 461 10 335 -94 343 -76 b 604 283 553 49 604 136 l 604 1000 l 376 1000 l 376 297 b 322 206 376 225 364 206 b 267 297 281 206 267 226 l 267 1000 l 39 1000 l 39 283 b 226 -6 39 114 104 22 b 175 -126 186 -49 175 -86 b 353 -272 175 -222 235 -272 z "},"Ů":{"ha":643,"x_min":0,"x_max":0,"o":"m 322 -15 b 604 283 499 -15 604 74 l 604 1000 l 376 1000 l 376 297 b 322 206 376 225 364 206 b 267 297 281 206 267 226 l 267 1000 l 39 1000 l 39 283 b 322 -15 39 74 139 -15 z m 321 1053 b 489 1201 426 1053 489 1108 b 321 1353 489 1297 421 1353 b 154 1200 226 1353 154 1301 b 321 1053 154 1104 219 1053 z m 322 1172 b 289 1203 297 1172 289 1185 b 322 1235 289 1221 297 1235 b 356 1203 346 1235 356 1221 b 322 1172 356 1185 346 1172 z "},"Ũ":{"ha":643,"x_min":0,"x_max":0,"o":"m 322 -15 b 604 283 499 -15 604 74 l 604 1000 l 376 1000 l 376 297 b 322 206 376 225 364 206 b 267 297 281 206 267 226 l 267 1000 l 39 1000 l 39 283 b 322 -15 39 74 139 -15 z m 104 1056 l 233 1056 b 257 1110 233 1092 239 1110 b 415 1051 299 1110 343 1051 b 542 1272 507 1051 542 1101 l 411 1272 b 385 1224 411 1238 406 1224 b 231 1278 354 1224 303 1278 b 104 1056 136 1278 104 1222 z "},"Ẃ":{"ha":926,"x_min":0,"x_max":0,"o":"m 449 429 l 458 564 l 467 429 l 540 0 l 751 0 l 922 1000 l 704 1000 l 640 535 l 629 368 l 613 533 l 536 1000 l 388 1000 l 306 533 l 286 376 l 279 535 l 221 1000 l 4 1000 l 160 0 l 372 0 z m 374 1057 l 532 1057 l 693 1268 l 483 1268 z "},"Ŵ":{"ha":926,"x_min":0,"x_max":0,"o":"m 449 429 l 458 564 l 467 429 l 540 0 l 751 0 l 922 1000 l 704 1000 l 640 535 l 629 368 l 613 533 l 536 1000 l 388 1000 l 306 533 l 286 376 l 279 535 l 221 1000 l 4 1000 l 160 0 l 372 0 z m 501 1057 l 654 1057 l 531 1296 l 392 1296 l 268 1057 l 417 1057 l 460 1158 z "},"Ẅ":{"ha":926,"x_min":0,"x_max":0,"o":"m 449 429 l 458 564 l 467 429 l 540 0 l 751 0 l 922 1000 l 704 1000 l 640 535 l 629 368 l 613 533 l 536 1000 l 388 1000 l 306 533 l 286 376 l 279 535 l 221 1000 l 4 1000 l 160 0 l 372 0 z m 351 1054 b 443 1149 421 1054 443 1076 b 351 1250 443 1226 419 1250 b 263 1149 286 1250 263 1226 b 351 1054 263 1074 281 1054 z m 564 1054 b 656 1149 632 1054 656 1076 b 564 1250 656 1226 631 1250 b 475 1149 496 1250 475 1226 b 564 1054 475 1074 492 1054 z "},"Ẁ":{"ha":926,"x_min":0,"x_max":0,"o":"m 449 429 l 458 564 l 467 429 l 540 0 l 751 0 l 922 1000 l 704 1000 l 640 535 l 629 368 l 613 533 l 536 1000 l 388 1000 l 306 533 l 286 376 l 279 535 l 221 1000 l 4 1000 l 160 0 l 372 0 z m 390 1057 l 536 1057 l 449 1268 l 240 1268 z "},"Ý":{"ha":604,"x_min":0,"x_max":0,"o":"m 418 0 l 418 361 l 611 1000 l 379 1000 l 306 700 l 301 644 l 297 700 l 226 1000 l -7 1000 l 182 357 l 182 0 z m 214 1054 l 372 1054 l 533 1265 l 324 1265 z "},"Ŷ":{"ha":604,"x_min":0,"x_max":0,"o":"m 418 0 l 418 361 l 611 1000 l 379 1000 l 306 700 l 301 644 l 297 700 l 226 1000 l -7 1000 l 182 357 l 182 0 z m 342 1054 l 494 1054 l 371 1293 l 232 1293 l 108 1054 l 257 1054 l 300 1156 z "},"Ÿ":{"ha":604,"x_min":0,"x_max":0,"o":"m 418 0 l 418 361 l 611 1000 l 379 1000 l 306 700 l 301 644 l 297 700 l 226 1000 l -7 1000 l 182 357 l 182 0 z m 192 1051 b 283 1146 261 1051 283 1074 b 192 1247 283 1224 260 1247 b 103 1146 126 1247 103 1224 b 192 1051 103 1071 121 1051 z m 404 1051 b 496 1146 472 1051 496 1074 b 404 1247 496 1224 471 1247 b 315 1146 336 1247 315 1224 b 404 1051 315 1071 332 1051 z "},"Ỳ":{"ha":604,"x_min":0,"x_max":0,"o":"m 418 0 l 418 361 l 611 1000 l 379 1000 l 306 700 l 301 644 l 297 700 l 226 1000 l -7 1000 l 182 357 l 182 0 z m 231 1054 l 376 1054 l 289 1265 l 81 1265 z "},"Ĳ":{"ha":844,"x_min":0,"x_max":0,"o":"m 504 0 l 576 0 b 801 269 767 0 801 29 l 801 1003 l 565 1003 l 565 274 b 526 215 565 224 561 215 l 504 215 z m 456 0 l 456 217 l 357 217 l 357 785 l 461 785 l 461 1000 l 29 1000 l 29 785 l 136 785 l 136 217 l 29 217 l 29 0 z "},"Ź":{"ha":586,"x_min":0,"x_max":0,"o":"m 553 0 l 553 219 l 290 219 l 547 807 l 547 1000 l 44 1000 l 44 781 l 297 781 l 35 188 l 35 0 z m 213 1057 l 371 1057 l 532 1268 l 322 1268 z "},"Ž":{"ha":586,"x_min":0,"x_max":0,"o":"m 553 0 l 553 219 l 290 219 l 547 807 l 547 1000 l 44 1000 l 44 781 l 297 781 l 35 188 l 35 0 z m 367 1057 l 492 1296 l 343 1296 l 299 1194 l 258 1296 l 104 1296 l 228 1057 z "},"Ż":{"ha":586,"x_min":0,"x_max":0,"o":"m 553 0 l 553 219 l 290 219 l 547 807 l 547 1000 l 44 1000 l 44 781 l 297 781 l 35 188 l 35 0 z m 297 1054 b 410 1168 382 1054 410 1074 b 297 1283 410 1264 381 1283 b 185 1168 213 1283 185 1264 b 297 1054 185 1071 207 1054 z "},"Þ":{"ha":639,"x_min":0,"x_max":0,"o":"m 332 158 b 614 406 529 158 614 247 l 614 604 b 332 843 614 757 528 843 l 269 843 l 269 1000 l 46 1000 l 46 0 l 269 0 l 269 158 z m 319 651 b 385 600 360 651 385 642 l 385 408 b 319 356 385 365 360 356 l 269 356 l 269 651 z "},"a":{"ha":615,"x_min":0,"x_max":0,"o":"m 303 157 b 257 208 272 157 257 175 l 257 263 b 276 342 257 306 261 325 b 331 371 286 353 306 361 b 356 386 343 375 350 381 l 356 231 b 303 157 356 183 339 157 z m 399 0 l 576 0 l 576 576 b 307 824 576 747 496 824 b 44 586 124 824 44 728 l 44 506 l 263 506 l 263 586 b 311 649 263 629 276 649 b 356 590 343 649 356 632 l 356 564 b 263 476 356 511 332 500 b 86 397 182 449 132 436 b 25 249 46 364 25 317 l 25 185 b 207 -15 25 61 68 -15 b 369 86 289 -15 343 19 z "},"b":{"ha":622,"x_min":0,"x_max":0,"o":"m 397 -11 b 586 303 533 -11 586 83 l 586 531 b 400 822 586 746 519 822 b 264 715 328 822 285 785 l 264 1058 l 40 1058 l 40 0 l 232 0 l 253 106 b 397 -11 269 35 308 -11 z m 317 178 b 263 276 283 178 263 201 l 263 521 b 313 631 263 586 274 631 b 364 532 353 631 364 607 l 364 288 b 317 178 364 200 351 178 z "},"c":{"ha":615,"x_min":0,"x_max":0,"o":"m 306 -15 b 582 257 497 -15 582 72 l 582 378 l 354 378 l 354 264 b 308 182 354 204 346 182 b 258 268 271 182 258 203 l 258 539 b 310 632 258 613 271 632 b 354 538 347 632 354 611 l 354 451 l 582 451 l 582 542 b 318 824 582 724 497 824 b 36 542 139 824 36 732 l 36 263 b 306 -15 36 71 125 -15 z "},"d":{"ha":622,"x_min":0,"x_max":0,"o":"m 306 178 b 258 288 271 178 258 200 l 258 532 b 310 631 258 607 269 631 b 360 521 349 631 360 586 l 360 276 b 306 178 360 201 339 178 z m 390 0 l 582 0 l 582 1058 l 358 1058 l 358 726 b 226 822 339 790 299 822 b 36 531 113 822 36 746 l 36 303 b 225 -11 36 83 89 -11 b 369 106 314 -11 353 35 z "},"e":{"ha":617,"x_min":0,"x_max":0,"o":"m 314 -15 b 588 264 539 -12 588 104 l 588 292 l 365 292 l 365 269 b 315 175 365 204 356 175 b 258 265 275 175 258 194 l 258 349 l 588 349 l 588 544 b 311 824 588 722 503 824 b 39 543 146 824 39 725 l 39 269 b 314 -15 39 78 122 -18 z m 258 538 b 317 638 258 607 272 638 b 372 542 360 638 372 608 l 372 483 l 258 483 z "},"f":{"ha":432,"x_min":0,"x_max":0,"o":"m 418 614 l 418 813 l 317 813 l 317 851 b 365 911 317 893 328 911 l 418 911 l 418 1106 l 329 1106 b 96 875 163 1106 96 1038 l 96 813 l 13 813 l 13 614 l 96 614 l 96 0 l 317 0 l 317 614 z "},"g":{"ha":626,"x_min":0,"x_max":0,"o":"m 303 -272 b 628 -39 526 -272 628 -169 l 628 -36 b 369 165 628 100 539 165 l 276 165 b 204 188 217 165 204 172 b 274 214 204 203 217 214 l 315 214 b 585 449 501 214 585 286 l 585 596 b 418 793 585 710 531 778 b 601 956 557 794 601 833 l 601 960 l 374 960 l 374 911 b 283 821 374 843 356 831 l 264 818 b 43 590 128 799 43 740 l 43 454 b 154 269 43 353 78 294 b 26 129 69 249 26 204 b 140 -4 26 56 64 13 b 18 -129 57 -25 18 -72 b 299 -272 18 -214 92 -272 z m 317 374 b 267 432 288 374 267 390 l 267 608 b 317 668 267 650 286 668 b 367 608 349 668 367 647 l 367 432 b 317 374 367 393 343 374 z m 306 -103 b 219 -64 244 -103 219 -83 l 219 -58 b 296 -12 219 -35 257 -12 l 349 -12 b 417 -47 396 -12 417 -26 l 417 -53 b 324 -103 417 -78 381 -103 z "},"h":{"ha":625,"x_min":0,"x_max":0,"o":"m 267 542 b 315 625 267 596 278 625 b 358 547 351 625 358 597 l 358 0 l 586 0 l 586 588 b 414 822 586 747 528 822 b 267 710 329 822 285 783 l 267 1058 l 40 1058 l 40 0 l 267 0 z "},"i":{"ha":314,"x_min":0,"x_max":0,"o":"m 157 835 b 282 947 246 835 282 860 b 157 1060 282 1036 247 1060 b 32 947 65 1060 32 1036 b 157 835 32 857 63 835 z m 40 0 l 274 0 l 274 808 b 157 783 254 793 217 783 b 40 807 97 783 60 792 z "},"j":{"ha":321,"x_min":0,"x_max":0,"o":"m 161 835 b 286 947 250 835 286 860 b 161 1060 286 1036 251 1060 b 36 947 69 1060 36 1036 b 161 835 36 857 67 835 z m -64 -289 l 47 -289 b 278 -65 214 -289 278 -233 l 278 808 b 161 783 258 793 221 783 b 44 807 101 783 64 792 l 44 -22 b -3 -75 44 -64 35 -75 l -64 -75 z "},"k":{"ha":622,"x_min":0,"x_max":0,"o":"m 296 331 l 396 0 l 633 0 l 458 503 l 626 813 l 386 813 l 285 608 l 260 549 l 261 588 l 261 1058 l 40 1058 l 40 0 l 261 0 l 261 311 l 288 376 z "},"l":{"ha":307,"x_min":0,"x_max":0,"o":"m 267 0 l 267 1058 l 40 1058 l 40 0 z "},"m":{"ha":932,"x_min":0,"x_max":0,"o":"m 264 543 b 310 626 264 599 272 626 b 353 549 346 626 353 599 l 353 0 l 578 0 l 578 544 b 625 626 578 599 588 626 b 668 549 661 626 668 599 l 668 0 l 893 0 l 893 589 b 711 824 893 749 833 824 b 560 711 632 824 583 781 b 401 824 538 786 488 824 b 249 707 325 824 275 778 l 224 813 l 40 813 l 40 0 l 264 0 z "},"n":{"ha":629,"x_min":0,"x_max":0,"o":"m 269 542 b 318 625 269 596 281 625 b 363 547 354 625 363 597 l 363 0 l 590 0 l 590 588 b 408 822 590 747 532 822 b 251 714 329 822 276 783 l 228 813 l 40 813 l 40 0 l 269 0 z "},"o":{"ha":618,"x_min":0,"x_max":0,"o":"m 308 -15 b 582 263 493 -15 582 69 l 582 542 b 308 824 582 732 488 824 b 36 542 136 824 36 733 l 36 263 b 308 -15 36 69 122 -15 z m 310 182 b 258 268 276 182 258 204 l 258 540 b 310 632 258 608 272 632 b 360 540 350 632 360 608 l 360 268 b 310 182 360 204 342 182 z "},"p":{"ha":622,"x_min":0,"x_max":0,"o":"m 313 178 b 263 267 276 178 263 204 l 263 535 b 313 631 263 606 278 631 b 364 525 349 631 364 611 l 364 274 b 313 178 364 200 350 178 z m 396 -11 b 586 293 517 -10 586 65 l 586 511 b 397 822 586 738 528 822 b 254 706 322 822 275 785 l 228 813 l 40 813 l 40 -251 l 263 -251 l 263 101 b 396 -11 279 28 317 -11 z "},"q":{"ha":625,"x_min":0,"x_max":0,"o":"m 583 -251 l 583 813 l 394 813 l 371 714 b 232 824 354 782 315 824 b 36 513 89 824 36 722 l 36 274 b 219 -12 36 56 97 -11 b 358 104 299 -12 340 19 l 358 -251 z m 308 179 b 258 276 272 179 258 204 l 258 524 b 311 631 258 610 274 631 b 360 525 349 631 360 596 l 360 272 b 308 179 360 213 343 179 z "},"r":{"ha":425,"x_min":0,"x_max":0,"o":"m 263 0 l 263 464 b 358 565 263 546 278 565 l 410 565 l 410 824 l 382 824 b 233 676 271 824 238 783 l 200 813 l 42 813 l 42 0 z "},"s":{"ha":582,"x_min":0,"x_max":0,"o":"m 292 -17 b 567 233 476 -17 567 86 l 567 246 b 367 499 567 407 458 461 b 243 592 300 526 243 546 l 243 597 b 294 651 243 631 257 651 b 343 592 331 651 343 631 l 343 542 l 554 542 l 554 603 b 292 825 554 736 481 825 b 25 589 107 825 25 724 l 25 582 b 214 344 25 425 125 378 b 346 238 283 318 346 299 l 346 235 b 294 174 346 197 332 174 b 240 228 256 174 240 189 l 240 297 l 17 297 l 17 214 b 292 -17 17 65 94 -17 z "},"t":{"ha":425,"x_min":0,"x_max":0,"o":"m 404 217 l 376 217 b 304 303 326 217 304 222 l 304 592 l 406 592 l 406 813 l 304 813 l 304 960 l 146 960 b 128 885 142 931 138 910 b 79 819 117 854 104 835 b 13 800 57 806 36 803 l 13 592 l 90 592 l 90 238 b 321 0 90 51 147 0 l 404 0 z "},"u":{"ha":625,"x_min":0,"x_max":0,"o":"m 399 0 l 583 0 l 583 813 l 357 813 l 357 269 b 313 186 357 215 350 186 b 268 264 275 186 268 214 l 268 813 l 40 813 l 40 224 b 226 -12 40 60 99 -12 b 375 94 304 -12 353 25 z "},"v":{"ha":590,"x_min":0,"x_max":0,"o":"m 406 0 l 594 813 l 369 813 l 307 449 l 296 286 l 285 449 l 221 813 l -4 813 l 186 0 z "},"w":{"ha":847,"x_min":0,"x_max":0,"o":"m 406 336 l 417 449 l 424 336 l 492 0 l 701 0 l 856 813 l 642 813 l 579 411 l 578 278 l 565 413 l 492 813 l 350 813 l 272 411 l 253 282 l 258 414 l 208 813 l -8 813 l 126 0 l 339 0 z "},"x":{"ha":617,"x_min":0,"x_max":0,"o":"m 303 190 l 310 244 l 318 190 l 389 0 l 621 0 l 439 429 l 604 813 l 371 813 l 313 626 l 310 594 l 306 628 l 249 813 l 14 813 l 181 429 l -3 0 l 233 0 z "},"y":{"ha":607,"x_min":0,"x_max":0,"o":"m 138 -261 b 397 -47 311 -261 356 -219 l 604 813 l 385 813 l 319 492 l 307 315 l 296 492 l 228 813 l 3 813 l 207 60 l 197 10 b 107 -50 188 -37 168 -50 l 33 -50 l 33 -261 z "},"z":{"ha":539,"x_min":0,"x_max":0,"o":"m 508 0 l 510 199 l 293 199 l 507 628 l 507 813 l 38 813 l 38 618 l 260 618 l 29 175 l 29 0 z "},"á":{"ha":615,"x_min":0,"x_max":0,"o":"m 303 157 b 257 208 272 157 257 175 l 257 263 b 276 342 257 306 261 325 b 331 371 286 353 306 361 b 356 386 343 375 350 381 l 356 231 b 303 157 356 183 339 157 z m 399 0 l 576 0 l 576 576 b 307 824 576 747 496 824 b 44 586 124 824 44 728 l 44 506 l 263 506 l 263 586 b 311 649 263 629 276 649 b 356 590 343 649 356 632 l 356 564 b 263 476 356 511 332 500 b 86 397 182 449 132 436 b 25 249 46 364 25 317 l 25 185 b 207 -15 25 61 68 -15 b 369 86 289 -15 343 19 z m 218 879 l 376 879 l 538 1090 l 328 1090 z "},"ă":{"ha":615,"x_min":0,"x_max":0,"o":"m 303 157 b 257 208 272 157 257 175 l 257 263 b 276 342 257 306 261 325 b 331 371 286 353 306 361 b 356 386 343 375 350 381 l 356 231 b 303 157 356 183 339 157 z m 399 0 l 576 0 l 576 576 b 307 824 576 747 496 824 b 44 586 124 824 44 728 l 44 506 l 263 506 l 263 586 b 311 649 263 629 276 649 b 356 590 343 649 356 632 l 356 564 b 263 476 356 511 332 500 b 86 397 182 449 132 436 b 25 249 46 364 25 317 l 25 185 b 207 -15 25 61 68 -15 b 369 86 289 -15 343 19 z m 313 876 b 501 1085 444 876 501 938 l 360 1085 b 313 1013 360 1028 349 1013 b 265 1085 275 1013 265 1026 l 124 1085 b 313 876 124 939 174 876 z "},"â":{"ha":615,"x_min":0,"x_max":0,"o":"m 303 157 b 257 208 272 157 257 175 l 257 263 b 276 342 257 306 261 325 b 331 371 286 353 306 361 b 356 386 343 375 350 381 l 356 231 b 303 157 356 183 339 157 z m 399 0 l 576 0 l 576 576 b 307 824 576 747 496 824 b 44 586 124 824 44 728 l 44 506 l 263 506 l 263 586 b 311 649 263 629 276 649 b 356 590 343 649 356 632 l 356 564 b 263 476 356 511 332 500 b 86 397 182 449 132 436 b 25 249 46 364 25 317 l 25 185 b 207 -15 25 61 68 -15 b 369 86 289 -15 343 19 z m 356 879 l 508 879 l 385 1118 l 246 1118 l 122 879 l 271 879 l 314 981 z "},"ä":{"ha":615,"x_min":0,"x_max":0,"o":"m 303 157 b 257 208 272 157 257 175 l 257 263 b 276 342 257 306 261 325 b 331 371 286 353 306 361 b 356 386 343 375 350 381 l 356 231 b 303 157 356 183 339 157 z m 399 0 l 576 0 l 576 576 b 307 824 576 747 496 824 b 44 586 124 824 44 728 l 44 506 l 263 506 l 263 586 b 311 649 263 629 276 649 b 356 590 343 649 356 632 l 356 564 b 263 476 356 511 332 500 b 86 397 182 449 132 436 b 25 249 46 364 25 317 l 25 185 b 207 -15 25 61 68 -15 b 369 86 289 -15 343 19 z m 206 876 b 297 971 275 876 297 899 b 206 1072 297 1049 274 1072 b 117 971 140 1072 117 1049 b 206 876 117 896 135 876 z m 418 876 b 510 971 486 876 510 899 b 418 1072 510 1049 485 1072 b 329 971 350 1072 329 1049 b 418 876 329 896 346 876 z "},"à":{"ha":615,"x_min":0,"x_max":0,"o":"m 303 157 b 257 208 272 157 257 175 l 257 263 b 276 342 257 306 261 325 b 331 371 286 353 306 361 b 356 386 343 375 350 381 l 356 231 b 303 157 356 183 339 157 z m 399 0 l 576 0 l 576 576 b 307 824 576 747 496 824 b 44 586 124 824 44 728 l 44 506 l 263 506 l 263 586 b 311 649 263 629 276 649 b 356 590 343 649 356 632 l 356 564 b 263 476 356 511 332 500 b 86 397 182 449 132 436 b 25 249 46 364 25 317 l 25 185 b 207 -15 25 61 68 -15 b 369 86 289 -15 343 19 z m 244 879 l 390 879 l 303 1090 l 94 1090 z "},"ā":{"ha":615,"x_min":0,"x_max":0,"o":"m 303 157 b 257 208 272 157 257 175 l 257 263 b 276 342 257 306 261 325 b 331 371 286 353 306 361 b 356 386 343 375 350 381 l 356 231 b 303 157 356 183 339 157 z m 399 0 l 576 0 l 576 576 b 307 824 576 747 496 824 b 44 586 124 824 44 728 l 44 506 l 263 506 l 263 586 b 311 649 263 629 276 649 b 356 590 343 649 356 632 l 356 564 b 263 476 356 511 332 500 b 86 397 182 449 132 436 b 25 249 46 364 25 317 l 25 185 b 207 -15 25 61 68 -15 b 369 86 289 -15 343 19 z m 167 890 l 460 890 l 460 1046 l 167 1046 z "},"ą":{"ha":615,"x_min":0,"x_max":0,"o":"m 303 157 b 257 208 272 157 257 175 l 257 263 b 276 342 257 306 261 325 b 331 371 286 353 306 361 b 356 386 343 375 350 381 l 356 231 b 303 157 356 183 339 157 z m 671 -108 l 500 -108 b 467 -156 499 -143 485 -156 b 440 -131 450 -156 440 -149 b 576 0 440 -111 449 -92 l 576 576 b 307 824 576 747 496 824 b 44 586 124 824 44 728 l 44 506 l 263 506 l 263 586 b 311 649 263 629 276 649 b 356 590 343 649 356 632 l 356 564 b 263 476 356 511 332 500 b 86 397 182 449 132 436 b 25 249 46 364 25 317 l 25 185 b 207 -15 25 61 68 -15 b 369 86 289 -15 343 19 l 390 26 b 281 -143 301 -37 281 -87 b 458 -289 281 -239 340 -289 b 671 -108 579 -289 653 -232 z "},"å":{"ha":615,"x_min":0,"x_max":0,"o":"m 303 157 b 257 208 272 157 257 175 l 257 263 b 276 342 257 306 261 325 b 331 371 286 353 306 361 b 356 386 343 375 350 381 l 356 231 b 303 157 356 183 339 157 z m 399 0 l 576 0 l 576 576 b 307 824 576 747 496 824 b 44 586 124 824 44 728 l 44 506 l 263 506 l 263 586 b 311 649 263 629 276 649 b 356 590 343 649 356 632 l 356 564 b 263 476 356 511 332 500 b 86 397 182 449 132 436 b 25 249 46 364 25 317 l 25 185 b 207 -15 25 61 68 -15 b 369 86 289 -15 343 19 z m 313 875 b 481 1024 418 875 481 931 b 313 1175 481 1119 413 1175 b 146 1022 218 1175 146 1124 b 313 875 146 926 211 875 z m 314 994 b 281 1025 289 994 281 1007 b 314 1057 281 1043 289 1057 b 347 1025 338 1057 347 1043 b 314 994 347 1007 338 994 z "},"ǻ":{"ha":615,"x_min":0,"x_max":0,"o":"m 303 157 b 257 208 272 157 257 175 l 257 263 b 276 342 257 306 261 325 b 331 371 286 353 306 361 b 356 386 343 375 350 381 l 356 231 b 303 157 356 183 339 157 z m 399 0 l 576 0 l 576 576 b 307 824 576 747 496 824 b 44 586 124 824 44 728 l 44 506 l 263 506 l 263 586 b 311 649 263 629 276 649 b 356 590 343 649 356 632 l 356 564 b 263 476 356 511 332 500 b 86 397 182 449 132 436 b 25 249 46 364 25 317 l 25 185 b 207 -15 25 61 68 -15 b 369 86 289 -15 343 19 z m 319 863 b 488 1011 425 863 488 918 b 319 1163 488 1107 419 1163 b 153 1010 225 1163 153 1111 b 319 863 153 914 218 863 z m 321 982 b 288 1013 296 982 288 994 b 321 1044 288 1031 296 1044 b 354 1013 344 1044 354 1031 b 321 982 354 994 344 982 z m 243 1199 l 401 1199 l 563 1410 l 353 1410 z "},"ã":{"ha":615,"x_min":0,"x_max":0,"o":"m 303 157 b 257 208 272 157 257 175 l 257 263 b 276 342 257 306 261 325 b 331 371 286 353 306 361 b 356 386 343 375 350 381 l 356 231 b 303 157 356 183 339 157 z m 399 0 l 576 0 l 576 576 b 307 824 576 747 496 824 b 44 586 124 824 44 728 l 44 506 l 263 506 l 263 586 b 311 649 263 629 276 649 b 356 590 343 649 356 632 l 356 564 b 263 476 356 511 332 500 b 86 397 182 449 132 436 b 25 249 46 364 25 317 l 25 185 b 207 -15 25 61 68 -15 b 369 86 289 -15 343 19 z m 96 878 l 225 878 b 249 932 225 914 231 932 b 407 874 290 932 335 874 b 533 1094 499 874 533 924 l 403 1094 b 376 1046 403 1060 397 1046 b 222 1100 346 1046 294 1100 b 96 878 128 1100 96 1044 z "},"æ":{"ha":931,"x_min":0,"x_max":0,"o":"m 628 -15 b 901 264 853 -12 901 104 l 901 292 l 675 292 l 675 269 b 626 175 675 204 667 175 b 571 265 586 175 571 194 l 571 347 l 901 347 l 901 544 b 636 822 901 722 828 822 b 478 775 569 822 517 807 b 307 824 440 807 386 824 b 42 586 131 824 42 724 l 42 506 l 264 506 l 264 586 b 313 649 264 629 278 649 b 357 590 344 649 357 632 l 357 564 b 264 476 357 511 333 500 b 86 397 183 449 132 436 b 25 256 46 364 25 315 l 25 176 b 218 -14 25 53 82 -14 b 407 97 319 -14 381 18 b 628 -15 440 21 507 -17 z m 571 538 b 628 638 571 607 583 638 b 682 542 671 638 682 608 l 682 483 l 571 483 z m 304 157 b 260 208 274 157 260 175 l 260 263 b 279 342 260 306 264 325 b 332 371 289 353 307 361 b 357 386 344 375 351 381 l 357 231 b 304 157 357 183 340 157 z "},"ǽ":{"ha":931,"x_min":0,"x_max":0,"o":"m 628 -15 b 901 264 853 -12 901 104 l 901 292 l 675 292 l 675 269 b 626 175 675 204 667 175 b 571 265 586 175 571 194 l 571 347 l 901 347 l 901 544 b 636 822 901 722 828 822 b 478 775 569 822 517 807 b 307 824 440 807 386 824 b 42 586 131 824 42 724 l 42 506 l 264 506 l 264 586 b 313 649 264 629 278 649 b 357 590 344 649 357 632 l 357 564 b 264 476 357 511 333 500 b 86 397 183 449 132 436 b 25 256 46 364 25 315 l 25 176 b 218 -14 25 53 82 -14 b 407 97 319 -14 381 18 b 628 -15 440 21 507 -17 z m 571 538 b 628 638 571 607 583 638 b 682 542 671 638 682 608 l 682 483 l 571 483 z m 304 157 b 260 208 274 157 260 175 l 260 263 b 279 342 260 306 264 325 b 332 371 289 353 307 361 b 357 386 344 375 351 381 l 357 231 b 304 157 357 183 340 157 z m 388 869 l 546 869 l 707 1081 l 497 1081 z "},"ć":{"ha":615,"x_min":0,"x_max":0,"o":"m 306 -15 b 582 257 497 -15 582 72 l 582 378 l 354 378 l 354 264 b 308 182 354 204 346 182 b 258 268 271 182 258 203 l 258 539 b 310 632 258 613 271 632 b 354 538 347 632 354 611 l 354 451 l 582 451 l 582 542 b 318 824 582 724 497 824 b 36 542 139 824 36 732 l 36 263 b 306 -15 36 71 125 -15 z m 228 881 l 386 881 l 547 1092 l 338 1092 z "},"č":{"ha":615,"x_min":0,"x_max":0,"o":"m 306 -15 b 582 257 497 -15 582 72 l 582 378 l 354 378 l 354 264 b 308 182 354 204 346 182 b 258 268 271 182 258 203 l 258 539 b 310 632 258 613 271 632 b 354 538 347 632 354 611 l 354 451 l 582 451 l 582 542 b 318 824 582 724 497 824 b 36 542 139 824 36 732 l 36 263 b 306 -15 36 71 125 -15 z m 382 881 l 507 1119 l 358 1119 l 314 1018 l 274 1119 l 119 1119 l 243 881 z "},"ç":{"ha":615,"x_min":0,"x_max":0,"o":"m 308 -335 b 507 -185 432 -335 507 -281 b 375 -58 507 -97 458 -65 l 375 -11 b 582 257 518 10 582 96 l 582 378 l 354 378 l 354 264 b 308 182 354 204 346 182 b 258 268 271 182 258 203 l 258 539 b 310 632 258 613 271 632 b 354 538 347 632 354 611 l 354 451 l 582 451 l 582 542 b 318 824 582 724 497 824 b 36 542 139 824 36 732 l 36 263 b 238 -11 36 97 103 10 l 238 -151 l 313 -151 b 357 -181 342 -151 357 -161 b 313 -212 357 -200 343 -212 b 261 -179 283 -212 269 -206 l 94 -179 b 308 -335 117 -292 186 -335 z "},"ĉ":{"ha":615,"x_min":0,"x_max":0,"o":"m 306 -15 b 582 257 497 -15 582 72 l 582 378 l 354 378 l 354 264 b 308 182 354 204 346 182 b 258 268 271 182 258 203 l 258 539 b 310 632 258 613 271 632 b 354 538 347 632 354 611 l 354 451 l 582 451 l 582 542 b 318 824 582 724 497 824 b 36 542 139 824 36 732 l 36 263 b 306 -15 36 71 125 -15 z m 356 881 l 508 881 l 385 1119 l 246 1119 l 122 881 l 271 881 l 314 982 z "},"ċ":{"ha":617,"x_min":0,"x_max":0,"o":"m 306 -15 b 582 257 497 -15 582 72 l 582 378 l 354 378 l 354 264 b 308 182 354 204 346 182 b 258 268 271 182 258 203 l 258 539 b 310 632 258 613 271 632 b 354 538 347 632 354 611 l 354 451 l 582 451 l 582 542 b 318 824 582 724 497 824 b 36 542 139 824 36 732 l 36 263 b 306 -15 36 71 125 -15 z m 313 878 b 425 992 397 878 425 897 b 313 1107 425 1088 396 1107 b 200 992 228 1107 200 1088 b 313 878 200 894 222 878 z "},"ď":{"ha":628,"x_min":0,"x_max":0,"o":"m 306 178 b 258 288 271 178 258 200 l 258 532 b 310 631 258 607 269 631 b 360 521 349 631 360 586 l 360 276 b 306 178 360 201 339 178 z m 390 0 l 582 0 l 582 1058 l 358 1058 l 358 726 b 226 822 339 790 299 822 b 36 531 113 822 36 746 l 36 303 b 225 -11 36 83 89 -11 b 369 106 314 -11 353 35 z m 632 922 l 764 922 l 885 1133 l 701 1133 z "},"đ":{"ha":628,"x_min":0,"x_max":0,"o":"m 306 178 b 258 288 271 178 258 200 l 258 532 b 310 631 258 607 269 631 b 360 521 349 631 360 586 l 360 276 b 306 178 360 201 339 178 z m 369 106 l 390 0 l 582 0 l 582 854 l 628 854 l 628 983 l 582 983 l 582 1058 l 358 1058 l 358 983 l 306 983 l 306 854 l 358 854 l 358 726 b 226 822 339 790 299 822 b 36 531 113 822 36 746 l 36 303 b 225 -11 36 83 89 -11 b 369 106 314 -11 353 35 z "},"ð":{"ha":618,"x_min":0,"x_max":0,"o":"m 310 -15 b 588 272 482 -15 588 75 l 588 553 b 440 964 588 721 532 860 l 596 1065 l 418 1065 l 368 1033 b 324 1065 354 1044 339 1056 l 31 1065 b 215 935 106 1019 167 976 l 54 831 l 233 831 l 288 867 b 356 771 317 835 339 803 b 267 796 335 788 306 796 b 32 528 111 796 32 701 l 32 249 b 310 -15 32 69 128 -15 z m 311 182 b 254 254 278 182 254 201 l 254 525 b 311 603 254 581 274 603 b 368 525 351 603 368 585 l 368 256 b 311 182 368 200 343 182 z "},"é":{"ha":617,"x_min":0,"x_max":0,"o":"m 314 -15 b 588 264 539 -12 588 104 l 588 292 l 365 292 l 365 269 b 315 175 365 204 356 175 b 258 265 275 175 258 194 l 258 349 l 588 349 l 588 544 b 311 824 588 722 503 824 b 39 543 146 824 39 725 l 39 269 b 314 -15 39 78 122 -18 z m 258 538 b 317 638 258 607 272 638 b 372 542 360 638 372 608 l 372 483 l 258 483 z m 228 879 l 386 879 l 547 1090 l 338 1090 z "},"ĕ":{"ha":617,"x_min":0,"x_max":0,"o":"m 314 -15 b 588 264 539 -12 588 104 l 588 292 l 365 292 l 365 269 b 315 175 365 204 356 175 b 258 265 275 175 258 194 l 258 349 l 588 349 l 588 544 b 311 824 588 722 503 824 b 39 543 146 824 39 725 l 39 269 b 314 -15 39 78 122 -18 z m 258 538 b 317 638 258 607 272 638 b 372 542 360 638 372 608 l 372 483 l 258 483 z m 313 876 b 501 1085 444 876 501 938 l 360 1085 b 313 1013 360 1028 349 1013 b 265 1085 275 1013 265 1026 l 124 1085 b 313 876 124 939 174 876 z "},"ě":{"ha":617,"x_min":0,"x_max":0,"o":"m 314 -15 b 588 264 539 -12 588 104 l 588 292 l 365 292 l 365 269 b 315 175 365 204 356 175 b 258 265 275 175 258 194 l 258 349 l 588 349 l 588 544 b 311 824 588 722 503 824 b 39 543 146 824 39 725 l 39 269 b 314 -15 39 78 122 -18 z m 258 538 b 317 638 258 607 272 638 b 372 542 360 638 372 608 l 372 483 l 258 483 z m 382 879 l 507 1118 l 358 1118 l 314 1017 l 274 1118 l 119 1118 l 243 879 z "},"ê":{"ha":617,"x_min":0,"x_max":0,"o":"m 314 -15 b 588 264 539 -12 588 104 l 588 292 l 365 292 l 365 269 b 315 175 365 204 356 175 b 258 265 275 175 258 194 l 258 349 l 588 349 l 588 544 b 311 824 588 722 503 824 b 39 543 146 824 39 725 l 39 269 b 314 -15 39 78 122 -18 z m 258 538 b 317 638 258 607 272 638 b 372 542 360 638 372 608 l 372 483 l 258 483 z m 356 879 l 508 879 l 385 1118 l 246 1118 l 122 879 l 271 879 l 314 981 z "},"ë":{"ha":617,"x_min":0,"x_max":0,"o":"m 314 -15 b 588 264 539 -12 588 104 l 588 292 l 365 292 l 365 269 b 315 175 365 204 356 175 b 258 265 275 175 258 194 l 258 349 l 588 349 l 588 544 b 311 824 588 722 503 824 b 39 543 146 824 39 725 l 39 269 b 314 -15 39 78 122 -18 z m 258 538 b 317 638 258 607 272 638 b 372 542 360 638 372 608 l 372 483 l 258 483 z m 206 876 b 297 971 275 876 297 899 b 206 1072 297 1049 274 1072 b 117 971 140 1072 117 1049 b 206 876 117 896 135 876 z m 418 876 b 510 971 486 876 510 899 b 418 1072 510 1049 485 1072 b 329 971 350 1072 329 1049 b 418 876 329 896 346 876 z "},"ė":{"ha":617,"x_min":0,"x_max":0,"o":"m 314 -15 b 588 264 539 -12 588 104 l 588 292 l 365 292 l 365 269 b 315 175 365 204 356 175 b 258 265 275 175 258 194 l 258 349 l 588 349 l 588 544 b 311 824 588 722 503 824 b 39 543 146 824 39 725 l 39 269 b 314 -15 39 78 122 -18 z m 258 538 b 317 638 258 607 272 638 b 372 542 360 638 372 608 l 372 483 l 258 483 z m 313 876 b 425 990 397 876 425 896 b 313 1106 425 1086 396 1106 b 200 990 228 1106 200 1086 b 313 876 200 893 222 876 z "},"è":{"ha":617,"x_min":0,"x_max":0,"o":"m 314 -15 b 588 264 539 -12 588 104 l 588 292 l 365 292 l 365 269 b 315 175 365 204 356 175 b 258 265 275 175 258 194 l 258 349 l 588 349 l 588 544 b 311 824 588 722 503 824 b 39 543 146 824 39 725 l 39 269 b 314 -15 39 78 122 -18 z m 258 538 b 317 638 258 607 272 638 b 372 542 360 638 372 608 l 372 483 l 258 483 z m 244 879 l 390 879 l 303 1090 l 94 1090 z "},"ē":{"ha":617,"x_min":0,"x_max":0,"o":"m 314 -15 b 588 264 539 -12 588 104 l 588 292 l 365 292 l 365 269 b 315 175 365 204 356 175 b 258 265 275 175 258 194 l 258 349 l 588 349 l 588 544 b 311 824 588 722 503 824 b 39 543 146 824 39 725 l 39 269 b 314 -15 39 78 122 -18 z m 258 538 b 317 638 258 607 272 638 b 372 542 360 638 372 608 l 372 483 l 258 483 z m 167 890 l 460 890 l 460 1046 l 167 1046 z "},"ę":{"ha":617,"x_min":0,"x_max":0,"o":"m 357 -271 b 569 -90 478 -271 551 -214 l 399 -90 b 365 -137 397 -125 383 -137 b 339 -112 349 -137 339 -131 b 472 17 339 -93 347 -74 b 588 264 564 61 588 153 l 588 292 l 365 292 l 365 269 b 315 175 365 204 356 175 b 258 265 275 175 258 194 l 258 349 l 588 349 l 588 544 b 311 824 588 722 503 824 b 39 543 146 824 39 725 l 39 269 b 228 -8 39 110 97 17 b 179 -125 190 -49 179 -86 b 357 -271 179 -221 239 -271 z m 258 538 b 317 638 258 607 272 638 b 372 542 360 638 372 608 l 372 483 l 258 483 z "},"ğ":{"ha":626,"x_min":0,"x_max":0,"o":"m 628 -39 l 628 -36 b 369 165 628 100 539 165 l 256 165 b 183 188 196 165 183 172 b 253 214 183 203 196 214 l 315 214 b 585 449 501 214 585 286 l 585 596 b 419 793 585 710 531 778 b 601 886 557 792 601 810 l 601 890 l 374 890 l 374 883 b 283 821 374 842 356 831 l 264 818 b 43 590 128 799 43 740 l 43 454 b 142 274 43 358 74 303 b 6 129 51 254 6 206 b 131 -7 6 51 47 8 b 18 -129 54 -29 18 -75 b 299 -272 18 -214 92 -272 l 303 -272 b 628 -39 526 -272 628 -169 z m 317 374 b 267 432 288 374 267 390 l 267 608 b 317 668 267 650 286 668 b 367 608 349 668 367 647 l 367 432 b 317 374 367 393 343 374 z m 306 -103 b 219 -64 244 -103 219 -83 l 219 -58 b 296 -12 219 -35 257 -12 l 349 -12 b 417 -47 396 -12 417 -26 l 417 -53 b 324 -103 417 -78 381 -103 z m 321 914 b 510 1122 453 914 510 975 l 368 1122 b 321 1050 368 1065 357 1050 b 274 1122 283 1050 274 1064 l 132 1122 b 321 914 132 976 182 914 z "},"ĝ":{"ha":626,"x_min":0,"x_max":0,"o":"m 368 936 l 521 936 l 397 1175 l 258 1175 l 135 936 l 283 936 l 326 1038 z m 628 -39 l 628 -36 b 369 165 628 100 539 165 l 256 165 b 183 188 196 165 183 172 b 253 214 183 203 196 214 l 315 214 b 585 449 501 214 585 286 l 585 596 b 419 793 585 710 531 778 b 601 886 557 792 601 810 l 601 890 l 374 890 l 374 883 b 283 821 374 842 356 831 l 264 818 b 43 590 128 799 43 740 l 43 454 b 142 274 43 358 74 303 b 6 129 51 254 6 206 b 131 -7 6 51 47 8 b 18 -129 54 -29 18 -75 b 299 -272 18 -214 92 -272 l 303 -272 b 628 -39 526 -272 628 -169 z m 317 374 b 267 432 288 374 267 390 l 267 608 b 317 668 267 650 286 668 b 367 608 349 668 367 647 l 367 432 b 317 374 367 393 343 374 z m 306 -103 b 219 -64 244 -103 219 -83 l 219 -58 b 296 -12 219 -35 257 -12 l 349 -12 b 417 -47 396 -12 417 -26 l 417 -53 b 324 -103 417 -78 381 -103 z "},"ģ":{"ha":626,"x_min":0,"x_max":0,"o":"m 325 921 b 424 1021 399 921 424 949 b 340 1115 424 1100 400 1115 l 331 1115 b 404 1167 338 1154 358 1167 l 404 1257 b 226 1051 282 1257 226 1182 b 325 921 226 949 250 921 z m 628 -39 l 628 -36 b 369 165 628 100 539 165 l 256 165 b 183 188 196 165 183 172 b 253 214 183 203 196 214 l 315 214 b 585 449 501 214 585 286 l 585 596 b 419 793 585 710 531 778 b 601 886 557 792 601 810 l 601 890 l 374 890 l 374 883 b 283 821 374 842 356 831 l 264 818 b 43 590 128 799 43 740 l 43 454 b 142 274 43 358 74 303 b 6 129 51 254 6 206 b 131 -7 6 51 47 8 b 18 -129 54 -29 18 -75 b 299 -272 18 -214 92 -272 l 303 -272 b 628 -39 526 -272 628 -169 z m 317 374 b 267 432 288 374 267 390 l 267 608 b 317 668 267 650 286 668 b 367 608 349 668 367 647 l 367 432 b 317 374 367 393 343 374 z m 306 -103 b 219 -64 244 -103 219 -83 l 219 -58 b 296 -12 219 -35 257 -12 l 349 -12 b 417 -47 396 -12 417 -26 l 417 -53 b 324 -103 417 -78 381 -103 z "},"ġ":{"ha":626,"x_min":0,"x_max":0,"o":"m 322 925 b 435 1039 407 925 435 944 b 322 1154 435 1135 406 1154 b 210 1039 238 1154 210 1135 b 322 925 210 942 232 925 z m 628 -39 l 628 -36 b 369 165 628 100 539 165 l 256 165 b 183 188 196 165 183 172 b 253 214 183 203 196 214 l 315 214 b 585 449 501 214 585 286 l 585 596 b 419 793 585 710 531 778 b 601 886 557 792 601 810 l 601 890 l 374 890 l 374 883 b 283 821 374 842 356 831 l 264 818 b 43 590 128 799 43 740 l 43 454 b 142 274 43 358 74 303 b 6 129 51 254 6 206 b 131 -7 6 51 47 8 b 18 -129 54 -29 18 -75 b 299 -272 18 -214 92 -272 l 303 -272 b 628 -39 526 -272 628 -169 z m 317 374 b 267 432 288 374 267 390 l 267 608 b 317 668 267 650 286 668 b 367 608 349 668 367 647 l 367 432 b 317 374 367 393 343 374 z m 306 -103 b 219 -64 244 -103 219 -83 l 219 -58 b 296 -12 219 -35 257 -12 l 349 -12 b 417 -47 396 -12 417 -26 l 417 -53 b 324 -103 417 -78 381 -103 z "},"ß":{"ha":626,"x_min":0,"x_max":0,"o":"m 267 815 b 317 874 267 853 278 874 b 364 819 354 874 364 853 l 364 692 b 321 638 364 650 344 638 l 315 638 l 315 450 l 325 450 b 367 404 353 450 367 440 l 367 250 b 321 197 367 207 353 197 l 315 197 l 315 0 l 379 0 b 596 210 561 0 596 36 l 596 422 b 519 556 596 501 567 539 b 582 686 563 578 582 618 l 582 835 b 318 1067 582 982 501 1067 b 40 825 136 1067 40 976 l 40 0 l 267 0 z "},"ħ":{"ha":625,"x_min":0,"x_max":0,"o":"m 267 542 b 315 625 267 596 278 625 b 358 547 351 625 358 597 l 358 0 l 586 0 l 586 588 b 414 822 586 747 528 822 b 267 710 329 822 285 783 l 267 854 l 324 854 l 324 983 l 267 983 l 267 1058 l 40 1058 l 40 983 l 0 983 l 0 854 l 40 854 l 40 0 l 267 0 z "},"ĥ":{"ha":625,"x_min":0,"x_max":0,"o":"m 267 542 b 315 625 267 596 278 625 b 358 547 351 625 358 597 l 358 0 l 586 0 l 586 588 b 414 822 586 747 528 822 b 267 710 329 822 285 783 l 267 1058 l 40 1058 l 40 0 l 267 0 z m 199 1113 l 351 1113 l 228 1351 l 89 1351 l -35 1113 l 114 1113 l 157 1214 z "},"í":{"ha":314,"x_min":0,"x_max":0,"o":"m 274 0 l 274 813 l 40 813 l 40 0 z m 81 883 l 239 883 l 400 1094 l 190 1094 z "},"ĭ":{"ha":314,"x_min":0,"x_max":0,"o":"m 274 0 l 274 813 l 40 813 l 40 0 z m 154 867 b 343 1075 286 867 343 928 l 201 1075 b 154 1003 201 1018 190 1003 b 107 1075 117 1003 107 1017 l -35 1075 b 154 867 -35 929 15 867 z "},"î":{"ha":314,"x_min":0,"x_max":0,"o":"m 274 0 l 274 813 l 40 813 l 40 0 z m 197 869 l 350 869 l 226 1108 l 88 1108 l -36 869 l 113 869 l 156 971 z "},"ï":{"ha":314,"x_min":0,"x_max":0,"o":"m 274 0 l 274 813 l 40 813 l 40 0 z m 47 867 b 139 961 117 867 139 889 b 47 1063 139 1039 115 1063 b -42 961 -18 1063 -42 1039 b 47 867 -42 886 -24 867 z m 260 867 b 351 961 328 867 351 889 b 260 1063 351 1039 326 1063 b 171 961 192 1063 171 1039 b 260 867 171 886 188 867 z "},"ì":{"ha":314,"x_min":0,"x_max":0,"o":"m 274 0 l 274 813 l 40 813 l 40 0 z m 86 869 l 232 869 l 144 1081 l -64 1081 z "},"ī":{"ha":314,"x_min":0,"x_max":0,"o":"m 274 0 l 274 813 l 40 813 l 40 0 z m 8 881 l 301 881 l 301 1036 l 8 1036 z "},"į":{"ha":314,"x_min":0,"x_max":0,"o":"m 157 835 b 282 947 246 835 282 860 b 157 1060 282 1036 247 1060 b 32 947 65 1060 32 1036 b 157 835 32 857 63 835 z m 158 -289 b 371 -108 279 -289 353 -232 l 200 -108 b 167 -156 199 -143 185 -156 b 140 -131 150 -156 140 -149 b 276 0 140 -111 149 -92 l 274 1 l 274 808 b 157 783 254 793 217 783 b 40 807 97 783 60 792 l 40 0 l 56 0 b -19 -143 -4 -51 -19 -96 b 158 -289 -19 -239 40 -289 z "},"ĩ":{"ha":314,"x_min":0,"x_max":0,"o":"m 274 0 l 274 813 l 40 813 l 40 0 z m -62 868 l 67 868 b 90 922 67 904 72 922 b 249 864 132 922 176 864 b 375 1085 340 864 375 914 l 244 1085 b 218 1036 244 1050 239 1036 b 64 1090 188 1036 136 1090 b -62 868 -31 1090 -62 1035 z "},"ı":{"ha":314,"x_min":0,"x_max":0,"o":"m 274 0 l 274 813 l 40 813 l 40 0 z "},"ĵ":{"ha":321,"x_min":0,"x_max":0,"o":"m -64 -289 l 47 -289 b 278 -65 214 -289 278 -233 l 278 813 l 44 813 l 44 -22 b -3 -75 44 -64 35 -75 l -64 -75 z m 203 869 l 356 869 l 232 1108 l 93 1108 l -31 869 l 118 869 l 161 971 z "},"ȷ":{"ha":324,"x_min":0,"x_max":0,"o":"m -61 -289 l 50 -289 b 281 -65 217 -289 281 -233 l 281 813 l 47 813 l 47 -22 b 0 -75 47 -64 38 -75 l -61 -75 z "},"ķ":{"ha":622,"x_min":0,"x_max":0,"o":"m 296 331 l 396 0 l 633 0 l 458 503 l 626 813 l 386 813 l 285 608 l 260 549 l 261 588 l 261 1058 l 40 1058 l 40 0 l 261 0 l 261 311 l 288 376 z m 251 -386 b 429 -179 374 -386 429 -311 b 331 -50 429 -76 407 -50 b 233 -149 257 -50 233 -76 b 315 -243 233 -228 257 -243 l 325 -243 b 251 -296 318 -282 299 -296 z "},"ĸ":{"ha":622,"x_min":0,"x_max":0,"o":"m 296 331 l 396 0 l 633 0 l 458 503 l 626 813 l 386 813 l 285 608 l 260 549 l 261 588 l 261 813 l 40 813 l 40 0 l 261 0 l 261 311 l 288 376 z "},"ĺ":{"ha":307,"x_min":0,"x_max":0,"o":"m 267 0 l 267 1058 l 40 1058 l 40 0 z m 68 1115 l 226 1115 l 388 1326 l 178 1326 z "},"ľ":{"ha":307,"x_min":0,"x_max":0,"o":"m 267 0 l 267 1058 l 40 1058 l 40 0 z m 303 919 l 435 919 l 556 1131 l 372 1131 z "},"ļ":{"ha":307,"x_min":0,"x_max":0,"o":"m 267 0 l 267 1058 l 40 1058 l 40 0 z m 81 -386 b 258 -179 203 -386 258 -311 b 160 -50 258 -76 236 -50 b 63 -149 86 -50 63 -76 b 144 -243 63 -228 86 -243 l 154 -243 b 81 -296 147 -282 128 -296 z "},"ŀ":{"ha":532,"x_min":0,"x_max":0,"o":"m 267 0 l 267 1058 l 40 1058 l 40 0 z m 419 281 b 532 394 504 281 532 300 b 419 510 532 490 503 510 b 307 394 335 510 307 490 b 419 281 307 297 329 281 z "},"ł":{"ha":340,"x_min":0,"x_max":0,"o":"m 281 0 l 281 369 l 356 386 l 324 544 l 281 535 l 281 1058 l 54 1058 l 54 488 l -17 472 l 17 313 l 54 321 l 54 0 z "},"ń":{"ha":629,"x_min":0,"x_max":0,"o":"m 269 542 b 318 625 269 596 281 625 b 363 547 354 625 363 597 l 363 0 l 590 0 l 590 588 b 408 822 590 747 532 822 b 251 714 329 822 276 783 l 228 813 l 40 813 l 40 0 l 269 0 z m 240 868 l 399 868 l 560 1079 l 350 1079 z "},"ň":{"ha":629,"x_min":0,"x_max":0,"o":"m 269 542 b 318 625 269 596 281 625 b 363 547 354 625 363 597 l 363 0 l 590 0 l 590 588 b 408 822 590 747 532 822 b 251 714 329 822 276 783 l 228 813 l 40 813 l 40 0 l 269 0 z m 394 868 l 519 1107 l 371 1107 l 326 1006 l 286 1107 l 132 1107 l 256 868 z "},"ņ":{"ha":629,"x_min":0,"x_max":0,"o":"m 269 542 b 318 625 269 596 281 625 b 363 547 354 625 363 597 l 363 0 l 590 0 l 590 588 b 408 822 590 747 532 822 b 251 714 329 822 276 783 l 228 813 l 40 813 l 40 0 l 269 0 z m 236 -386 b 414 -179 358 -386 414 -311 b 315 -50 414 -76 392 -50 b 218 -149 242 -50 218 -76 b 300 -243 218 -228 242 -243 l 310 -243 b 236 -296 303 -282 283 -296 z "},"ñ":{"ha":629,"x_min":0,"x_max":0,"o":"m 269 542 b 318 625 269 596 281 625 b 363 547 354 625 363 597 l 363 0 l 590 0 l 590 588 b 408 822 590 747 532 822 b 251 714 329 822 276 783 l 228 813 l 40 813 l 40 0 l 269 0 z m 108 867 l 238 867 b 261 921 238 903 243 921 b 419 863 303 921 347 863 b 546 1083 511 863 546 913 l 415 1083 b 389 1035 415 1049 410 1035 b 235 1089 358 1035 307 1089 b 108 867 140 1089 108 1033 z "},"ŋ":{"ha":629,"x_min":0,"x_max":0,"o":"m 364 -275 b 589 -65 531 -275 589 -233 l 589 589 b 408 824 589 749 532 824 b 251 713 329 824 276 785 l 228 813 l 40 813 l 40 0 l 269 0 l 269 543 b 318 626 269 597 281 626 b 361 549 354 626 361 599 l 361 -22 b 314 -75 361 -64 351 -75 l 253 -75 l 253 -275 z "},"ó":{"ha":618,"x_min":0,"x_max":0,"o":"m 308 -15 b 582 263 493 -15 582 69 l 582 542 b 308 824 582 732 488 824 b 36 542 136 824 36 733 l 36 263 b 308 -15 36 69 122 -15 z m 310 182 b 258 268 276 182 258 204 l 258 540 b 310 632 258 608 272 632 b 360 540 350 632 360 608 l 360 268 b 310 182 360 204 342 182 z m 224 879 l 382 879 l 543 1090 l 333 1090 z "},"ŏ":{"ha":618,"x_min":0,"x_max":0,"o":"m 308 -15 b 582 263 493 -15 582 69 l 582 542 b 308 824 582 732 488 824 b 36 542 136 824 36 733 l 36 263 b 308 -15 36 69 122 -15 z m 310 182 b 258 268 276 182 258 204 l 258 540 b 310 632 258 608 272 632 b 360 540 350 632 360 608 l 360 268 b 310 182 360 204 342 182 z m 308 876 b 497 1085 440 876 497 938 l 356 1085 b 308 1013 356 1028 344 1013 b 261 1085 271 1013 261 1026 l 119 1085 b 308 876 119 939 169 876 z "},"ô":{"ha":618,"x_min":0,"x_max":0,"o":"m 308 -15 b 582 263 493 -15 582 69 l 582 542 b 308 824 582 732 488 824 b 36 542 136 824 36 733 l 36 263 b 308 -15 36 69 122 -15 z m 310 182 b 258 268 276 182 258 204 l 258 540 b 310 632 258 608 272 632 b 360 540 350 632 360 608 l 360 268 b 310 182 360 204 342 182 z m 351 879 l 504 879 l 381 1118 l 242 1118 l 118 879 l 267 879 l 310 981 z "},"ö":{"ha":618,"x_min":0,"x_max":0,"o":"m 308 -15 b 582 263 493 -15 582 69 l 582 542 b 308 824 582 732 488 824 b 36 542 136 824 36 733 l 36 263 b 308 -15 36 69 122 -15 z m 310 182 b 258 268 276 182 258 204 l 258 540 b 310 632 258 608 272 632 b 360 540 350 632 360 608 l 360 268 b 310 182 360 204 342 182 z m 201 876 b 293 971 271 876 293 899 b 201 1072 293 1049 269 1072 b 113 971 136 1072 113 1049 b 201 876 113 896 131 876 z m 414 876 b 506 971 482 876 506 899 b 414 1072 506 1049 481 1072 b 325 971 346 1072 325 1049 b 414 876 325 896 342 876 z "},"œ":{"ha":957,"x_min":0,"x_max":0,"o":"m 928 215 l 928 303 l 693 303 l 693 229 b 644 169 693 190 676 169 b 579 264 600 169 579 197 l 579 350 l 928 350 l 928 549 b 654 824 928 714 842 824 b 476 764 569 824 513 803 b 304 824 442 804 388 824 b 32 542 139 824 32 729 l 32 263 b 297 -15 32 69 128 -15 b 472 44 383 -15 438 7 b 651 -15 507 7 563 -15 b 928 215 821 -15 928 72 z m 579 551 b 646 649 579 621 599 649 b 707 558 690 649 707 621 l 707 492 l 579 492 z m 313 182 b 254 268 279 182 254 204 l 254 539 b 313 631 254 607 275 631 b 369 539 353 631 369 607 l 369 268 b 313 182 369 204 344 182 z "},"ò":{"ha":618,"x_min":0,"x_max":0,"o":"m 308 -15 b 582 263 493 -15 582 69 l 582 542 b 308 824 582 732 488 824 b 36 542 136 824 36 733 l 36 263 b 308 -15 36 69 122 -15 z m 310 182 b 258 268 276 182 258 204 l 258 540 b 310 632 258 608 272 632 b 360 540 350 632 360 608 l 360 268 b 310 182 360 204 342 182 z m 240 879 l 386 879 l 299 1090 l 90 1090 z "},"ő":{"ha":618,"x_min":0,"x_max":0,"o":"m 308 -15 b 582 263 493 -15 582 69 l 582 542 b 308 824 582 732 488 824 b 36 542 136 824 36 733 l 36 263 b 308 -15 36 69 122 -15 z m 310 182 b 258 268 276 182 258 204 l 258 540 b 310 632 258 608 272 632 b 360 540 350 632 360 608 l 360 268 b 310 182 360 204 342 182 z m 574 1090 l 404 1090 l 331 879 l 449 879 z m 371 1090 l 207 1090 l 151 879 l 267 879 z "},"ō":{"ha":618,"x_min":0,"x_max":0,"o":"m 308 -15 b 582 263 493 -15 582 69 l 582 542 b 308 824 582 732 488 824 b 36 542 136 824 36 733 l 36 263 b 308 -15 36 69 122 -15 z m 310 182 b 258 268 276 182 258 204 l 258 540 b 310 632 258 608 272 632 b 360 540 350 632 360 608 l 360 268 b 310 182 360 204 342 182 z m 163 890 l 456 890 l 456 1046 l 163 1046 z "},"ø":{"ha":618,"x_min":0,"x_max":0,"o":"m 282 -126 l 313 -15 b 582 263 493 -15 582 69 l 582 542 b 501 765 582 644 554 718 l 544 921 l 321 921 l 293 824 b 36 542 131 818 36 728 l 36 263 b 106 47 36 164 58 93 l 57 -126 z m 310 182 b 258 268 276 182 258 204 l 258 540 b 310 632 258 608 272 632 b 360 540 350 632 360 608 l 360 268 b 310 182 360 204 342 182 z "},"ǿ":{"ha":618,"x_min":0,"x_max":0,"o":"m 282 -126 l 313 -15 b 582 263 493 -15 582 69 l 582 542 b 501 765 582 644 554 718 l 544 921 l 321 921 l 293 824 b 36 542 131 818 36 728 l 36 263 b 106 47 36 164 58 93 l 57 -126 z m 310 182 b 258 268 276 182 258 204 l 258 540 b 310 632 258 608 272 632 b 360 540 350 632 360 608 l 360 268 b 310 182 360 204 342 182 z m 243 960 l 401 960 l 563 1171 l 353 1171 z "},"õ":{"ha":618,"x_min":0,"x_max":0,"o":"m 308 -15 b 582 263 493 -15 582 69 l 582 542 b 308 824 582 732 488 824 b 36 542 136 824 36 733 l 36 263 b 308 -15 36 69 122 -15 z m 310 182 b 258 268 276 182 258 204 l 258 540 b 310 632 258 608 272 632 b 360 540 350 632 360 608 l 360 268 b 310 182 360 204 342 182 z m 92 878 l 221 878 b 244 932 221 914 226 932 b 403 874 286 932 331 874 b 529 1094 494 874 529 924 l 399 1094 b 372 1046 399 1060 393 1046 b 218 1100 342 1046 290 1100 b 92 878 124 1100 92 1044 z "},"ŕ":{"ha":425,"x_min":0,"x_max":0,"o":"m 263 0 l 263 464 b 358 565 263 546 278 565 l 410 565 l 410 824 l 382 824 b 233 676 271 824 238 783 l 200 813 l 42 813 l 42 0 z m 158 869 l 317 869 l 478 1081 l 268 1081 z "},"ř":{"ha":425,"x_min":0,"x_max":0,"o":"m 263 0 l 263 464 b 358 565 263 546 278 565 l 410 565 l 410 824 l 382 824 b 233 676 271 824 238 783 l 200 813 l 42 813 l 42 0 z m 313 869 l 438 1108 l 289 1108 l 244 1007 l 204 1108 l 50 1108 l 174 869 z "},"ŗ":{"ha":425,"x_min":0,"x_max":0,"o":"m 263 0 l 263 464 b 358 565 263 546 278 565 l 410 565 l 410 824 l 382 824 b 233 676 271 824 238 783 l 200 813 l 42 813 l 42 0 z m 75 -386 b 253 -179 197 -386 253 -311 b 154 -50 253 -76 231 -50 b 57 -149 81 -50 57 -76 b 139 -243 57 -228 81 -243 l 149 -243 b 75 -296 142 -282 122 -296 z "},"ś":{"ha":582,"x_min":0,"x_max":0,"o":"m 292 -17 b 567 233 476 -17 567 86 l 567 246 b 367 499 567 407 458 461 b 243 592 300 526 243 546 l 243 597 b 294 651 243 631 257 651 b 343 592 331 651 343 631 l 343 542 l 554 542 l 554 603 b 292 825 554 736 481 825 b 25 589 107 825 25 724 l 25 582 b 214 344 25 425 125 378 b 346 238 283 318 346 299 l 346 235 b 294 174 346 197 332 174 b 240 228 256 174 240 189 l 240 297 l 17 297 l 17 214 b 292 -17 17 65 94 -17 z m 203 882 l 361 882 l 522 1093 l 313 1093 z "},"š":{"ha":582,"x_min":0,"x_max":0,"o":"m 292 -17 b 567 233 476 -17 567 86 l 567 246 b 367 499 567 407 458 461 b 243 592 300 526 243 546 l 243 597 b 294 651 243 631 257 651 b 343 592 331 651 343 631 l 343 542 l 554 542 l 554 603 b 292 825 554 736 481 825 b 25 589 107 825 25 724 l 25 582 b 214 344 25 425 125 378 b 346 238 283 318 346 299 l 346 235 b 294 174 346 197 332 174 b 240 228 256 174 240 189 l 240 297 l 17 297 l 17 214 b 292 -17 17 65 94 -17 z m 357 882 l 482 1121 l 333 1121 l 289 1019 l 249 1121 l 94 1121 l 218 882 z "},"ş":{"ha":582,"x_min":0,"x_max":0,"o":"m 301 -335 b 500 -185 425 -335 500 -281 b 368 -58 500 -97 451 -65 l 368 -10 b 567 233 501 15 567 108 l 567 246 b 367 499 567 407 458 461 b 243 592 300 526 243 546 l 243 597 b 294 651 243 631 257 651 b 343 592 331 651 343 631 l 343 542 l 554 542 l 554 603 b 292 825 554 736 481 825 b 25 589 107 825 25 724 l 25 582 b 214 344 25 425 125 378 b 346 238 283 318 346 299 l 346 235 b 294 174 346 197 332 174 b 240 228 256 174 240 189 l 240 297 l 17 297 l 17 214 b 231 -14 17 82 78 3 l 231 -151 l 306 -151 b 350 -181 335 -151 350 -161 b 306 -212 350 -200 336 -212 b 254 -179 276 -212 263 -206 l 88 -179 b 301 -335 110 -292 179 -335 z "},"ŝ":{"ha":582,"x_min":0,"x_max":0,"o":"m 292 -17 b 567 233 476 -17 567 86 l 567 246 b 367 499 567 407 458 461 b 243 592 300 526 243 546 l 243 597 b 294 651 243 631 257 651 b 343 592 331 651 343 631 l 343 542 l 554 542 l 554 603 b 292 825 554 736 481 825 b 25 589 107 825 25 724 l 25 582 b 214 344 25 425 125 378 b 346 238 283 318 346 299 l 346 235 b 294 174 346 197 332 174 b 240 228 256 174 240 189 l 240 297 l 17 297 l 17 214 b 292 -17 17 65 94 -17 z m 331 882 l 483 882 l 360 1121 l 221 1121 l 97 882 l 246 882 l 289 983 z "},"ș":{"ha":582,"x_min":0,"x_max":0,"o":"m 292 -17 b 567 233 476 -17 567 86 l 567 246 b 367 499 567 407 458 461 b 243 592 300 526 243 546 l 243 597 b 294 651 243 631 257 651 b 343 592 331 651 343 631 l 343 542 l 554 542 l 554 603 b 292 825 554 736 481 825 b 25 589 107 825 25 724 l 25 582 b 214 344 25 425 125 378 b 346 238 283 318 346 299 l 346 235 b 294 174 346 197 332 174 b 240 228 256 174 240 189 l 240 297 l 17 297 l 17 214 b 292 -17 17 65 94 -17 z m 222 -401 b 400 -194 344 -401 400 -326 b 301 -65 400 -92 378 -65 b 204 -164 228 -65 204 -92 b 286 -258 204 -243 228 -258 l 296 -258 b 222 -311 289 -297 269 -311 z "},"ŧ":{"ha":425,"x_min":0,"x_max":0,"o":"m 404 217 l 376 217 b 304 303 326 217 304 222 l 304 356 l 388 356 l 388 474 l 304 474 l 304 592 l 406 592 l 406 813 l 304 813 l 304 960 l 146 960 b 128 885 142 931 138 910 b 79 819 117 854 104 835 b 13 800 57 806 36 803 l 13 592 l 90 592 l 90 474 l 26 474 l 26 356 l 90 356 l 90 238 b 321 0 90 51 147 0 l 404 0 z "},"ť":{"ha":425,"x_min":0,"x_max":0,"o":"m 404 217 l 376 217 b 304 303 326 217 304 222 l 304 592 l 406 592 l 406 813 l 304 813 l 304 960 l 146 960 b 128 885 142 931 138 910 b 79 819 117 854 104 835 b 13 800 57 806 36 803 l 13 592 l 90 592 l 90 238 b 321 0 90 51 147 0 l 404 0 z m 343 892 l 475 892 l 596 1103 l 413 1103 z "},"ţ":{"ha":425,"x_min":0,"x_max":0,"o":"m 404 217 l 376 217 b 304 303 326 217 304 222 l 304 592 l 406 592 l 406 813 l 304 813 l 304 960 l 146 960 b 128 885 142 931 138 910 b 79 819 117 854 104 835 b 13 800 57 806 36 803 l 13 592 l 90 592 l 90 238 b 321 0 90 51 147 0 l 404 0 z m 188 -386 b 365 -179 310 -386 365 -311 b 267 -50 365 -76 343 -50 b 169 -149 193 -50 169 -76 b 251 -243 169 -228 193 -243 l 261 -243 b 188 -296 254 -282 235 -296 z "},"ú":{"ha":625,"x_min":0,"x_max":0,"o":"m 399 0 l 583 0 l 583 813 l 357 813 l 357 269 b 313 186 357 215 350 186 b 268 264 275 186 268 214 l 268 813 l 40 813 l 40 224 b 226 -12 40 60 99 -12 b 375 94 304 -12 353 25 z m 224 869 l 382 869 l 543 1081 l 333 1081 z "},"ŭ":{"ha":625,"x_min":0,"x_max":0,"o":"m 399 0 l 583 0 l 583 813 l 357 813 l 357 269 b 313 186 357 215 350 186 b 268 264 275 186 268 214 l 268 813 l 40 813 l 40 224 b 226 -12 40 60 99 -12 b 375 94 304 -12 353 25 z m 308 867 b 497 1075 440 867 497 928 l 356 1075 b 308 1003 356 1018 344 1003 b 261 1075 271 1003 261 1017 l 119 1075 b 308 867 119 929 169 867 z "},"û":{"ha":625,"x_min":0,"x_max":0,"o":"m 399 0 l 583 0 l 583 813 l 357 813 l 357 269 b 313 186 357 215 350 186 b 268 264 275 186 268 214 l 268 813 l 40 813 l 40 224 b 226 -12 40 60 99 -12 b 375 94 304 -12 353 25 z m 356 869 l 508 869 l 385 1108 l 246 1108 l 122 869 l 271 869 l 314 971 z "},"ü":{"ha":625,"x_min":0,"x_max":0,"o":"m 399 0 l 583 0 l 583 813 l 357 813 l 357 269 b 313 186 357 215 350 186 b 268 264 275 186 268 214 l 268 813 l 40 813 l 40 224 b 226 -12 40 60 99 -12 b 375 94 304 -12 353 25 z m 201 867 b 293 961 271 867 293 889 b 201 1063 293 1039 269 1063 b 113 961 136 1063 113 1039 b 201 867 113 886 131 867 z m 414 867 b 506 961 482 867 506 889 b 414 1063 506 1039 481 1063 b 325 961 346 1063 325 1039 b 414 867 325 886 342 867 z "},"ù":{"ha":625,"x_min":0,"x_max":0,"o":"m 399 0 l 583 0 l 583 813 l 357 813 l 357 269 b 313 186 357 215 350 186 b 268 264 275 186 268 214 l 268 813 l 40 813 l 40 224 b 226 -12 40 60 99 -12 b 375 94 304 -12 353 25 z m 240 869 l 386 869 l 299 1081 l 90 1081 z "},"ű":{"ha":625,"x_min":0,"x_max":0,"o":"m 399 0 l 583 0 l 583 813 l 357 813 l 357 269 b 313 186 357 215 350 186 b 268 264 275 186 268 214 l 268 813 l 40 813 l 40 224 b 226 -12 40 60 99 -12 b 375 94 304 -12 353 25 z m 574 1081 l 404 1081 l 331 869 l 449 869 z m 371 1081 l 207 1081 l 151 869 l 267 869 z "},"ū":{"ha":625,"x_min":0,"x_max":0,"o":"m 399 0 l 583 0 l 583 813 l 357 813 l 357 269 b 313 186 357 215 350 186 b 268 264 275 186 268 214 l 268 813 l 40 813 l 40 224 b 226 -12 40 60 99 -12 b 375 94 304 -12 353 25 z m 163 881 l 456 881 l 456 1036 l 163 1036 z "},"ų":{"ha":625,"x_min":0,"x_max":0,"o":"m 678 -108 l 507 -108 b 474 -156 506 -143 492 -156 b 447 -131 457 -156 447 -149 b 583 0 447 -111 456 -92 l 583 813 l 357 813 l 357 269 b 313 186 357 215 350 186 b 268 264 275 186 268 214 l 268 813 l 40 813 l 40 224 b 226 -12 40 60 99 -12 b 375 94 304 -12 353 25 l 393 24 b 288 -143 308 -39 288 -89 b 465 -289 288 -239 347 -289 b 678 -108 586 -289 660 -232 z "},"ů":{"ha":625,"x_min":0,"x_max":0,"o":"m 399 0 l 583 0 l 583 813 l 357 813 l 357 269 b 313 186 357 215 350 186 b 268 264 275 186 268 214 l 268 813 l 40 813 l 40 224 b 226 -12 40 60 99 -12 b 375 94 304 -12 353 25 z m 308 865 b 476 1014 414 865 476 921 b 308 1165 476 1110 408 1165 b 142 1013 214 1165 142 1114 b 308 865 142 917 207 865 z m 310 985 b 276 1015 285 985 276 997 b 310 1047 276 1033 285 1047 b 343 1015 333 1047 343 1033 b 310 985 343 997 333 985 z "},"ũ":{"ha":625,"x_min":0,"x_max":0,"o":"m 399 0 l 583 0 l 583 813 l 357 813 l 357 269 b 313 186 357 215 350 186 b 268 264 275 186 268 214 l 268 813 l 40 813 l 40 224 b 226 -12 40 60 99 -12 b 375 94 304 -12 353 25 z m 97 868 l 226 868 b 250 922 226 904 232 922 b 408 864 292 922 336 864 b 535 1085 500 864 535 914 l 404 1085 b 378 1036 404 1050 399 1036 b 224 1090 347 1036 296 1090 b 97 868 129 1090 97 1035 z "},"ẃ":{"ha":847,"x_min":0,"x_max":0,"o":"m 406 336 l 417 449 l 424 336 l 492 0 l 701 0 l 856 813 l 642 813 l 579 411 l 578 278 l 565 413 l 492 813 l 350 813 l 272 411 l 253 282 l 258 414 l 208 813 l -8 813 l 126 0 l 339 0 z m 335 869 l 493 869 l 654 1081 l 444 1081 z "},"ŵ":{"ha":847,"x_min":0,"x_max":0,"o":"m 406 336 l 417 449 l 424 336 l 492 0 l 701 0 l 856 813 l 642 813 l 579 411 l 578 278 l 565 413 l 492 813 l 350 813 l 272 411 l 253 282 l 258 414 l 208 813 l -8 813 l 126 0 l 339 0 z m 463 869 l 615 869 l 492 1108 l 353 1108 l 229 869 l 378 869 l 421 971 z "},"ẅ":{"ha":847,"x_min":0,"x_max":0,"o":"m 406 336 l 417 449 l 424 336 l 492 0 l 701 0 l 856 813 l 642 813 l 579 411 l 578 278 l 565 413 l 492 813 l 350 813 l 272 411 l 253 282 l 258 414 l 208 813 l -8 813 l 126 0 l 339 0 z m 313 867 b 404 961 382 867 404 889 b 313 1063 404 1039 381 1063 b 224 961 247 1063 224 1039 b 313 867 224 886 242 867 z m 525 867 b 617 961 593 867 617 889 b 525 1063 617 1039 592 1063 b 436 961 457 1063 436 1039 b 525 867 436 886 453 867 z "},"ẁ":{"ha":847,"x_min":0,"x_max":0,"o":"m 406 336 l 417 449 l 424 336 l 492 0 l 701 0 l 856 813 l 642 813 l 579 411 l 578 278 l 565 413 l 492 813 l 350 813 l 272 411 l 253 282 l 258 414 l 208 813 l -8 813 l 126 0 l 339 0 z m 351 869 l 497 869 l 410 1081 l 201 1081 z "},"ý":{"ha":607,"x_min":0,"x_max":0,"o":"m 138 -261 b 397 -47 311 -261 356 -219 l 604 813 l 385 813 l 319 492 l 307 315 l 296 492 l 228 813 l 3 813 l 207 60 l 197 10 b 107 -50 188 -37 168 -50 l 33 -50 l 33 -261 z m 211 868 l 369 868 l 531 1079 l 321 1079 z "},"ŷ":{"ha":607,"x_min":0,"x_max":0,"o":"m 138 -261 b 397 -47 311 -261 356 -219 l 604 813 l 385 813 l 319 492 l 307 315 l 296 492 l 228 813 l 3 813 l 207 60 l 197 10 b 107 -50 188 -37 168 -50 l 33 -50 l 33 -261 z m 347 868 l 500 868 l 376 1107 l 238 1107 l 114 868 l 263 868 l 306 969 z "},"ÿ":{"ha":607,"x_min":0,"x_max":0,"o":"m 138 -261 b 397 -47 311 -261 356 -219 l 604 813 l 385 813 l 319 492 l 307 315 l 296 492 l 228 813 l 3 813 l 207 60 l 197 10 b 107 -50 188 -37 168 -50 l 33 -50 l 33 -261 z m 197 865 b 289 960 267 865 289 888 b 197 1061 289 1038 265 1061 b 108 960 132 1061 108 1038 b 197 865 108 885 126 865 z m 410 865 b 501 960 478 865 501 888 b 410 1061 501 1038 476 1061 b 321 960 342 1061 321 1038 b 410 865 321 885 338 865 z "},"ỳ":{"ha":607,"x_min":0,"x_max":0,"o":"m 138 -261 b 397 -47 311 -261 356 -219 l 604 813 l 385 813 l 319 492 l 307 315 l 296 492 l 228 813 l 3 813 l 207 60 l 197 10 b 107 -50 188 -37 168 -50 l 33 -50 l 33 -261 z m 228 868 l 374 868 l 286 1079 l 78 1079 z "},"ĳ":{"ha":633,"x_min":0,"x_max":0,"o":"m 474 821 b 599 933 563 821 599 846 b 474 1046 599 1022 565 1046 b 350 933 383 1046 350 1022 b 474 821 350 843 381 821 z m 157 821 b 282 933 246 821 282 846 b 157 1046 282 1022 247 1046 b 32 933 65 1046 32 1022 b 157 821 32 843 63 821 z m 31 -261 l 360 -261 b 592 -51 526 -261 592 -219 l 592 808 b 474 783 571 793 533 783 b 357 807 414 783 378 792 l 357 -8 b 311 -61 357 -50 347 -61 l 31 -61 z m 40 0 l 274 0 l 274 808 b 157 783 254 793 217 783 b 40 807 97 783 60 792 z "},"ź":{"ha":539,"x_min":0,"x_max":0,"o":"m 508 0 l 510 199 l 293 199 l 507 628 l 507 813 l 38 813 l 38 618 l 260 618 l 29 175 l 29 0 z m 183 869 l 342 869 l 503 1081 l 293 1081 z "},"ž":{"ha":539,"x_min":0,"x_max":0,"o":"m 508 0 l 510 199 l 293 199 l 507 628 l 507 813 l 38 813 l 38 618 l 260 618 l 29 175 l 29 0 z m 353 869 l 478 1108 l 329 1108 l 285 1007 l 244 1108 l 90 1108 l 214 869 z "},"ż":{"ha":539,"x_min":0,"x_max":0,"o":"m 508 0 l 510 199 l 293 199 l 507 628 l 507 813 l 38 813 l 38 618 l 260 618 l 29 175 l 29 0 z m 281 867 b 393 981 365 867 393 886 b 281 1096 393 1076 364 1096 b 168 981 196 1096 168 1076 b 281 867 168 883 190 867 z "},"þ":{"ha":625,"x_min":0,"x_max":0,"o":"m 314 186 b 261 283 279 186 261 211 l 261 543 b 315 633 261 608 281 633 b 367 536 349 633 367 611 l 367 290 b 314 186 367 206 350 186 z m 392 -15 b 589 306 524 -15 589 74 l 589 531 b 397 824 589 746 517 824 b 263 731 328 824 286 793 l 263 1058 l 39 1058 l 39 -251 l 263 -251 l 263 71 b 392 -15 285 15 325 -15 z "},"ª":{"ha":458,"x_min":0,"x_max":0,"o":"m 228 561 b 201 590 210 561 201 572 l 201 644 b 208 675 201 660 204 669 b 232 688 214 681 222 683 b 265 699 246 692 257 694 l 265 601 b 228 561 265 579 250 561 z m 293 454 l 429 454 l 429 849 b 236 1014 429 953 363 1014 b 31 854 110 1014 36 954 l 31 793 l 207 793 l 207 846 b 238 885 207 875 217 885 b 265 856 258 885 265 878 l 265 819 b 193 768 265 788 246 779 b 71 728 140 757 99 747 b 19 622 39 707 19 675 l 19 576 b 158 444 19 488 68 444 b 279 500 211 444 253 464 z "},"º":{"ha":454,"x_min":0,"x_max":0,"o":"m 226 447 b 429 639 351 447 429 507 l 429 821 b 228 1014 429 950 347 1014 b 25 821 111 1014 25 951 l 25 639 b 226 447 25 507 97 447 z m 228 594 b 193 644 203 594 193 606 l 193 818 b 228 872 193 860 204 872 b 263 818 251 872 263 863 l 263 644 b 228 594 263 604 251 594 z "},"&":{"ha":801,"x_min":0,"x_max":0,"o":"m 658 -15 b 790 26 725 -15 763 4 l 790 204 b 697 171 767 183 739 171 b 665 176 686 171 676 172 b 788 571 743 282 788 422 l 788 597 l 599 597 l 599 578 b 529 311 599 474 571 381 b 490 383 517 333 503 357 b 442 503 472 426 456 467 b 638 813 574 588 638 671 l 638 817 b 410 1018 638 951 554 1018 b 183 776 275 1018 183 936 l 183 765 b 217 569 183 706 196 639 b 25 265 113 507 25 432 l 25 228 b 311 -15 25 63 128 -15 b 515 39 386 -15 454 4 b 658 -15 561 4 610 -15 z m 374 772 l 374 785 b 417 854 374 835 389 854 b 454 801 443 854 454 839 l 454 797 b 386 674 454 736 428 704 b 374 772 378 708 374 742 z m 332 174 b 246 258 278 174 246 206 l 246 281 b 278 396 246 335 257 369 b 321 296 292 363 306 329 b 386 183 340 256 363 218 b 332 174 368 176 350 174 z "},"´":{"ha":496,"x_min":0,"x_max":0,"o":"m 90 883 l 249 883 l 410 1094 l 200 1094 z "},"˘":{"ha":496,"x_min":0,"x_max":0,"o":"m 246 881 b 435 1089 378 881 435 942 l 293 1089 b 246 1017 293 1032 282 1017 b 199 1089 208 1017 199 1031 l 57 1089 b 246 881 57 943 107 881 z "},"ˇ":{"ha":496,"x_min":0,"x_max":0,"o":"m 317 883 l 442 1122 l 293 1122 l 249 1021 l 208 1122 l 54 1122 l 178 883 z "},"¸":{"ha":496,"x_min":0,"x_max":0,"o":"m 253 -319 b 451 -169 376 -319 451 -265 b 319 -43 451 -82 403 -50 l 319 21 l 182 21 l 182 -136 l 257 -136 b 301 -165 286 -136 301 -146 b 257 -197 301 -185 288 -197 b 206 -164 228 -197 214 -190 l 39 -164 b 253 -319 61 -276 131 -319 z "},"ˆ":{"ha":496,"x_min":0,"x_max":0,"o":"m 288 883 l 440 883 l 317 1122 l 178 1122 l 54 883 l 203 883 l 246 985 z "},"¨":{"ha":496,"x_min":0,"x_max":0,"o":"m 142 881 b 233 975 211 881 233 903 b 142 1076 233 1053 210 1076 b 53 975 76 1076 53 1053 b 142 881 53 900 71 881 z m 354 881 b 446 975 422 881 446 903 b 354 1076 446 1053 421 1076 b 265 975 286 1076 265 1053 b 354 881 265 900 282 881 z "},"˙":{"ha":496,"x_min":0,"x_max":0,"o":"m 247 881 b 360 994 332 881 360 900 b 247 1110 360 1090 331 1110 b 135 994 163 1110 135 1090 b 247 881 135 897 157 881 z "},"`":{"ha":496,"x_min":0,"x_max":0,"o":"m 215 883 l 361 883 l 274 1094 l 65 1094 z "},"˝":{"ha":496,"x_min":0,"x_max":0,"o":"m 483 1094 l 314 1094 l 240 883 l 358 883 z m 281 1094 l 117 1094 l 61 883 l 176 883 z "},"¯":{"ha":496,"x_min":0,"x_max":0,"o":"m 101 894 l 394 894 l 394 1050 l 101 1050 z "},"˛":{"ha":496,"x_min":0,"x_max":0,"o":"m 236 -289 b 449 -108 357 -289 431 -232 l 278 -108 b 244 -156 276 -143 263 -156 b 218 -131 228 -156 218 -149 b 354 0 218 -111 226 -92 l 222 63 b 58 -143 88 -19 58 -78 b 236 -289 58 -239 118 -289 z "},"˚":{"ha":496,"x_min":0,"x_max":0,"o":"m 249 879 b 417 1028 354 879 417 935 b 249 1179 417 1124 349 1179 b 82 1026 154 1179 82 1128 b 249 879 82 931 147 879 z m 250 999 b 217 1029 225 999 217 1011 b 250 1061 217 1047 225 1061 b 283 1029 274 1061 283 1047 b 250 999 283 1011 274 999 z "},"˜":{"ha":496,"x_min":0,"x_max":0,"o":"m 35 882 l 164 882 b 188 936 164 918 169 936 b 346 878 229 936 274 878 b 472 1099 438 878 472 928 l 342 1099 b 315 1050 342 1064 336 1050 b 161 1104 285 1050 233 1104 b 35 882 67 1104 35 1049 z "},".":{"ha":347,"x_min":0,"x_max":0,"o":"m 174 -11 b 301 129 271 -11 301 13 b 174 269 301 247 271 269 b 46 129 76 269 46 247 b 174 -11 46 11 72 -11 z "},",":{"ha":349,"x_min":0,"x_max":0,"o":"m 67 -185 b 303 90 228 -185 303 -89 b 175 261 303 233 274 261 b 46 125 78 261 46 236 b 150 -6 46 13 76 -6 b 169 -4 157 -6 163 -6 b 67 -81 161 -56 132 -79 z "},":":{"ha":347,"x_min":0,"x_max":0,"o":"m 174 539 b 301 679 271 539 301 563 b 174 819 301 797 271 819 b 46 679 76 819 46 797 b 174 539 46 561 72 539 z m 174 -11 b 301 129 271 -11 301 13 b 174 269 301 247 271 269 b 46 129 76 269 46 247 b 174 -11 46 11 72 -11 z "},";":{"ha":349,"x_min":0,"x_max":0,"o":"m 174 539 b 301 679 271 539 301 563 b 174 819 301 797 271 819 b 46 679 76 819 46 797 b 174 539 46 561 72 539 z m 67 -185 b 303 90 228 -185 303 -89 b 175 261 303 233 274 261 b 46 125 78 261 46 236 b 150 -6 46 13 76 -6 b 169 -4 157 -6 163 -6 b 67 -81 161 -56 132 -79 z "},"…":{"ha":921,"x_min":0,"x_max":0,"o":"m 165 -11 b 283 129 257 -11 283 13 b 165 269 283 247 256 269 b 46 129 75 269 46 247 b 165 -11 46 11 72 -11 z m 463 -11 b 582 129 554 -11 582 13 b 463 269 582 247 553 269 b 343 129 372 269 343 247 b 463 -11 343 11 369 -11 z m 757 -11 b 875 129 849 -11 875 13 b 757 269 875 247 847 269 b 638 129 667 269 638 247 b 757 -11 638 11 664 -11 z "},"!":{"ha":347,"x_min":0,"x_max":0,"o":"m 54 1000 l 54 707 b 93 289 54 508 81 308 b 175 297 108 294 140 297 b 257 289 210 297 239 294 b 296 707 268 308 296 511 l 296 1000 z m 174 -11 b 301 122 271 -11 301 14 b 174 256 301 232 271 256 b 46 122 76 256 46 232 b 174 -11 46 13 72 -11 z "},"¡":{"ha":347,"x_min":0,"x_max":0,"o":"m 175 829 b 47 697 78 829 47 806 b 175 564 47 588 78 564 b 303 697 272 564 303 588 b 175 829 303 806 276 829 z m 294 -182 l 294 111 b 256 529 294 310 268 511 b 174 522 240 525 208 522 b 92 529 139 522 110 525 b 53 111 81 511 53 308 l 53 -182 z "},"?":{"ha":626,"x_min":0,"x_max":0,"o":"m 403 267 l 406 339 b 492 435 407 375 429 392 b 601 636 544 472 601 521 l 601 790 b 317 1015 601 922 515 1015 b 26 778 122 1015 26 928 l 26 592 l 258 592 l 258 761 b 315 822 258 799 271 822 b 368 774 351 822 368 807 l 368 628 b 294 543 368 590 333 568 b 188 365 215 492 188 440 b 192 267 188 333 189 300 b 299 283 208 275 239 283 b 403 267 357 283 385 275 z m 299 -11 b 428 114 397 -11 428 13 b 299 240 428 218 397 240 b 169 114 200 240 169 218 b 299 -11 169 11 196 -11 z "},"¿":{"ha":626,"x_min":0,"x_max":0,"o":"m 225 550 l 222 478 b 136 382 221 442 199 425 b 26 181 83 344 26 296 l 26 26 b 311 -199 26 -106 113 -199 b 601 39 506 -199 601 -111 l 601 225 l 369 225 l 369 56 b 313 -6 369 18 357 -6 b 260 43 276 -6 260 10 l 260 189 b 333 274 260 226 294 249 b 440 451 413 325 440 376 b 436 550 440 483 439 517 b 329 533 419 542 389 533 b 225 550 271 533 243 542 z m 329 828 b 200 703 231 828 200 804 b 329 576 200 599 231 576 b 458 703 428 576 458 599 b 329 828 458 806 432 828 z "},"‽":{"ha":676,"x_min":0,"x_max":0,"o":"m 419 274 l 425 335 b 651 643 438 461 651 450 l 651 771 b 336 1015 651 910 563 1015 b 25 744 115 1015 25 901 l 25 597 l 222 597 l 222 739 b 260 832 222 782 235 814 l 260 672 b 267 329 260 504 264 383 b 274 274 268 301 269 285 b 347 283 290 281 313 283 b 419 274 381 283 401 281 z m 419 672 l 419 836 b 454 765 444 822 454 799 l 454 649 b 418 578 454 608 438 596 b 419 672 419 610 419 642 z m 347 -11 b 478 114 447 -11 478 13 b 347 240 478 218 447 240 b 219 114 249 240 219 218 b 347 -11 219 11 244 -11 z "},"⸘":{"ha":676,"x_min":0,"x_max":0,"o":"m 331 826 b 201 701 232 826 201 804 b 331 576 201 599 232 576 b 460 701 429 576 460 599 b 331 826 460 804 433 826 z m 343 -200 b 653 71 564 -200 653 -86 l 653 219 l 457 219 l 457 76 b 418 -18 457 33 444 1 l 418 143 b 413 465 418 301 414 406 b 406 542 410 506 408 531 b 331 532 389 536 367 532 b 258 542 297 532 278 536 l 254 482 b 26 172 240 356 26 367 l 26 46 b 343 -200 26 -94 115 -200 z m 225 51 l 225 168 b 260 238 225 207 240 221 b 258 144 260 206 258 175 l 258 -21 b 225 51 235 -7 225 17 z "},"‘":{"ha":317,"x_min":0,"x_max":0,"o":"m 160 607 b 272 732 246 607 272 631 b 181 851 272 836 246 851 b 167 850 176 851 171 851 b 256 918 174 896 199 917 l 256 1014 b 46 764 113 1014 46 926 b 160 607 46 632 72 607 z "},"’":{"ha":317,"x_min":0,"x_max":0,"o":"m 61 603 b 271 853 204 603 271 690 b 157 1010 271 985 244 1010 b 44 885 71 1010 44 986 b 136 767 44 782 71 767 b 150 768 140 767 146 767 b 61 700 144 722 119 701 z "},"“":{"ha":604,"x_min":0,"x_max":0,"o":"m 160 607 b 272 732 246 607 272 631 b 181 850 272 835 246 850 b 167 849 176 850 171 850 b 256 917 172 894 197 915 l 256 1014 b 46 764 113 1014 46 926 b 160 607 46 632 72 607 z m 449 607 b 561 732 533 607 561 631 b 468 850 561 835 533 850 b 454 849 464 850 458 850 b 543 917 461 894 486 915 l 543 1014 b 335 764 400 1014 335 926 b 449 607 335 632 361 607 z "},"”":{"ha":604,"x_min":0,"x_max":0,"o":"m 350 603 b 558 853 493 603 558 690 b 444 1010 558 985 532 1010 b 332 885 360 1010 332 986 b 425 767 332 782 360 767 b 439 768 429 767 435 767 b 350 700 432 722 407 701 z m 61 603 b 271 853 204 603 271 690 b 157 1010 271 985 244 1010 b 44 885 71 1010 44 986 b 136 767 44 782 71 767 b 150 768 140 767 146 767 b 61 700 144 722 119 701 z "},"‚":{"ha":317,"x_min":0,"x_max":0,"o":"m 61 -171 b 271 81 204 -171 271 -83 b 157 238 271 213 244 238 b 44 113 71 238 44 214 b 136 -7 44 8 71 -7 b 150 -6 140 -7 146 -7 b 61 -74 143 -51 118 -72 z "},"„":{"ha":604,"x_min":0,"x_max":0,"o":"m 350 -171 b 558 81 493 -171 558 -83 b 444 238 558 213 532 238 b 332 113 360 238 332 214 b 425 -7 332 8 360 -7 b 439 -6 429 -7 435 -7 b 350 -74 431 -51 407 -72 z m 61 -171 b 271 81 204 -171 271 -83 b 157 238 271 213 244 238 b 44 113 71 238 44 214 b 136 -7 44 8 71 -7 b 150 -6 140 -7 146 -7 b 61 -74 143 -51 118 -72 z "},"‛":{"ha":317,"x_min":0,"x_max":0,"o":"m 256 700 b 167 768 197 701 172 722 b 181 767 171 767 176 767 b 272 885 246 767 272 782 b 160 1010 272 986 246 1010 b 46 853 72 1010 46 985 b 256 603 46 690 113 603 z "},"‟":{"ha":604,"x_min":0,"x_max":0,"o":"m 256 700 b 167 768 197 701 172 722 b 181 767 171 767 176 767 b 272 885 246 767 272 782 b 160 1010 272 986 246 1010 b 46 853 72 1010 46 985 b 256 603 46 690 113 603 z m 543 700 b 454 768 486 701 461 722 b 468 767 458 767 464 767 b 561 885 533 767 561 782 b 449 1010 561 986 533 1010 b 335 853 361 1010 335 985 b 543 603 335 690 400 603 z "},"‹":{"ha":433,"x_min":0,"x_max":0,"o":"m 415 151 l 233 422 l 401 688 l 196 688 l 35 421 l 35 408 l 199 151 z "},"›":{"ha":433,"x_min":0,"x_max":0,"o":"m 235 151 l 400 408 l 400 421 l 239 688 l 32 688 l 201 422 l 19 151 z "},"«":{"ha":701,"x_min":0,"x_max":0,"o":"m 396 151 l 221 414 l 396 688 l 204 688 l 35 418 l 35 406 l 200 151 z m 672 151 l 490 424 l 660 688 l 472 688 l 308 428 l 308 407 l 476 151 z "},"»":{"ha":701,"x_min":0,"x_max":0,"o":"m 496 151 l 661 406 l 661 418 l 490 688 l 300 688 l 476 413 l 300 151 z m 218 151 l 388 407 l 388 428 l 222 688 l 35 688 l 206 422 l 24 151 z "},"/":{"ha":458,"x_min":0,"x_max":0,"o":"m 244 0 l 460 1000 l 214 1000 l -3 0 z "},"\\":{"ha":458,"x_min":0,"x_max":0,"o":"m 6 1000 l 211 0 l 453 0 l 247 1000 z "},"|":{"ha":331,"x_min":0,"x_max":0,"o":"m 278 -69 l 278 1061 l 53 1061 l 53 -69 z "},"‖":{"ha":593,"x_min":0,"x_max":0,"o":"m 264 -53 l 264 1061 l 53 1061 l 53 -53 z m 540 -53 l 540 1061 l 329 1061 l 329 -53 z "},"¦":{"ha":331,"x_min":0,"x_max":0,"o":"m 53 546 l 278 546 l 278 1061 l 53 1061 z m 53 474 l 53 -69 l 278 -69 l 278 474 z "},"•":{"ha":479,"x_min":0,"x_max":0,"o":"m 239 253 b 393 414 347 253 393 294 b 239 574 393 536 349 574 b 86 414 131 574 86 533 b 239 253 86 293 126 253 z "},"·":{"ha":347,"x_min":0,"x_max":0,"o":"m 174 275 b 301 414 271 275 301 299 b 174 554 301 533 271 554 b 46 414 76 554 46 533 b 174 275 46 296 72 275 z "},"-":{"ha":497,"x_min":0,"x_max":0,"o":"m 460 525 l 38 525 l 38 310 l 460 310 z "},"­":{"ha":497,"x_min":0,"x_max":0,"o":"m 460 525 l 38 525 l 38 310 l 460 310 z "},"–":{"ha":465,"x_min":0,"x_max":0,"o":"m 428 525 l 38 525 l 38 310 l 428 310 z "},"—":{"ha":646,"x_min":0,"x_max":0,"o":"m 608 525 l 38 525 l 38 310 l 608 310 z "},"‒":{"ha":667,"x_min":0,"x_max":0,"o":"m 629 525 l 38 525 l 38 310 l 629 310 z "},"―":{"ha":840,"x_min":0,"x_max":0,"o":"m 803 525 l 38 525 l 38 310 l 803 310 z "},"(":{"ha":414,"x_min":0,"x_max":0,"o":"m 33 167 b 403 -211 33 -111 160 -211 l 403 8 b 271 181 306 8 271 53 l 271 625 b 403 804 271 757 306 804 l 403 1018 b 33 632 169 1018 33 907 z "},")":{"ha":414,"x_min":0,"x_max":0,"o":"m 11 -211 b 381 167 254 -211 381 -111 l 381 632 b 11 1018 381 907 244 1018 l 11 804 b 143 625 108 804 143 756 l 143 181 b 11 8 143 53 108 8 z "},"[":{"ha":410,"x_min":0,"x_max":0,"o":"m 394 -21 l 269 -21 l 269 825 l 394 825 l 394 1015 l 43 1015 l 43 -211 l 394 -211 z "},"]":{"ha":410,"x_min":0,"x_max":0,"o":"m 367 -211 l 367 1015 l 15 1015 l 15 825 l 142 825 l 142 -21 l 15 -21 l 15 -211 z "},"{":{"ha":450,"x_min":0,"x_max":0,"o":"m 438 -211 l 438 -32 l 385 -32 b 319 18 343 -32 319 -22 b 390 261 319 82 390 167 b 249 390 390 343 353 389 l 249 415 b 390 543 353 417 390 461 b 314 786 390 639 314 724 b 383 836 314 826 340 836 l 438 836 l 438 1015 l 261 1015 b 83 851 131 1015 83 947 b 163 578 83 739 163 646 b 88 508 163 526 140 508 l 29 508 l 29 296 l 94 296 b 169 228 147 296 169 278 b 83 -47 169 160 83 65 b 263 -211 83 -143 132 -211 z "},"}":{"ha":450,"x_min":0,"x_max":0,"o":"m 13 -211 l 188 -211 b 367 -47 318 -211 367 -143 b 281 228 367 65 281 160 b 356 296 281 278 303 296 l 421 296 l 421 508 l 363 508 b 288 578 310 508 288 526 b 367 851 288 646 367 739 b 189 1015 367 947 319 1015 l 13 1015 l 13 836 l 67 836 b 136 786 110 836 136 826 b 60 543 136 724 60 639 b 201 415 60 461 97 417 l 201 390 b 60 261 97 389 60 343 b 131 18 60 167 131 82 b 65 -32 131 -22 107 -32 l 13 -32 z "},"〈":{"ha":417,"x_min":0,"x_max":0,"o":"m 428 -211 l 239 415 l 426 1015 l 199 1015 l 15 413 l 194 -211 z "},"〉":{"ha":417,"x_min":0,"x_max":0,"o":"m 222 -211 l 401 413 l 219 1015 l -10 1015 l 178 415 l -12 -211 z "},"*":{"ha":554,"x_min":0,"x_max":0,"o":"m 438 638 l 528 793 l 353 833 l 528 875 l 436 1031 l 317 903 l 368 1069 l 186 1069 l 239 900 l 117 1029 l 28 872 l 201 833 l 28 792 l 118 636 l 239 765 l 186 596 l 368 596 l 317 765 z "},"†":{"ha":664,"x_min":0,"x_max":0,"o":"m 626 578 l 626 806 l 446 806 l 446 1122 l 221 1122 l 221 806 l 38 806 l 38 578 l 221 578 l 221 -122 l 446 -122 l 446 578 z "},"‡":{"ha":664,"x_min":0,"x_max":0,"o":"m 626 194 l 626 417 l 446 417 l 446 599 l 626 599 l 626 819 l 446 819 l 446 1122 l 221 1122 l 221 819 l 38 819 l 38 599 l 221 599 l 221 417 l 38 417 l 38 194 l 221 194 l 221 -122 l 446 -122 l 446 194 z "},"§":{"ha":742,"x_min":0,"x_max":0,"o":"m 444 411 b 242 546 343 464 242 500 l 242 557 b 276 599 242 578 251 593 b 310 581 288 592 299 586 b 507 446 408 529 507 496 l 507 435 b 476 393 507 411 497 397 b 444 411 465 400 456 406 z m 374 -86 b 649 136 560 -86 649 -3 l 649 167 b 572 325 649 232 617 283 l 581 325 b 726 469 665 325 726 379 l 726 488 b 528 707 726 597 626 660 b 329 838 428 756 329 788 l 329 851 b 371 894 329 881 342 894 b 426 842 406 894 422 876 l 426 807 l 646 807 l 646 847 b 375 1063 632 983 556 1063 b 113 847 206 1063 113 985 l 113 821 b 179 669 113 757 139 708 l 167 669 b 18 517 79 669 18 611 l 18 497 b 224 278 18 388 121 325 b 429 150 326 231 429 199 l 429 132 b 383 89 429 100 415 89 b 322 143 350 89 332 104 l 322 183 l 97 183 l 97 139 b 374 -86 111 -10 199 -86 z "},"¶":{"ha":860,"x_min":0,"x_max":0,"o":"m 340 578 b 250 692 286 578 250 610 b 338 810 250 779 283 810 l 358 810 l 358 578 z m 557 0 l 557 810 l 615 810 l 615 0 l 814 0 l 814 1000 l 332 1000 b 24 692 125 1000 24 888 b 335 379 24 494 126 378 l 358 379 l 358 0 z "},"^":{"ha":596,"x_min":0,"x_max":0,"o":"m 363 615 l 549 615 l 381 996 l 213 996 l 49 615 l 232 615 l 297 801 z "},"~":{"ha":557,"x_min":0,"x_max":0,"o":"m 60 728 l 190 728 b 214 782 190 764 194 782 b 372 724 254 782 299 724 b 499 944 463 724 499 774 l 368 944 b 342 896 368 910 361 896 b 188 950 310 896 260 950 b 60 728 92 950 60 894 z "},"_":{"ha":631,"x_min":0,"x_max":0,"o":"m 607 -74 l 24 -74 l 24 -256 l 607 -256 z "},"'":{"ha":264,"x_min":0,"x_max":0,"o":"m 58 660 l 204 660 b 232 975 215 713 232 850 l 232 1000 l 33 1000 l 33 975 b 58 660 33 850 47 711 z "},"\"":{"ha":515,"x_min":0,"x_max":0,"o":"m 58 660 l 204 660 b 232 975 215 713 232 850 l 232 1000 l 33 1000 l 33 975 b 58 660 33 850 47 711 z m 313 660 l 457 660 b 485 975 468 713 485 850 l 485 1000 l 286 1000 l 286 975 b 313 660 286 850 300 711 z "},"‴":{"ha":769,"x_min":0,"x_max":0,"o":"m 33 1000 l 33 975 b 58 660 33 850 47 711 l 204 660 b 232 975 215 713 232 850 l 232 1000 z m 286 1000 l 286 975 b 313 660 286 850 300 711 l 457 660 b 485 975 468 713 485 850 l 485 1000 z m 540 1000 l 540 975 b 565 660 540 850 554 711 l 711 660 b 739 975 722 713 739 850 l 739 1000 z "},"@":{"ha":794,"x_min":0,"x_max":0,"o":"m 403 -129 b 729 56 563 -129 669 -68 l 557 56 b 404 -6 526 15 492 -6 b 160 260 243 -6 160 89 l 160 626 b 403 889 160 807 243 889 b 639 649 581 889 639 806 l 639 342 b 604 207 639 226 628 207 b 581 283 583 207 581 224 l 581 785 l 476 785 l 450 738 b 356 793 438 765 401 793 b 213 613 275 793 213 747 l 213 267 b 350 85 213 138 264 85 b 460 149 411 85 444 118 b 594 85 482 108 524 85 b 771 331 722 85 771 161 l 771 649 b 404 1011 771 876 642 1011 b 28 638 185 1011 28 885 l 28 246 b 403 -129 28 -8 172 -129 z m 397 211 b 361 282 368 211 361 232 l 361 596 b 397 668 361 646 368 668 b 432 596 425 668 432 646 l 432 282 b 397 211 432 232 425 211 z "},"©":{"ha":849,"x_min":0,"x_max":0,"o":"m 428 -17 b 817 364 657 -17 817 133 l 817 632 b 422 1011 817 867 653 1011 b 31 622 199 1011 31 861 l 31 361 b 428 -17 31 113 192 -17 z m 428 131 b 185 369 271 131 185 211 l 185 614 b 422 864 185 771 278 864 b 664 625 581 864 664 776 l 664 371 b 428 131 664 214 574 131 z m 426 169 b 625 363 549 169 619 239 l 625 451 l 461 451 l 461 372 b 426 319 458 328 451 319 b 394 381 401 319 394 332 l 394 615 b 428 682 394 667 404 682 b 461 631 454 682 458 672 l 461 553 l 625 553 l 625 632 b 426 826 618 760 557 826 b 228 614 303 826 228 754 l 228 371 b 426 169 228 239 301 169 z "},"®":{"ha":553,"x_min":0,"x_max":0,"o":"m 279 524 b 506 749 408 524 506 603 l 506 778 b 276 1008 506 925 410 1008 b 46 775 142 1008 46 924 l 46 749 b 279 524 46 596 142 524 z m 279 607 b 132 754 181 607 132 649 l 132 769 b 276 931 132 875 182 931 b 422 772 371 931 422 878 l 422 754 b 279 607 422 649 375 607 z m 272 828 b 308 803 299 828 308 822 b 272 776 308 782 299 776 l 261 776 l 261 828 z m 269 714 b 299 681 293 714 299 708 l 299 657 b 304 642 299 651 300 644 l 382 642 b 378 656 379 644 378 650 l 378 685 b 350 747 378 717 369 736 b 388 808 375 758 388 779 b 286 893 388 867 357 893 l 182 893 l 182 642 l 261 642 l 261 714 z "},"℗":{"ha":849,"x_min":0,"x_max":0,"o":"m 428 -17 b 815 364 657 -17 815 133 l 815 632 b 422 1011 815 867 653 1011 b 33 622 199 1011 33 861 l 33 361 b 428 -17 33 113 192 -17 z m 428 131 b 186 369 271 131 186 211 l 186 614 b 422 864 186 771 278 864 b 663 625 581 864 663 776 l 663 371 b 428 131 663 214 574 131 z m 451 353 b 613 506 563 351 613 400 l 613 663 b 443 806 613 744 561 806 l 267 806 l 267 188 l 411 188 l 411 353 z m 429 683 b 467 647 457 683 467 671 l 467 514 b 431 479 467 492 456 479 l 411 479 l 411 683 z "},"™":{"ha":667,"x_min":0,"x_max":0,"o":"m 265 885 l 265 1000 l 21 1000 l 21 885 l 83 885 l 83 578 l 203 578 l 203 885 z m 454 668 l 468 668 l 517 767 l 517 578 l 625 578 l 625 1000 l 521 1000 l 461 850 l 400 1000 l 296 1000 l 296 578 l 403 578 l 403 771 z "},"℠":{"ha":692,"x_min":0,"x_max":0,"o":"m 479 668 l 493 668 l 542 767 l 542 578 l 650 578 l 650 1000 l 546 1000 l 486 850 l 425 1000 l 321 1000 l 321 578 l 428 578 l 428 771 z m 156 568 b 286 682 240 568 286 608 l 286 724 b 192 840 286 796 239 821 b 139 874 156 857 139 858 l 139 906 b 156 925 139 918 146 925 b 174 901 169 925 174 917 l 174 863 l 283 863 l 283 900 b 157 1011 283 975 240 1011 b 26 901 67 1011 26 971 l 26 868 b 118 760 26 800 72 779 b 174 724 151 746 174 740 l 174 683 b 157 664 174 669 168 664 b 136 689 143 664 136 669 l 136 736 l 22 736 l 22 686 b 156 568 22 610 58 568 z "},"€":{"ha":704,"x_min":0,"x_max":0,"o":"m 674 274 l 674 340 l 431 340 l 431 289 b 376 196 429 224 418 196 b 324 303 332 196 324 224 l 324 381 l 507 381 l 536 492 l 324 492 l 324 528 l 549 528 l 578 639 l 324 639 l 324 704 b 376 813 324 782 333 813 b 431 722 419 813 431 788 l 431 682 l 672 682 l 672 743 b 378 1015 672 932 564 1015 b 86 722 200 1015 86 929 l 86 639 l 18 639 l 18 528 l 86 528 l 86 492 l 18 492 l 18 381 l 86 381 l 86 285 b 375 -15 86 74 179 -15 b 674 274 564 -15 669 61 z "},"$":{"ha":607,"x_min":0,"x_max":0,"o":"m 410 -136 l 410 -6 b 579 229 517 22 579 99 l 579 361 b 383 592 579 508 483 551 b 261 679 299 632 261 642 l 261 794 b 301 840 261 821 271 840 b 347 781 336 840 347 824 l 347 656 l 571 656 l 571 794 b 414 1007 571 904 514 978 l 414 1144 l 199 1144 l 199 1007 b 32 788 94 975 32 894 l 32 658 b 229 431 33 515 126 472 b 350 343 307 397 350 389 l 350 222 b 308 175 350 189 339 175 b 258 238 267 175 258 200 l 258 376 l 28 376 l 28 238 b 193 -6 28 101 79 22 l 193 -136 z "},"¢":{"ha":626,"x_min":0,"x_max":0,"o":"m 594 249 l 594 378 l 365 378 l 365 256 b 313 178 365 203 349 178 b 257 265 276 178 257 206 l 257 543 b 314 636 257 607 272 636 b 365 561 353 636 365 613 l 365 451 l 594 451 l 594 564 b 424 813 594 703 531 783 l 424 943 l 207 943 l 207 813 b 32 546 100 779 32 692 l 32 260 b 206 -6 32 110 93 25 l 206 -142 l 422 -142 l 422 -4 b 594 249 529 25 594 104 z "},"£":{"ha":696,"x_min":0,"x_max":0,"o":"m 485 -15 b 674 218 615 -15 674 31 l 674 311 l 469 311 l 469 236 b 421 158 469 179 458 158 b 365 174 401 158 383 164 b 376 271 372 203 376 236 b 367 386 376 311 372 349 l 489 386 l 489 531 l 339 531 b 303 749 321 608 303 678 b 350 819 303 803 318 819 b 399 744 385 819 397 803 l 399 682 l 615 682 l 615 754 b 349 1015 606 918 536 1015 b 89 772 165 1015 89 917 b 153 531 90 672 121 600 l 63 531 l 63 386 l 210 386 b 253 250 233 344 253 301 l 253 240 b 160 263 225 253 194 263 b 8 121 65 263 8 210 b 165 -15 8 33 57 -15 b 306 50 221 -15 269 8 b 485 -15 356 15 414 -15 z m 163 106 b 138 126 147 106 138 113 b 160 147 138 139 146 147 b 213 121 175 147 192 138 b 163 106 200 111 182 106 z "},"ƒ":{"ha":461,"x_min":0,"x_max":0,"o":"m 339 -35 l 339 332 l 443 332 l 443 539 l 339 539 l 339 789 b 386 842 339 831 350 842 l 443 842 l 443 1033 l 350 1033 b 118 813 183 1033 118 975 l 118 539 l 18 539 l 18 332 l 118 332 l 118 -11 b 71 -64 118 -53 107 -64 l 18 -64 l 18 -256 l 107 -256 b 339 -35 274 -256 339 -197 z "},"¥":{"ha":604,"x_min":0,"x_max":0,"o":"m 536 199 l 536 349 l 418 349 l 418 396 l 536 396 l 536 547 l 436 547 l 611 1000 l 379 1000 l 301 796 l 226 1000 l -7 1000 l 163 547 l 69 547 l 69 396 l 182 396 l 182 349 l 69 349 l 69 199 l 182 199 l 182 0 l 418 0 l 418 199 z "},"₡":{"ha":731,"x_min":0,"x_max":0,"o":"m 278 -158 l 392 -158 l 421 -14 b 701 307 582 4 699 101 l 701 440 l 458 440 l 458 317 b 364 196 457 232 429 196 b 269 332 293 196 269 233 l 269 665 b 364 806 269 763 294 806 b 458 685 438 806 458 767 l 458 581 l 700 581 l 700 706 b 575 960 700 826 654 911 l 607 1136 l 496 1136 l 469 1001 b 428 1007 456 1004 443 1006 l 453 1136 l 340 1136 l 317 1008 b 35 681 144 993 35 886 l 35 319 b 163 35 35 182 81 88 l 125 -158 l 238 -158 l 268 -7 b 307 -14 281 -10 293 -12 z "},"₢":{"ha":725,"x_min":0,"x_max":0,"o":"m 707 275 l 707 372 l 506 372 l 506 274 b 458 174 506 219 492 189 l 458 346 b 526 419 458 410 461 419 l 626 419 l 626 611 l 582 611 b 446 510 493 611 458 579 l 418 610 l 288 610 l 288 183 b 236 335 250 208 236 258 l 236 650 b 372 824 236 774 279 824 b 493 717 457 824 493 775 l 493 656 l 703 656 l 703 725 b 375 1006 703 906 581 1006 b 35 660 158 1006 35 881 l 35 328 b 378 -17 35 108 132 -17 b 707 275 588 -17 707 89 z "},"₣":{"ha":533,"x_min":0,"x_max":0,"o":"m 494 172 l 494 346 l 269 346 l 269 418 l 494 418 l 494 593 l 269 593 l 269 792 l 503 792 l 503 1000 l 46 1000 l 46 0 l 269 0 l 269 172 z "},"₤":{"ha":704,"x_min":0,"x_max":0,"o":"m 494 -15 b 683 218 625 -15 683 31 l 683 304 l 478 304 l 478 236 b 429 158 478 179 467 158 b 372 175 410 158 390 165 b 382 271 378 204 382 236 b 376 360 382 301 381 331 l 492 360 l 492 468 l 360 468 b 350 513 357 483 353 497 l 492 513 l 492 621 l 326 621 b 313 749 318 664 313 707 b 360 819 313 803 328 819 b 408 744 394 819 407 803 l 408 682 l 625 682 l 625 754 b 358 1015 615 918 546 1015 b 96 764 175 1015 96 918 b 117 621 96 710 104 664 l 46 621 l 46 513 l 161 513 b 185 468 169 497 178 482 l 46 468 l 46 360 l 238 360 b 258 251 250 325 258 290 l 258 243 b 169 263 232 254 203 263 b 14 119 74 263 14 208 b 175 -15 14 31 67 -15 b 314 50 231 -15 278 8 b 494 -15 364 15 424 -15 z m 168 103 b 142 125 151 103 142 110 b 165 146 142 138 151 146 b 221 121 181 146 199 136 b 168 103 207 108 189 103 z "},"₦":{"ha":868,"x_min":0,"x_max":0,"o":"m 538 0 l 750 0 l 750 346 l 860 346 l 860 476 l 750 476 l 750 526 l 860 526 l 860 657 l 750 657 l 750 1000 l 539 1000 l 539 508 l 331 1000 l 114 1000 l 114 657 l 10 657 l 10 526 l 114 526 l 114 476 l 10 476 l 10 346 l 114 346 l 114 0 l 325 0 l 325 493 z "},"₧":{"ha":1621,"x_min":0,"x_max":0,"o":"m 319 810 b 385 750 361 810 385 793 l 385 565 b 319 506 385 522 360 506 l 269 506 l 269 810 z m 332 307 b 614 563 529 307 614 404 l 614 604 l 700 604 l 700 293 b 1013 0 700 94 756 0 l 1264 0 b 1603 243 1535 0 1603 79 l 1603 297 b 1444 483 1603 419 1524 461 b 1285 547 1364 504 1285 507 l 1285 615 b 1326 658 1285 646 1297 658 b 1381 606 1358 658 1376 643 l 1381 528 l 1597 528 l 1597 613 b 1328 825 1583 746 1506 825 b 1068 613 1163 825 1068 747 l 1068 531 b 1226 346 1068 410 1147 367 b 1383 272 1304 325 1383 308 l 1383 251 b 1260 190 1383 206 1357 190 l 1047 190 b 917 315 951 190 917 214 l 917 604 l 1042 604 l 1042 813 l 917 813 l 917 960 l 763 960 b 740 881 757 932 750 901 b 688 818 728 853 713 832 b 611 796 667 806 643 797 b 331 1000 597 924 510 1000 l 46 1000 l 46 0 l 269 0 l 269 307 z "},"₨":{"ha":1190,"x_min":0,"x_max":0,"o":"m 322 810 b 381 760 364 810 381 793 l 381 613 b 322 561 381 581 364 561 l 268 561 l 268 810 z m 303 363 b 407 269 358 363 375 321 l 453 194 b 810 0 533 56 617 0 l 914 0 b 1179 233 1099 0 1179 86 l 1179 246 b 856 592 1179 525 856 483 l 856 597 b 907 651 856 631 869 651 b 956 592 943 651 956 631 l 956 542 l 1167 542 l 1167 603 b 904 825 1167 736 1093 825 b 638 589 719 825 638 724 l 638 582 b 958 239 638 300 958 376 l 958 236 b 892 181 958 199 939 181 l 833 181 b 657 271 758 181 706 197 l 613 338 b 504 450 575 394 547 429 b 606 631 569 481 606 536 l 606 781 b 333 1000 606 917 532 1000 l 46 1000 l 46 0 l 268 0 l 268 363 z "},"₩":{"ha":926,"x_min":0,"x_max":0,"o":"m 449 429 l 458 564 l 467 429 l 540 0 l 751 0 l 799 276 l 913 276 l 913 435 l 825 435 l 835 485 l 913 485 l 913 643 l 861 643 l 922 1000 l 704 1000 l 640 535 l 629 368 l 613 533 l 536 1000 l 388 1000 l 306 533 l 286 376 l 279 535 l 221 1000 l 4 1000 l 60 643 l 14 643 l 14 485 l 85 485 l 92 435 l 14 435 l 14 276 l 117 276 l 160 0 l 372 0 z "},"₪":{"ha":1003,"x_min":0,"x_max":0,"o":"m 340 829 b 533 610 465 829 533 778 l 533 224 l 561 224 b 722 389 664 224 722 258 l 722 660 b 368 1000 722 882 583 1000 l 46 1000 l 46 0 l 238 0 l 238 829 z m 608 0 b 964 361 839 0 964 131 l 964 1000 l 771 1000 l 771 411 b 576 176 771 236 703 176 l 481 176 l 481 614 b 322 783 481 749 438 783 l 289 783 l 289 0 z "},"₮":{"ha":578,"x_min":0,"x_max":0,"o":"m 506 369 l 506 483 l 401 449 l 401 504 l 506 539 l 506 653 l 401 618 l 401 793 l 553 793 l 553 1000 l 25 1000 l 25 793 l 175 793 l 175 542 l 69 507 l 69 393 l 175 428 l 175 372 l 69 338 l 69 224 l 175 258 l 175 0 l 401 0 l 401 335 z "},"₱":{"ha":706,"x_min":0,"x_max":0,"o":"m 343 203 b 639 482 554 203 635 328 l 694 482 l 694 581 l 639 581 l 639 629 l 694 629 l 694 728 l 639 728 l 639 733 b 342 1000 639 885 550 1000 l 76 1000 l 76 728 l 13 728 l 13 629 l 76 629 l 76 581 l 13 581 l 13 482 l 76 482 l 76 0 l 285 0 l 285 203 z m 428 728 l 285 728 l 285 828 l 329 828 b 428 728 394 828 428 790 z m 428 581 l 285 581 l 285 629 l 428 629 z m 329 381 l 285 381 l 285 482 l 428 482 b 329 381 424 421 393 381 z "},"฿":{"ha":729,"x_min":0,"x_max":0,"o":"m 451 0 b 703 210 628 0 703 79 l 703 363 b 614 519 703 444 672 493 b 689 685 664 549 689 600 l 689 810 b 422 1000 689 936 607 1000 l 419 1000 l 419 1088 l 314 1088 l 314 1000 l 46 1000 l 46 0 l 314 0 l 314 -101 l 419 -101 l 419 0 z m 429 822 b 481 775 465 822 481 808 l 481 654 b 429 604 481 619 468 604 l 419 604 l 419 822 z m 254 604 l 254 822 l 314 822 l 314 604 z m 419 429 b 485 381 474 429 485 411 l 485 238 b 421 190 485 208 475 190 l 419 190 z m 254 190 l 254 429 l 314 429 l 314 190 z "},"#":{"ha":899,"x_min":0,"x_max":0,"o":"m 497 403 l 386 403 l 407 610 l 518 610 z m 458 0 l 674 0 l 694 214 l 844 214 l 844 403 l 713 403 l 733 610 l 874 610 l 874 799 l 751 799 l 771 1000 l 556 1000 l 536 799 l 425 799 l 444 1000 l 229 1000 l 210 799 l 57 799 l 57 610 l 192 610 l 171 403 l 28 403 l 28 214 l 153 214 l 132 0 l 347 0 l 368 214 l 479 214 z "},"⁰":{"ha":378,"x_min":0,"x_max":0,"o":"m 189 490 b 347 643 293 490 347 540 l 347 850 b 189 1008 347 956 290 1008 b 31 850 90 1008 31 956 l 31 643 b 189 490 31 543 86 490 z m 189 608 b 164 658 169 608 164 618 l 164 844 b 189 893 164 883 169 893 b 214 844 208 893 214 883 l 214 658 b 189 608 214 618 208 608 z "},"¹":{"ha":319,"x_min":0,"x_max":0,"o":"m 296 500 l 296 622 l 228 622 l 228 1000 l 124 1000 b 40 924 114 951 85 926 l 40 826 l 99 826 l 99 622 l 25 622 l 25 500 z "},"²":{"ha":365,"x_min":0,"x_max":0,"o":"m 336 500 l 336 624 l 163 624 b 339 832 188 686 339 693 l 339 882 b 186 1008 339 965 292 1008 b 29 879 83 1008 29 956 l 28 803 l 163 803 l 163 869 b 185 897 163 886 168 897 b 207 876 201 897 207 890 l 207 833 b 28 606 207 756 28 765 l 28 500 z "},"³":{"ha":360,"x_min":0,"x_max":0,"o":"m 182 489 b 336 610 293 489 336 540 l 336 681 b 285 758 336 728 315 749 b 331 836 315 772 331 796 l 331 893 b 176 1007 331 960 283 1007 b 28 883 71 1007 28 958 l 28 831 l 154 831 l 154 868 b 178 892 154 886 161 892 b 201 869 196 892 201 885 l 201 824 b 176 803 201 808 194 803 l 136 803 l 136 703 l 175 703 b 203 683 194 703 203 699 l 203 632 b 179 608 203 617 197 608 b 154 635 160 608 154 615 l 154 676 l 24 676 l 24 615 b 182 489 24 531 65 489 z "},"⁴":{"ha":375,"x_min":0,"x_max":0,"o":"m 354 576 l 354 685 l 306 685 l 306 1000 l 188 1000 l 19 671 l 19 576 l 188 576 l 188 500 l 306 500 l 306 576 z m 188 685 l 143 685 l 188 767 z "},"⁵":{"ha":368,"x_min":0,"x_max":0,"o":"m 186 490 b 339 619 290 490 339 540 l 339 731 b 221 846 339 803 301 846 b 160 829 196 846 176 839 l 167 889 l 214 889 b 326 994 311 889 326 904 l 326 1000 l 63 1000 l 32 746 l 154 714 l 158 725 b 183 742 163 735 171 742 b 206 717 199 742 206 733 l 206 635 b 185 608 206 619 201 608 b 164 632 168 608 164 618 l 164 683 l 31 683 l 31 619 b 186 490 31 540 75 490 z "},"⁶":{"ha":374,"x_min":0,"x_max":0,"o":"m 346 622 l 346 697 b 238 799 346 765 307 799 b 164 764 200 799 176 785 l 164 850 b 189 897 164 883 171 897 b 211 872 206 897 211 888 l 211 825 l 342 825 l 342 876 b 192 1008 340 961 296 1008 b 31 853 92 1008 31 958 l 31 647 b 189 490 31 543 79 490 b 346 622 294 490 346 538 z m 190 604 b 164 656 169 604 164 618 l 164 706 b 192 715 171 711 181 715 b 217 694 210 715 217 708 l 217 631 b 190 604 217 615 210 604 z "},"⁷":{"ha":336,"x_min":0,"x_max":0,"o":"m 192 500 b 317 893 214 658 254 771 l 317 1000 l 21 1000 l 21 876 l 178 876 b 43 500 125 775 72 657 z "},"⁸":{"ha":375,"x_min":0,"x_max":0,"o":"m 188 490 b 346 610 296 490 346 535 l 346 676 b 296 761 346 721 328 747 b 340 842 324 774 340 799 l 340 893 b 188 1008 340 964 290 1008 b 36 892 85 1008 36 963 l 36 840 b 81 760 36 796 53 772 b 29 678 49 746 29 718 l 29 611 b 188 490 29 531 76 490 z m 188 807 b 163 829 167 807 163 814 l 163 878 b 188 901 163 892 168 901 b 214 878 210 901 214 892 l 214 829 b 188 807 214 814 208 807 z m 188 606 b 160 629 168 606 160 613 l 160 689 b 188 714 160 704 167 714 b 217 690 208 714 217 706 l 217 631 b 188 606 217 613 207 606 z "},"⁹":{"ha":378,"x_min":0,"x_max":0,"o":"m 186 786 b 161 808 168 786 161 793 l 161 869 b 188 897 161 886 169 897 b 215 846 208 897 215 885 l 215 799 b 186 786 208 790 197 786 z m 186 489 b 346 647 288 489 346 538 l 346 853 b 188 1008 346 957 296 1008 b 31 879 82 1008 31 963 l 31 808 b 143 704 31 738 71 704 b 215 740 182 704 203 718 l 215 653 b 189 606 215 619 208 606 b 167 631 172 606 167 614 l 167 678 l 29 678 l 29 624 b 186 489 31 538 79 489 z "},"⁺":{"ha":338,"x_min":0,"x_max":0,"o":"m 303 694 l 303 813 l 228 813 l 228 892 l 111 892 l 111 813 l 36 813 l 36 694 l 111 694 l 111 615 l 228 615 l 228 694 z "},"⁻":{"ha":338,"x_min":0,"x_max":0,"o":"m 303 692 l 303 815 l 36 815 l 36 692 z "},"⁼":{"ha":335,"x_min":0,"x_max":0,"o":"m 289 768 l 289 872 l 46 872 l 46 768 z m 289 629 l 289 733 l 46 733 l 46 629 z "},"⁽":{"ha":269,"x_min":0,"x_max":0,"o":"m 36 632 b 238 390 36 446 106 396 l 238 538 b 171 644 186 540 171 563 l 171 840 b 238 958 171 924 186 953 l 238 1093 b 36 851 104 1088 36 1025 z "},"⁾":{"ha":269,"x_min":0,"x_max":0,"o":"m 32 390 b 233 632 164 396 233 446 l 233 851 b 32 1093 233 1025 165 1088 l 32 958 b 99 840 83 953 99 924 l 99 644 b 32 538 99 563 83 540 z "},"₀":{"ha":378,"x_min":0,"x_max":0,"o":"m 189 -10 b 347 143 293 -10 347 40 l 347 350 b 189 508 347 456 290 508 b 31 350 90 508 31 456 l 31 143 b 189 -10 31 43 86 -10 z m 189 108 b 164 158 169 108 164 118 l 164 344 b 189 393 164 383 169 393 b 214 344 208 393 214 383 l 214 158 b 189 108 214 118 208 108 z "},"₁":{"ha":319,"x_min":0,"x_max":0,"o":"m 296 0 l 296 122 l 228 122 l 228 500 l 124 500 b 40 424 114 451 85 426 l 40 326 l 99 326 l 99 122 l 25 122 l 25 0 z "},"₂":{"ha":367,"x_min":0,"x_max":0,"o":"m 338 0 l 338 124 l 164 124 b 340 332 189 186 340 193 l 340 382 b 188 508 340 465 293 508 b 31 379 85 508 31 456 l 29 303 l 164 303 l 164 369 b 186 397 164 386 169 397 b 208 376 203 397 208 390 l 208 333 b 29 106 208 256 29 265 l 29 0 z "},"₃":{"ha":360,"x_min":0,"x_max":0,"o":"m 182 -11 b 336 110 293 -11 336 40 l 336 181 b 285 258 336 228 315 249 b 331 336 315 272 331 296 l 331 393 b 176 507 331 460 283 507 b 28 383 71 507 28 458 l 28 331 l 154 331 l 154 368 b 178 392 154 386 161 392 b 201 369 196 392 201 385 l 201 324 b 176 303 201 308 194 303 l 136 303 l 136 203 l 175 203 b 203 183 194 203 203 199 l 203 132 b 179 108 203 117 197 108 b 154 135 160 108 154 115 l 154 176 l 24 176 l 24 115 b 182 -11 24 31 65 -11 z "},"₄":{"ha":375,"x_min":0,"x_max":0,"o":"m 354 76 l 354 185 l 306 185 l 306 500 l 188 500 l 19 171 l 19 76 l 188 76 l 188 0 l 306 0 l 306 76 z m 188 185 l 143 185 l 188 267 z "},"₅":{"ha":368,"x_min":0,"x_max":0,"o":"m 186 -10 b 339 119 290 -10 339 40 l 339 231 b 221 346 339 303 301 346 b 160 329 196 346 176 339 l 167 389 l 214 389 b 326 494 311 389 326 404 l 326 500 l 63 500 l 32 246 l 154 214 l 158 225 b 183 242 163 235 171 242 b 206 217 199 242 206 233 l 206 135 b 185 108 206 119 201 108 b 164 132 168 108 164 118 l 164 183 l 31 183 l 31 119 b 186 -10 31 40 75 -10 z "},"₆":{"ha":374,"x_min":0,"x_max":0,"o":"m 346 122 l 346 197 b 238 299 346 265 307 299 b 164 264 200 299 176 285 l 164 350 b 189 397 164 383 171 397 b 211 372 206 397 211 388 l 211 325 l 342 325 l 342 376 b 192 508 340 461 296 508 b 31 353 92 508 31 458 l 31 147 b 189 -10 31 43 79 -10 b 346 122 294 -10 346 38 z m 190 104 b 164 156 169 104 164 118 l 164 206 b 192 215 171 211 181 215 b 217 194 210 215 217 208 l 217 131 b 190 104 217 115 210 104 z "},"₇":{"ha":336,"x_min":0,"x_max":0,"o":"m 192 0 b 317 393 214 158 254 271 l 317 500 l 21 500 l 21 376 l 178 376 b 43 0 125 275 72 157 z "},"₈":{"ha":375,"x_min":0,"x_max":0,"o":"m 188 -10 b 346 110 296 -10 346 35 l 346 176 b 296 261 346 221 328 247 b 340 342 324 274 340 299 l 340 393 b 188 508 340 464 290 508 b 36 392 85 508 36 463 l 36 340 b 81 260 36 296 53 272 b 29 178 49 246 29 218 l 29 111 b 188 -10 29 31 76 -10 z m 188 307 b 163 329 167 307 163 314 l 163 378 b 188 401 163 392 168 401 b 214 378 210 401 214 392 l 214 329 b 188 307 214 314 208 307 z m 188 106 b 160 129 168 106 160 113 l 160 189 b 188 214 160 204 167 214 b 217 190 208 214 217 206 l 217 131 b 188 106 217 113 207 106 z "},"₉":{"ha":378,"x_min":0,"x_max":0,"o":"m 186 286 b 161 308 168 286 161 293 l 161 369 b 188 397 161 386 169 397 b 215 346 208 397 215 385 l 215 299 b 186 286 208 290 197 286 z m 186 -11 b 346 147 288 -11 346 38 l 346 353 b 188 508 346 457 296 508 b 31 379 82 508 31 463 l 31 308 b 143 204 31 238 71 204 b 215 240 182 204 203 218 l 215 153 b 189 106 215 119 208 106 b 167 131 172 106 167 114 l 167 178 l 29 178 l 29 124 b 186 -11 31 38 79 -11 z "},"₊":{"ha":338,"x_min":0,"x_max":0,"o":"m 303 194 l 303 313 l 228 313 l 228 392 l 111 392 l 111 313 l 36 313 l 36 194 l 111 194 l 111 115 l 228 115 l 228 194 z "},"₋":{"ha":338,"x_min":0,"x_max":0,"o":"m 303 192 l 303 315 l 36 315 l 36 192 z "},"₌":{"ha":335,"x_min":0,"x_max":0,"o":"m 289 268 l 289 372 l 46 372 l 46 268 z m 289 129 l 289 233 l 46 233 l 46 129 z "},"₍":{"ha":269,"x_min":0,"x_max":0,"o":"m 36 132 b 238 -110 36 -54 106 -104 l 238 38 b 171 144 186 40 171 63 l 171 340 b 238 458 171 424 186 453 l 238 593 b 36 351 104 588 36 525 z "},"₎":{"ha":269,"x_min":0,"x_max":0,"o":"m 32 -110 b 233 132 164 -104 233 -54 l 233 351 b 32 593 233 525 165 588 l 32 458 b 99 340 83 453 99 424 l 99 144 b 32 38 99 63 83 40 z "},"⁄":{"ha":867,"x_min":0,"x_max":0,"o":"m 504 554 l 815 935 l 631 1039 l 458 583 z m 386 469 l 72 78 l 260 -36 l 428 440 z "},"⅟":{"ha":867,"x_min":0,"x_max":0,"o":"m 504 554 l 815 935 l 631 1039 l 458 583 z m 386 469 l 72 78 l 260 -36 l 428 440 z m 363 500 l 363 622 l 294 622 l 294 1000 l 190 1000 b 107 924 181 951 151 926 l 107 826 l 165 826 l 165 622 l 92 622 l 92 500 z "},"½":{"ha":867,"x_min":0,"x_max":0,"o":"m 504 554 l 815 935 l 631 1039 l 458 583 z m 386 469 l 72 78 l 260 -36 l 428 440 z m 363 500 l 363 622 l 294 622 l 294 1000 l 190 1000 b 107 924 181 951 151 926 l 107 826 l 165 826 l 165 622 l 92 622 l 92 500 z m 799 0 l 799 124 l 625 124 b 801 332 650 186 801 193 l 801 382 b 649 508 801 465 754 508 b 492 379 546 508 492 456 l 490 303 l 625 303 l 625 369 b 647 397 625 386 631 397 b 669 376 664 397 669 390 l 669 333 b 490 106 669 256 490 265 l 490 0 z "},"⅓":{"ha":867,"x_min":0,"x_max":0,"o":"m 504 554 l 815 935 l 631 1039 l 458 583 z m 386 469 l 72 78 l 260 -36 l 428 440 z m 363 500 l 363 622 l 294 622 l 294 1000 l 190 1000 b 107 924 181 951 151 926 l 107 826 l 165 826 l 165 622 l 92 622 l 92 500 z m 636 -11 b 790 110 747 -11 790 40 l 790 181 b 739 258 790 228 769 249 b 785 336 769 272 785 296 l 785 393 b 631 507 785 460 738 507 b 482 383 525 507 482 458 l 482 331 l 608 331 l 608 368 b 632 392 608 386 615 392 b 656 369 650 392 656 385 l 656 324 b 631 303 656 308 649 303 l 590 303 l 590 203 l 629 203 b 657 183 649 203 657 199 l 657 132 b 633 108 657 117 651 108 b 608 135 614 108 608 115 l 608 176 l 478 176 l 478 115 b 636 -11 478 31 519 -11 z "},"⅔":{"ha":867,"x_min":0,"x_max":0,"o":"m 504 554 l 815 935 l 631 1039 l 458 583 z m 386 469 l 72 78 l 260 -36 l 428 440 z m 379 500 l 379 624 l 206 624 b 382 832 231 686 382 693 l 382 882 b 229 1008 382 965 335 1008 b 72 879 126 1008 72 956 l 71 803 l 206 803 l 206 869 b 228 897 206 886 211 897 b 250 876 244 897 250 890 l 250 833 b 71 606 250 756 71 765 l 71 500 z m 636 -11 b 790 110 747 -11 790 40 l 790 181 b 739 258 790 228 769 249 b 785 336 769 272 785 296 l 785 393 b 631 507 785 460 738 507 b 482 383 525 507 482 458 l 482 331 l 608 331 l 608 368 b 632 392 608 386 615 392 b 656 369 650 392 656 385 l 656 324 b 631 303 656 308 649 303 l 590 303 l 590 203 l 629 203 b 657 183 649 203 657 199 l 657 132 b 633 108 657 117 651 108 b 608 135 614 108 608 115 l 608 176 l 478 176 l 478 115 b 636 -11 478 31 519 -11 z "},"¼":{"ha":867,"x_min":0,"x_max":0,"o":"m 504 554 l 815 935 l 631 1039 l 458 583 z m 386 469 l 72 78 l 260 -36 l 428 440 z m 785 76 l 785 185 l 736 185 l 736 500 l 618 500 l 450 171 l 450 76 l 618 76 l 618 0 l 736 0 l 736 76 z m 618 185 l 574 185 l 618 267 z m 363 500 l 363 622 l 294 622 l 294 1000 l 190 1000 b 107 924 181 951 151 926 l 107 826 l 165 826 l 165 622 l 92 622 l 92 500 z "},"¾":{"ha":867,"x_min":0,"x_max":0,"o":"m 504 554 l 815 935 l 631 1039 l 458 583 z m 386 469 l 72 78 l 260 -36 l 428 440 z m 785 76 l 785 185 l 736 185 l 736 500 l 618 500 l 450 171 l 450 76 l 618 76 l 618 0 l 736 0 l 736 76 z m 618 185 l 574 185 l 618 267 z m 218 489 b 372 610 329 489 372 540 l 372 681 b 321 758 372 728 351 749 b 367 836 351 772 367 796 l 367 893 b 213 1007 367 960 319 1007 b 64 883 107 1007 64 958 l 64 831 l 190 831 l 190 868 b 214 892 190 886 197 892 b 238 869 232 892 238 885 l 238 824 b 213 803 238 808 231 803 l 172 803 l 172 703 l 211 703 b 239 683 231 703 239 699 l 239 632 b 215 608 239 617 233 608 b 190 635 196 608 190 615 l 190 676 l 60 676 l 60 615 b 218 489 60 531 101 489 z "},"⅕":{"ha":867,"x_min":0,"x_max":0,"o":"m 504 554 l 815 935 l 631 1039 l 458 583 z m 386 469 l 72 78 l 260 -36 l 428 440 z m 640 -10 b 793 119 744 -10 793 40 l 793 231 b 675 346 793 303 756 346 b 614 329 650 346 631 339 l 621 389 l 668 389 b 781 494 765 389 781 404 l 781 500 l 517 500 l 486 246 l 608 214 l 613 225 b 638 242 617 235 625 242 b 660 217 653 242 660 233 l 660 135 b 639 108 660 119 656 108 b 618 132 622 108 618 118 l 618 183 l 485 183 l 485 119 b 640 -10 485 40 529 -10 z m 363 500 l 363 622 l 294 622 l 294 1000 l 190 1000 b 107 924 181 951 151 926 l 107 826 l 165 826 l 165 622 l 92 622 l 92 500 z "},"⅖":{"ha":867,"x_min":0,"x_max":0,"o":"m 504 554 l 815 935 l 631 1039 l 458 583 z m 386 469 l 72 78 l 260 -36 l 428 440 z m 640 -10 b 793 119 744 -10 793 40 l 793 231 b 675 346 793 303 756 346 b 614 329 650 346 631 339 l 621 389 l 668 389 b 781 494 765 389 781 404 l 781 500 l 517 500 l 486 246 l 608 214 l 613 225 b 638 242 617 235 625 242 b 660 217 653 242 660 233 l 660 135 b 639 108 660 119 656 108 b 618 132 622 108 618 118 l 618 183 l 485 183 l 485 119 b 640 -10 485 40 529 -10 z m 379 500 l 379 624 l 206 624 b 382 832 231 686 382 693 l 382 882 b 229 1008 382 965 335 1008 b 72 879 126 1008 72 956 l 71 803 l 206 803 l 206 869 b 228 897 206 886 211 897 b 250 876 244 897 250 890 l 250 833 b 71 606 250 756 71 765 l 71 500 z "},"⅗":{"ha":867,"x_min":0,"x_max":0,"o":"m 504 554 l 815 935 l 631 1039 l 458 583 z m 386 469 l 72 78 l 260 -36 l 428 440 z m 640 -10 b 793 119 744 -10 793 40 l 793 231 b 675 346 793 303 756 346 b 614 329 650 346 631 339 l 621 389 l 668 389 b 781 494 765 389 781 404 l 781 500 l 517 500 l 486 246 l 608 214 l 613 225 b 638 242 617 235 625 242 b 660 217 653 242 660 233 l 660 135 b 639 108 660 119 656 108 b 618 132 622 108 618 118 l 618 183 l 485 183 l 485 119 b 640 -10 485 40 529 -10 z m 218 489 b 372 610 329 489 372 540 l 372 681 b 321 758 372 728 351 749 b 367 836 351 772 367 796 l 367 893 b 213 1007 367 960 319 1007 b 64 883 107 1007 64 958 l 64 831 l 190 831 l 190 868 b 214 892 190 886 197 892 b 238 869 232 892 238 885 l 238 824 b 213 803 238 808 231 803 l 172 803 l 172 703 l 211 703 b 239 683 231 703 239 699 l 239 632 b 215 608 239 617 233 608 b 190 635 196 608 190 615 l 190 676 l 60 676 l 60 615 b 218 489 60 531 101 489 z "},"⅘":{"ha":867,"x_min":0,"x_max":0,"o":"m 504 554 l 815 935 l 631 1039 l 458 583 z m 386 469 l 72 78 l 260 -36 l 428 440 z m 640 -10 b 793 119 744 -10 793 40 l 793 231 b 675 346 793 303 756 346 b 614 329 650 346 631 339 l 621 389 l 668 389 b 781 494 765 389 781 404 l 781 500 l 517 500 l 486 246 l 608 214 l 613 225 b 638 242 617 235 625 242 b 660 217 653 242 660 233 l 660 135 b 639 108 660 119 656 108 b 618 132 622 108 618 118 l 618 183 l 485 183 l 485 119 b 640 -10 485 40 529 -10 z m 392 576 l 392 685 l 343 685 l 343 1000 l 225 1000 l 57 671 l 57 576 l 225 576 l 225 500 l 343 500 l 343 576 z m 225 685 l 181 685 l 225 767 z "},"⅙":{"ha":867,"x_min":0,"x_max":0,"o":"m 504 554 l 815 935 l 631 1039 l 458 583 z m 386 469 l 72 78 l 260 -36 l 428 440 z m 363 500 l 363 622 l 294 622 l 294 1000 l 190 1000 b 107 924 181 951 151 926 l 107 826 l 165 826 l 165 622 l 92 622 l 92 500 z m 793 122 l 793 197 b 685 299 793 265 754 299 b 611 264 647 299 624 285 l 611 350 b 636 397 611 383 618 397 b 658 372 653 397 658 388 l 658 325 l 789 325 l 789 376 b 639 508 788 461 743 508 b 478 353 539 508 478 458 l 478 147 b 636 -10 478 43 526 -10 b 793 122 742 -10 793 38 z m 638 104 b 611 156 617 104 611 118 l 611 206 b 639 215 618 211 628 215 b 664 194 657 215 664 208 l 664 131 b 638 104 664 115 657 104 z "},"⅚":{"ha":867,"x_min":0,"x_max":0,"o":"m 504 554 l 815 935 l 631 1039 l 458 583 z m 386 469 l 72 78 l 260 -36 l 428 440 z m 218 490 b 371 619 322 490 371 540 l 371 731 b 253 846 371 803 333 846 b 192 829 228 846 208 839 l 199 889 l 246 889 b 358 994 343 889 358 904 l 358 1000 l 94 1000 l 64 746 l 186 714 l 190 725 b 215 742 194 735 203 742 b 238 717 231 742 238 733 l 238 635 b 217 608 238 619 233 608 b 196 632 200 608 196 618 l 196 683 l 63 683 l 63 619 b 218 490 63 540 107 490 z m 793 122 l 793 197 b 685 299 793 265 754 299 b 611 264 647 299 624 285 l 611 350 b 636 397 611 383 618 397 b 658 372 653 397 658 388 l 658 325 l 789 325 l 789 376 b 639 508 788 461 743 508 b 478 353 539 508 478 458 l 478 147 b 636 -10 478 43 526 -10 b 793 122 742 -10 793 38 z m 638 104 b 611 156 617 104 611 118 l 611 206 b 639 215 618 211 628 215 b 664 194 657 215 664 208 l 664 131 b 638 104 664 115 657 104 z "},"⅛":{"ha":867,"x_min":0,"x_max":0,"o":"m 504 554 l 815 935 l 631 1039 l 458 583 z m 386 469 l 72 78 l 260 -36 l 428 440 z m 363 500 l 363 622 l 294 622 l 294 1000 l 190 1000 b 107 924 181 951 151 926 l 107 826 l 165 826 l 165 622 l 92 622 l 92 500 z m 640 -10 b 799 110 749 -10 799 35 l 799 176 b 749 261 799 221 781 247 b 793 342 776 274 793 299 l 793 393 b 640 508 793 464 743 508 b 489 392 538 508 489 463 l 489 340 b 533 260 489 296 506 272 b 482 178 501 246 482 218 l 482 111 b 640 -10 482 31 529 -10 z m 640 307 b 615 329 619 307 615 314 l 615 378 b 640 401 615 392 621 401 b 667 378 663 401 667 392 l 667 329 b 640 307 667 314 661 307 z m 640 106 b 613 129 621 106 613 113 l 613 189 b 640 214 613 204 619 214 b 669 190 661 214 669 206 l 669 131 b 640 106 669 113 660 106 z "},"⅜":{"ha":867,"x_min":0,"x_max":0,"o":"m 504 554 l 815 935 l 631 1039 l 458 583 z m 386 469 l 72 78 l 260 -36 l 428 440 z m 640 -10 b 799 110 749 -10 799 35 l 799 176 b 749 261 799 221 781 247 b 793 342 776 274 793 299 l 793 393 b 640 508 793 464 743 508 b 489 392 538 508 489 463 l 489 340 b 533 260 489 296 506 272 b 482 178 501 246 482 218 l 482 111 b 640 -10 482 31 529 -10 z m 640 307 b 615 329 619 307 615 314 l 615 378 b 640 401 615 392 621 401 b 667 378 663 401 667 392 l 667 329 b 640 307 667 314 661 307 z m 640 106 b 613 129 621 106 613 113 l 613 189 b 640 214 613 204 619 214 b 669 190 661 214 669 206 l 669 131 b 640 106 669 113 660 106 z m 218 489 b 372 610 329 489 372 540 l 372 681 b 321 758 372 728 351 749 b 367 836 351 772 367 796 l 367 893 b 213 1007 367 960 319 1007 b 64 883 107 1007 64 958 l 64 831 l 190 831 l 190 868 b 214 892 190 886 197 892 b 238 869 232 892 238 885 l 238 824 b 213 803 238 808 231 803 l 172 803 l 172 703 l 211 703 b 239 683 231 703 239 699 l 239 632 b 215 608 239 617 233 608 b 190 635 196 608 190 615 l 190 676 l 60 676 l 60 615 b 218 489 60 531 101 489 z "},"⅝":{"ha":867,"x_min":0,"x_max":0,"o":"m 504 554 l 815 935 l 631 1039 l 458 583 z m 386 469 l 72 78 l 260 -36 l 428 440 z m 640 -10 b 799 110 749 -10 799 35 l 799 176 b 749 261 799 221 781 247 b 793 342 776 274 793 299 l 793 393 b 640 508 793 464 743 508 b 489 392 538 508 489 463 l 489 340 b 533 260 489 296 506 272 b 482 178 501 246 482 218 l 482 111 b 640 -10 482 31 529 -10 z m 640 307 b 615 329 619 307 615 314 l 615 378 b 640 401 615 392 621 401 b 667 378 663 401 667 392 l 667 329 b 640 307 667 314 661 307 z m 640 106 b 613 129 621 106 613 113 l 613 189 b 640 214 613 204 619 214 b 669 190 661 214 669 206 l 669 131 b 640 106 669 113 660 106 z m 218 490 b 371 619 322 490 371 540 l 371 731 b 253 846 371 803 333 846 b 192 829 228 846 208 839 l 199 889 l 246 889 b 358 994 343 889 358 904 l 358 1000 l 94 1000 l 64 746 l 186 714 l 190 725 b 215 742 194 735 203 742 b 238 717 231 742 238 733 l 238 635 b 217 608 238 619 233 608 b 196 632 200 608 196 618 l 196 683 l 63 683 l 63 619 b 218 490 63 540 107 490 z "},"⅞":{"ha":867,"x_min":0,"x_max":0,"o":"m 504 554 l 815 935 l 631 1039 l 458 583 z m 386 469 l 72 78 l 260 -36 l 428 440 z m 640 -10 b 799 110 749 -10 799 35 l 799 176 b 749 261 799 221 781 247 b 793 342 776 274 793 299 l 793 393 b 640 508 793 464 743 508 b 489 392 538 508 489 463 l 489 340 b 533 260 489 296 506 272 b 482 178 501 246 482 218 l 482 111 b 640 -10 482 31 529 -10 z m 640 307 b 615 329 619 307 615 314 l 615 378 b 640 401 615 392 621 401 b 667 378 663 401 667 392 l 667 329 b 640 307 667 314 661 307 z m 640 106 b 613 129 621 106 613 113 l 613 189 b 640 214 613 204 619 214 b 669 190 661 214 669 206 l 669 131 b 640 106 669 113 660 106 z m 282 500 b 407 893 304 658 344 771 l 407 1000 l 111 1000 l 111 876 l 268 876 b 133 500 215 775 163 657 z "},"%":{"ha":872,"x_min":0,"x_max":0,"o":"m 197 531 b 371 693 306 531 371 589 l 371 843 b 199 1010 371 950 300 1010 b 25 843 94 1010 25 951 l 25 693 b 197 531 25 589 86 531 z m 47 0 l 282 0 b 822 1000 406 163 686 829 l 593 1000 b 47 0 469 833 185 168 z m 199 668 b 172 706 179 668 172 681 l 172 835 b 199 874 172 861 179 874 b 224 835 219 874 224 861 l 224 706 b 199 668 224 681 218 668 z m 674 -12 b 847 149 782 -12 847 42 l 847 304 b 675 471 847 411 776 471 b 501 304 571 471 501 413 l 501 149 b 674 -12 501 42 563 -12 z m 675 124 b 649 161 656 124 649 136 l 649 296 b 675 335 649 322 656 335 b 700 296 696 335 700 322 l 700 161 b 675 124 700 136 694 124 z "},"‰":{"ha":1254,"x_min":0,"x_max":0,"o":"m 197 531 b 371 693 306 531 371 588 l 371 844 b 199 1010 371 951 300 1010 b 25 844 94 1010 25 953 l 25 693 b 197 531 25 588 86 531 z m 47 0 l 282 0 b 822 1000 406 163 686 829 l 593 1000 b 47 0 469 833 185 168 z m 199 668 b 172 704 179 668 172 681 l 172 836 b 199 875 172 863 179 875 b 224 836 219 875 224 863 l 224 704 b 199 668 224 679 218 668 z m 674 -12 b 847 149 782 -12 847 42 l 847 304 b 675 471 847 413 776 471 b 501 304 571 471 501 413 l 501 149 b 674 -12 501 42 563 -12 z m 1056 -12 b 1231 149 1164 -12 1231 42 l 1231 304 b 1057 471 1231 413 1160 471 b 883 304 953 471 883 413 l 883 149 b 1056 -12 883 42 944 -12 z m 675 124 b 649 161 656 124 649 136 l 649 297 b 675 335 649 322 656 335 b 700 297 696 335 700 322 l 700 161 b 675 124 700 136 694 124 z m 1057 124 b 1031 161 1038 124 1031 136 l 1031 297 b 1057 335 1031 322 1038 335 b 1083 297 1078 335 1083 322 l 1083 161 b 1057 124 1083 136 1076 124 z "},"№":{"ha":1140,"x_min":0,"x_max":0,"o":"m 907 447 b 1108 639 1031 447 1108 507 l 1108 821 b 908 1014 1108 950 1026 1014 b 706 821 792 1014 706 951 l 706 639 b 907 447 706 507 776 447 z m 908 594 b 872 644 883 594 872 606 l 872 818 b 907 872 872 860 885 872 b 942 818 932 872 942 863 l 942 644 b 908 594 942 604 932 594 z m 447 0 l 643 0 l 643 1000 l 436 1000 l 436 546 l 246 1000 l 46 1000 l 46 0 l 253 0 l 253 457 z m 1101 403 l 717 403 l 717 221 l 1101 221 z "},"¤":{"ha":735,"x_min":0,"x_max":0,"o":"m 371 404 b 300 481 326 404 300 436 l 300 533 b 371 610 300 579 326 610 b 439 533 414 610 439 578 l 439 481 b 371 404 439 436 414 404 z m 371 244 b 469 263 407 244 439 250 l 567 154 l 686 268 l 589 374 b 611 478 604 404 611 440 l 611 538 b 588 646 611 578 603 614 l 686 754 l 564 864 l 465 754 b 371 771 438 765 406 771 b 275 754 336 771 304 765 l 175 864 l 57 750 l 154 646 b 129 536 138 614 129 576 l 129 476 b 150 369 129 436 136 400 l 51 260 l 178 149 l 275 258 b 371 244 304 250 336 244 z "},"←":{"ha":1015,"x_min":0,"x_max":0,"o":"m 932 400 l 932 604 l 379 604 b 533 818 442 658 503 739 l 294 818 b 63 551 263 726 163 614 l 63 449 b 297 185 163 386 264 276 l 544 185 b 375 400 511 267 442 347 z "},"→":{"ha":1015,"x_min":0,"x_max":0,"o":"m 718 185 b 953 449 751 276 853 386 l 953 551 b 721 818 853 614 753 726 l 482 818 b 636 604 513 739 574 658 l 83 604 l 83 400 l 640 400 b 471 185 574 347 504 267 z "},"↑":{"ha":1015,"x_min":0,"x_max":0,"o":"m 825 467 l 825 706 b 561 938 732 739 624 838 l 463 938 b 194 706 399 838 286 739 l 194 467 b 408 626 282 501 357 563 l 408 72 l 613 72 l 613 626 b 825 467 664 561 738 501 z "},"↓":{"ha":1015,"x_min":0,"x_max":0,"o":"m 557 61 b 825 293 619 161 732 260 l 825 532 b 610 371 738 497 661 436 l 610 926 l 407 926 l 407 371 b 194 532 356 438 282 497 l 194 293 b 458 61 286 260 394 161 z "},"↖":{"ha":1015,"x_min":0,"x_max":0,"o":"m 886 272 l 494 664 b 757 701 576 654 671 665 l 588 871 b 238 847 500 828 354 821 l 168 778 b 143 424 194 663 185 513 l 311 256 b 350 521 349 342 358 439 l 742 128 z "},"↗":{"ha":1015,"x_min":0,"x_max":0,"o":"m 717 256 l 886 425 b 863 775 843 514 836 660 l 793 844 b 439 871 678 819 528 828 l 271 701 b 536 664 357 665 453 654 l 143 271 l 288 128 l 679 519 b 717 256 669 438 681 343 z "},"↘":{"ha":1015,"x_min":0,"x_max":0,"o":"m 790 151 l 860 221 b 885 575 833 336 843 486 l 717 743 b 678 478 679 657 669 560 l 286 871 l 142 726 l 533 335 b 271 297 451 344 357 333 l 440 128 b 790 151 528 171 674 178 z "},"↙":{"ha":1015,"x_min":0,"x_max":0,"o":"m 589 128 l 758 296 b 492 335 672 333 575 344 l 885 726 l 740 871 l 349 478 b 313 742 358 561 349 656 l 143 572 b 167 222 185 485 192 339 l 236 153 b 589 128 351 179 500 169 z "},"○":{"ha":1193,"x_min":0,"x_max":0,"o":"m 596 -15 b 1111 497 900 -15 1111 201 b 596 1010 1111 796 896 1010 b 82 497 293 1010 82 792 b 596 -15 82 197 293 -15 z m 596 294 b 401 497 478 294 401 383 b 596 703 401 613 478 703 b 790 497 714 703 790 611 b 596 294 790 383 714 294 z "},"●":{"ha":1193,"x_min":0,"x_max":0,"o":"m 596 -15 b 1111 497 900 -15 1111 201 b 596 1010 1111 796 896 1010 b 82 497 293 1010 82 792 b 596 -15 82 197 293 -15 z "},"■":{"ha":1125,"x_min":0,"x_max":0,"o":"m 63 0 l 1063 0 l 1063 1000 l 63 1000 z "},"□":{"ha":1125,"x_min":0,"x_max":0,"o":"m 63 0 l 1063 0 l 1063 1000 l 63 1000 z m 392 678 l 733 678 l 733 324 l 392 324 z "},"⊠":{"ha":1125,"x_min":0,"x_max":0,"o":"m 63 0 l 1063 0 l 1063 1000 l 63 1000 z m 392 678 l 733 678 l 733 324 l 392 324 z m 649 356 l 704 411 l 618 500 l 706 589 l 649 644 l 564 557 l 479 643 l 422 588 l 508 500 l 424 413 l 479 357 l 564 443 z "},"▪":{"ha":935,"x_min":0,"x_max":0,"o":"m 61 0 l 874 0 l 874 813 l 61 813 z "},"▫":{"ha":935,"x_min":0,"x_max":0,"o":"m 61 0 l 874 0 l 874 813 l 61 813 z m 339 540 l 596 540 l 596 274 l 339 274 z "},"▲":{"ha":1251,"x_min":0,"x_max":0,"o":"m 1221 0 l 626 1031 l 31 0 z "},"▼":{"ha":1251,"x_min":0,"x_max":0,"o":"m 31 1014 l 626 -17 l 1221 1014 z "},"◄":{"ha":1251,"x_min":0,"x_max":0,"o":"m 1110 1111 l 79 517 l 1110 -79 z "},"►":{"ha":1251,"x_min":0,"x_max":0,"o":"m 142 -79 l 1172 517 l 142 1111 z "},"◤":{"ha":1251,"x_min":0,"x_max":0,"o":"m 1193 -75 l 885 1075 l 43 233 z "},"◥":{"ha":1251,"x_min":0,"x_max":0,"o":"m 1214 226 l 374 1069 l 64 -81 z "},"◢":{"ha":1251,"x_min":0,"x_max":0,"o":"m 1215 740 l 65 1049 l 374 -101 z "},"◣":{"ha":1251,"x_min":0,"x_max":0,"o":"m 881 -101 l 1189 1049 l 39 740 z "},"◎":{"ha":1274,"x_min":0,"x_max":0,"o":"m 636 -14 b 1146 497 936 -14 1146 201 b 636 1008 1146 796 932 1008 b 128 497 338 1008 128 792 b 636 -14 128 197 338 -14 z m 636 167 b 310 497 451 167 310 308 b 636 831 310 686 451 831 b 964 497 825 831 964 682 b 636 167 964 308 825 167 z m 638 260 b 875 496 774 260 875 363 b 638 732 875 632 772 732 b 400 496 504 732 400 632 b 638 260 400 360 500 260 z m 638 415 b 563 496 593 415 563 450 b 638 576 563 543 593 576 b 713 496 682 576 713 543 b 638 415 713 450 682 415 z "},"★":{"ha":1256,"x_min":0,"x_max":0,"o":"m 783 421 l 1043 607 l 724 608 l 625 911 l 525 608 l 207 610 l 465 422 l 365 118 l 624 306 l 883 118 z "},"☼":{"ha":1294,"x_min":0,"x_max":0,"o":"m 629 789 l 657 789 l 681 986 l 606 986 z m 486 743 l 507 757 l 431 942 l 365 903 z m 779 757 l 800 743 l 921 903 l 856 942 z m 382 632 l 396 653 l 236 774 l 197 708 z m 890 654 l 904 632 l 1089 710 l 1047 774 z m 401 494 b 643 253 401 363 511 253 b 885 494 775 253 885 363 b 643 736 885 626 775 736 b 401 494 511 736 401 626 z m 350 482 l 350 510 l 153 533 l 153 458 z m 936 510 l 936 482 l 1133 458 l 1133 533 z m 904 360 l 890 339 l 1050 218 l 1089 283 z m 396 338 l 382 360 l 197 282 l 239 218 z m 800 249 l 779 235 l 856 50 l 921 89 z m 507 235 l 486 249 l 365 89 l 431 50 z m 657 203 l 629 203 l 606 6 l 681 6 z "},"☾":{"ha":1099,"x_min":0,"x_max":0,"o":"m 744 840 b 843 824 778 840 811 832 b 596 903 772 874 686 903 b 185 492 369 903 185 718 b 596 81 185 265 369 81 b 843 160 686 81 772 110 b 744 143 811 150 778 143 b 413 492 561 143 413 300 b 744 840 413 683 561 840 z "},"♻":{"ha":1157,"x_min":0,"x_max":0,"o":"m 489 944 b 596 878 489 944 560 940 l 681 731 l 633 703 l 835 665 l 908 863 l 857 833 l 824 890 b 717 946 794 943 760 944 l 489 946 z m 249 732 l 425 631 l 561 867 b 368 908 538 913 438 950 b 328 872 349 899 333 882 z m 961 649 l 786 549 l 922 313 b 1054 460 971 313 1056 378 b 1043 511 1054 481 1049 501 z m 233 174 b 238 300 233 174 203 240 b 322 447 240 306 322 447 l 371 418 l 301 614 l 96 578 l 146 549 l 113 490 b 118 371 82 439 97 408 l 231 174 z m 1029 342 b 917 281 1029 342 986 281 l 746 281 l 746 339 l 614 179 l 746 19 l 746 78 l 814 78 b 917 143 875 78 893 107 l 1031 340 z m 539 78 l 539 281 l 267 281 b 328 93 240 238 257 135 b 381 78 346 82 367 78 z "},"♼":{"ha":1157,"x_min":0,"x_max":0,"o":"m 1049 492 b 581 964 1049 753 839 964 b 108 492 319 964 108 753 b 581 24 108 232 319 24 b 1049 492 839 24 1049 232 z m 501 850 l 678 850 b 761 807 713 850 738 847 l 788 763 l 826 785 l 771 632 l 614 661 l 651 683 l 585 797 b 501 849 558 843 501 849 z m 383 792 b 413 821 386 801 399 813 b 563 789 467 853 544 824 l 458 606 l 321 685 z m 935 514 b 946 474 940 504 946 490 b 843 357 946 410 882 357 l 736 540 l 874 619 z m 307 251 l 219 403 b 215 497 204 433 190 456 l 242 542 l 203 565 l 361 592 l 415 440 l 378 464 l 311 350 b 308 251 285 303 308 251 z m 926 379 l 838 228 b 758 178 821 200 807 178 l 707 178 l 707 132 l 603 256 l 707 378 l 707 335 l 838 335 b 925 381 893 335 925 381 z m 418 178 b 378 189 408 178 392 181 b 329 335 322 221 308 300 l 542 335 l 542 178 z "},"♽":{"ha":1157,"x_min":0,"x_max":0,"o":"m 1049 492 b 581 964 1049 753 839 964 b 108 492 319 964 108 753 b 581 24 108 232 319 24 b 1049 492 839 24 1049 232 z m 1025 492 b 581 46 1025 244 826 46 b 132 492 332 46 132 244 b 581 940 132 740 332 940 b 1025 492 826 940 1025 740 z m 501 849 b 585 797 501 849 558 843 l 651 683 l 614 661 l 771 632 l 826 785 l 788 763 l 761 807 b 678 850 738 847 713 850 l 501 850 z m 321 685 l 458 606 l 563 789 b 413 821 544 824 467 853 b 383 792 399 813 386 801 z m 874 619 l 736 540 l 843 357 b 946 474 882 357 946 410 b 935 514 946 490 940 504 z m 308 251 b 311 350 308 251 285 303 l 378 464 l 415 440 l 361 592 l 203 565 l 242 542 l 215 497 b 219 403 190 456 204 433 l 307 251 z m 925 381 b 838 335 925 381 893 335 l 707 335 l 707 378 l 603 256 l 707 132 l 707 178 l 758 178 b 838 228 807 178 821 200 l 926 379 z m 542 178 l 542 335 l 329 335 b 378 189 308 300 322 221 b 418 178 392 181 408 178 z "},"⌂":{"ha":1189,"x_min":0,"x_max":0,"o":"m 1047 0 l 1047 564 l 594 999 l 142 564 l 142 0 z "},"♠":{"ha":1258,"x_min":0,"x_max":0,"o":"m 674 394 b 921 211 710 300 788 211 b 1135 425 1039 211 1135 307 b 825 864 1135 581 1050 685 l 635 1015 l 633 1015 l 443 864 b 122 425 218 685 122 581 b 356 210 122 307 229 210 b 586 394 479 210 553 300 b 457 0 586 231 496 69 l 810 0 b 674 394 775 69 674 231 z "},"♣":{"ha":1258,"x_min":0,"x_max":0,"o":"m 901 178 b 1142 421 1035 178 1142 288 b 903 661 1142 554 1036 661 b 840 650 881 661 858 657 b 865 771 856 688 865 729 b 626 1008 865 903 758 1008 b 386 771 494 1008 386 903 b 414 653 386 731 397 689 b 357 661 396 657 378 661 b 115 421 224 661 115 554 b 357 178 115 288 224 178 b 585 342 463 178 547 247 b 458 0 568 197 493 61 l 811 0 b 679 340 781 61 697 197 b 901 178 715 246 797 178 z "},"♥":{"ha":1258,"x_min":0,"x_max":0,"o":"m 625 -24 l 817 190 b 1133 751 1044 442 1133 593 b 875 1008 1133 892 1015 1008 b 625 790 736 1008 640 914 b 374 1008 610 914 511 1008 b 124 751 233 1008 124 892 b 433 190 124 593 207 442 z "},"♦":{"ha":1258,"x_min":0,"x_max":0,"o":"m 183 506 l 629 -14 l 1074 506 l 629 1019 z "},"+":{"ha":629,"x_min":0,"x_max":0,"o":"m 574 397 l 574 589 l 411 589 l 411 754 l 221 754 l 221 589 l 57 589 l 57 397 l 221 397 l 221 232 l 411 232 l 411 397 z "},"−":{"ha":629,"x_min":0,"x_max":0,"o":"m 574 394 l 574 592 l 57 592 l 57 394 z "},"±":{"ha":629,"x_min":0,"x_max":0,"o":"m 539 554 l 539 742 l 410 742 l 410 875 l 222 875 l 222 742 l 92 742 l 92 554 l 222 554 l 222 421 l 410 421 l 410 554 z m 539 171 l 539 363 l 92 363 l 92 171 z "},"×":{"ha":629,"x_min":0,"x_max":0,"o":"m 446 242 l 569 368 l 442 494 l 565 618 l 440 744 l 317 621 l 192 744 l 67 618 l 190 494 l 61 365 l 186 240 l 317 369 z "},"÷":{"ha":629,"x_min":0,"x_max":0,"o":"m 314 622 b 426 707 399 622 426 639 b 314 792 426 776 399 792 b 203 707 231 792 203 776 b 314 622 203 638 225 622 z m 574 392 l 574 588 l 57 588 l 57 392 z m 314 185 b 426 271 399 185 426 203 b 314 356 426 340 399 356 b 203 271 231 356 203 340 b 314 185 203 201 225 185 z "},"=":{"ha":629,"x_min":0,"x_max":0,"o":"m 553 540 l 553 732 l 78 732 l 78 540 z m 553 269 l 553 461 l 78 461 l 78 269 z "},"≠":{"ha":629,"x_min":0,"x_max":0,"o":"m 553 274 l 553 460 l 364 460 l 389 542 l 553 542 l 553 728 l 447 728 l 474 813 l 344 813 l 318 728 l 78 728 l 78 542 l 261 542 l 235 460 l 78 460 l 78 274 l 178 274 l 147 175 l 275 175 l 306 274 z "},"≈":{"ha":611,"x_min":0,"x_max":0,"o":"m 183 763 b 74 713 138 763 90 739 l 74 514 b 182 572 96 551 143 572 b 435 510 254 572 342 510 b 539 560 478 510 524 535 l 539 758 b 435 700 515 719 475 700 b 183 763 364 700 265 763 z m 74 449 l 74 250 b 182 308 96 283 142 308 b 435 246 251 308 340 246 b 539 294 482 246 524 269 l 539 493 b 435 435 513 454 475 435 b 182 497 360 435 264 497 b 74 449 138 497 90 475 z "},"<":{"ha":611,"x_min":0,"x_max":0,"o":"m 538 217 l 538 429 l 321 507 l 538 585 l 538 797 l 69 599 l 69 413 z "},">":{"ha":611,"x_min":0,"x_max":0,"o":"m 75 217 l 543 413 l 543 599 l 75 797 l 75 585 l 292 507 l 75 429 z "},"≤":{"ha":611,"x_min":0,"x_max":0,"o":"m 538 378 l 538 564 l 300 642 l 538 718 l 538 904 l 69 719 l 69 560 z m 538 167 l 538 342 l 71 342 l 71 167 z "},"≥":{"ha":611,"x_min":0,"x_max":0,"o":"m 75 378 l 543 560 l 543 719 l 75 904 l 75 718 l 313 642 l 75 564 z m 542 167 l 542 342 l 75 342 l 75 167 z "},"¬":{"ha":621,"x_min":0,"x_max":0,"o":"m 576 244 l 576 647 l 29 647 l 29 449 l 364 449 l 364 244 z "},"≡":{"ha":629,"x_min":0,"x_max":0,"o":"m 553 665 l 553 836 l 78 836 l 78 665 z m 553 422 l 553 594 l 78 594 l 78 422 z m 553 179 l 553 350 l 78 350 l 78 179 z "},"′":{"ha":317,"x_min":0,"x_max":0,"o":"m 186 683 l 293 1000 l 85 1000 l 28 683 z "},"″":{"ha":557,"x_min":0,"x_max":0,"o":"m 186 683 l 292 1000 l 85 1000 l 28 683 z m 424 683 l 535 1000 l 328 1000 l 265 683 z "},"℅":{"ha":872,"x_min":0,"x_max":0,"o":"m 47 0 l 283 0 b 822 1000 407 163 688 829 l 594 1000 b 47 0 471 833 185 168 z m 197 531 b 372 689 304 531 369 586 l 372 757 l 224 757 l 224 696 b 199 668 221 678 215 668 b 172 704 179 668 172 681 l 172 842 b 199 879 172 867 179 879 b 224 851 217 879 222 868 l 224 811 l 372 811 l 372 858 b 199 1014 368 960 297 1014 b 25 849 94 1014 25 957 l 25 693 b 197 531 25 588 86 531 z m 674 -12 b 849 149 782 -12 849 42 l 849 304 b 675 471 849 413 778 471 b 501 304 571 471 501 413 l 501 149 b 674 -12 501 42 563 -12 z m 675 124 b 649 161 656 124 649 136 l 649 297 b 675 335 649 322 656 335 b 701 297 696 335 701 322 l 701 161 b 675 124 701 136 694 124 z "},"‗":{"ha":631,"x_min":0,"x_max":0,"o":"m 607 183 l 24 183 l 24 0 l 607 0 z m 607 -53 l 24 -53 l 24 -235 l 607 -235 z "},"‼":{"ha":664,"x_min":0,"x_max":0,"o":"m 54 1000 l 54 707 b 93 289 54 508 81 308 b 175 297 108 294 140 297 b 257 289 210 297 239 294 b 296 707 268 308 296 511 l 296 1000 z m 372 1000 l 372 707 b 410 289 372 508 399 308 b 493 297 426 294 458 297 b 574 289 528 297 556 294 b 614 707 586 308 614 511 l 614 1000 z m 174 -11 b 301 122 271 -11 301 14 b 174 256 301 232 271 256 b 46 122 76 256 46 232 b 174 -11 46 13 72 -11 z m 490 -11 b 619 122 588 -11 619 14 b 490 256 619 232 588 256 b 363 122 393 256 363 232 b 490 -11 363 13 389 -11 z "},"∞":{"ha":944,"x_min":0,"x_max":0,"o":"m 683 451 b 594 504 651 451 626 474 b 683 557 626 536 651 557 b 738 504 715 557 738 533 b 683 451 738 475 715 451 z m 264 453 b 210 504 232 453 210 476 b 264 556 210 532 232 556 b 354 504 294 556 322 536 b 264 453 322 474 294 453 z m 253 279 b 471 389 353 279 401 322 b 694 281 540 322 593 281 b 914 504 836 281 914 368 b 692 725 914 629 821 725 b 474 618 589 725 543 685 b 256 725 404 685 357 725 b 31 504 119 725 31 629 b 253 279 31 368 97 279 z "},"∂":{"ha":618,"x_min":0,"x_max":0,"o":"m 310 -15 b 588 272 482 -15 588 75 l 588 553 b 324 1065 588 783 485 958 l 31 1065 b 356 771 204 957 306 869 b 267 796 335 788 306 796 b 32 528 111 796 32 701 l 32 249 b 310 -15 32 69 128 -15 z m 311 182 b 254 254 278 182 254 201 l 254 525 b 311 603 254 581 274 603 b 368 525 351 603 368 585 l 368 256 b 311 182 368 200 343 182 z "},"π":{"ha":776,"x_min":0,"x_max":0,"o":"m 433 210 b 646 0 433 42 479 0 l 749 0 l 749 200 l 700 200 b 653 254 663 200 653 211 l 653 792 l 749 792 l 749 1000 l 28 1000 l 28 792 l 122 792 l 122 0 l 342 0 l 342 792 l 433 792 z "},"μ":{"ha":629,"x_min":0,"x_max":0,"o":"m 311 -12 b 392 61 360 -12 382 10 l 407 0 l 585 0 l 585 813 l 356 813 l 356 275 b 311 192 356 222 349 192 b 268 271 275 192 268 221 l 268 813 l 42 813 l 42 -251 l 267 -251 l 267 1 b 311 -12 278 -8 293 -12 z "},"∫":{"ha":461,"x_min":0,"x_max":0,"o":"m 18 -256 l 107 -256 b 339 -35 274 -256 339 -197 l 339 789 b 386 842 339 831 350 842 l 443 842 l 443 1033 l 350 1033 b 118 813 183 1033 118 975 l 118 -11 b 71 -64 118 -53 107 -64 l 18 -64 z "},"√":{"ha":808,"x_min":0,"x_max":0,"o":"m 481 0 l 814 1000 l 576 1000 l 372 415 l 288 688 l 39 688 l 39 465 l 125 465 l 256 0 z "},"∆":{"ha":792,"x_min":0,"x_max":0,"o":"m 794 0 l 396 1021 l -4 0 z m 499 189 l 296 189 l 397 471 z "},"Ω":{"ha":863,"x_min":0,"x_max":0,"o":"m 407 200 b 299 576 322 344 299 454 b 429 806 299 763 358 806 b 561 575 501 806 561 761 b 450 200 560 453 536 344 l 547 0 l 832 0 l 832 215 l 676 215 b 801 582 747 315 800 426 b 429 1015 801 892 661 1015 b 58 583 200 1015 58 883 b 181 215 58 425 111 315 l 26 215 l 26 0 l 318 0 z "},"∏":{"ha":776,"x_min":0,"x_max":0,"o":"m 433 0 l 653 0 l 653 792 l 750 792 l 750 1000 l 28 1000 l 28 792 l 122 792 l 122 0 l 342 0 l 342 792 l 433 792 z "},"∑":{"ha":549,"x_min":0,"x_max":0,"o":"m 515 210 l 288 210 l 500 511 l 290 799 l 506 799 l 506 1000 l 39 1000 l 39 801 l 229 514 l 29 207 l 29 0 l 515 0 z "},"◊":{"ha":758,"x_min":0,"x_max":0,"o":"m 381 135 l 746 500 l 379 867 l 14 501 z m 288 501 l 378 593 l 474 499 l 381 407 z "},"°":{"ha":418,"x_min":0,"x_max":0,"o":"m 208 650 b 397 821 324 650 397 707 l 397 829 b 210 1010 397 950 321 1010 b 21 829 100 1010 21 950 l 21 821 b 208 650 21 707 88 650 z m 210 797 b 182 828 194 797 182 807 l 182 829 b 210 863 182 856 194 863 b 238 829 228 863 238 856 l 238 828 b 210 797 238 806 225 797 z "}}}
